<?xml version="1.0" encoding="UTF-8"?><svg version="1.1" xmlns="http://www.w3.org/2000/svg" xmlns:xlink="http://www.w3.org/1999/xlink" viewBox="0 0 400 400" width="400" height="400" x="0px" y="0px">
              
              <!-- ITEM 0 -->
<g>
    <defs>
        
        <clipPath id="clip-path-id-viewbox-item-0">
            <rect x="0.0" y="0.0" width="167.58" height="145.0"/>
        </clipPath>
    </defs>
    <g transform="translate(123.0 145.0) rotate(0.0 83.5 72.5) scale(0.9965389664637784 1.0)">
      <g clip-path="url(#clip-path-id-viewbox-item-0)" transform="translate(-0.0 -0.0)">
      <title>ant_running</title><g id="Layer_2-i0" data-name="Layer 2"><g id="ant_running-i0"><path d="M93.466,42.6c-.3-4.9,4.7-15.6,18.9-15.2,15.3.5,19.2,13.3,17.7,17.1-4.7,12-25.8,10.7-31.2,7.1C95.266,49.1,93.766,46.6,93.466,42.6Z" fill="#fece2f"/><path d="M112.366,27.4c-14.2-.5-19.2,10.2-18.9,15.2a10.376,10.376,0,0,0,4.2,8.1C93.766,34.8,112.366,27.4,112.366,27.4Z" fill="#fff"/><circle cx="116.966" cy="40.5" r="4.8" fill="#191919"/><path d="M112.366,39.1a4.481,4.481,0,0,0,.3,3.6,3.3,3.3,0,0,0,1.6-6.3A5.175,5.175,0,0,0,112.366,39.1Z" fill="#fff"/><polygon points="73.266 129.8 78.466 142.2 92.666 129.5 73.266 129.8" fill="#fff"/><path d="M95.566,130.6l-2.1-1.9a1.08,1.08,0,0,0-.7-.3h0l-18.7.3a34.68,34.68,0,0,1-3-3.7,52.119,52.119,0,0,1-3.4-5.6,54.23,54.23,0,0,1-2.6-6c-.7-2.1-1.3-4.1-1.9-6.3a94.925,94.925,0,0,1-2-13c-.1-2.2-.2-4.4-.2-6.5,0-1.1,0-2.2.1-3.3a8.083,8.083,0,0,1,.1-1.6c0-.5.1-1.1.1-1.6l-4.7-.4v3.5c0,1.2,0,2.3.1,3.4.1,2.3.3,4.6.6,6.8a75.764,75.764,0,0,0,2.7,13.4c.6,2.2,1.4,4.4,2.2,6.5a50.482,50.482,0,0,0,3,6.2,56.453,56.453,0,0,0,3.8,5.7,39.2,39.2,0,0,0,3.4,3.7l5.2,12.4h0a.1.1,0,0,0,.1.1v.1h0l1.9,2.1a1.234,1.234,0,0,0,.8.4h.1a.779.779,0,0,0,.7-.3l14.3-12.9a1.234,1.234,0,0,0,.4-.8C95.866,131.1,95.766,130.8,95.566,130.6Zm-8.4,2.3-8.2,7.4-4-9.4,14.7-.2Z" fill="#191919"/><path d="M167.366,20.9a56.488,56.488,0,0,0-11.6-1.3c-1.9,0-3.9.1-5.9.3a38.79,38.79,0,0,0-5.8.9,63.589,63.589,0,0,0-11.3,3.3q-2.7,1.05-5.4,2.4a21.481,21.481,0,0,0-2.6,1.4,8.265,8.265,0,0,1-1.3.7,4.348,4.348,0,0,0-.7.4,25.213,25.213,0,0,0-3.3-1.5l1.8-2.1a46.737,46.737,0,0,1,4.4-4.5,56.149,56.149,0,0,1,10-7.6,49.215,49.215,0,0,1,11.5-5.1l.7-.2.8-.2c.5-.1,1-.3,1.5-.4,1-.2,2.1-.4,3.1-.6,2.1-.3,4.2-.4,6.3-.5h0a.43.43,0,0,0,.4-.4.366.366,0,0,0-.4-.4,47.151,47.151,0,0,0-6.5.3c-1.1.1-2.1.3-3.2.4-.5.1-1,.2-1.6.3l-.8.2-.8.2a50.384,50.384,0,0,0-12.1,4.9,56.412,56.412,0,0,0-10.6,7.5c-1.6,1.4-3.2,2.9-4.7,4.5-.7.8-1.5,1.6-2.2,2.4a2.181,2.181,0,0,1-.4.5,19.715,19.715,0,0,0-4.4-.5c-1.1,0-2.2,0-3.2.1l8.4-16.7c15.3-1.1,15.5-8.1,15.5-8.4V.1l-13.1-.1-3.7,7.1-13.6,20.8a16.4,16.4,0,0,0-5.9,4,15.9,15.9,0,0,0-4.6,10.8h0a13.521,13.521,0,0,0,1.1,4.7,12.094,12.094,0,0,0-7.3,0l-4.6-9.5-2.9-6.1-.3-.7c-.1-.1-.1-.3-.2-.5a3.75,3.75,0,0,1-.1-1.1,4.253,4.253,0,0,1,.2-1.1v-.1l.1-.2.1-.4.3-.8,10.6-25.1h0l.7-1.6-20.2.1-.1.9a4.945,4.945,0,0,0,1.3,3.8c2,2.5,6,4.1,12,4.6l-7.6,15.7-.4.8-.2.4-.1.2-.1.3a9.017,9.017,0,0,0-.6,2.2,9.064,9.064,0,0,0,.1,2.3c.1.4.2.7.3,1.1l.2.4.1.4,2.6,6.3,4.1,9.7c-3.6,2.4-5.7,5.9-5.7,9.2a13.808,13.808,0,0,0-6.4-2.8c-7.1-1.2-17.4-.1-25.1,6.5-8.1,6.9-10,13.3-10.1,17.4a14.338,14.338,0,0,0,3.9,10.6c2.4,2.4,6.3,3.7,10.9,3.7,1.1,0,2.2-.1,3.4-.2,4.8-.6,12.4-2.9,21-10.2a23.571,23.571,0,0,0,3.8-4h0a17.064,17.064,0,0,0,2.9-14.6c3,1.4,7.2,1.2,11.1-.8,5.1-2.6,8-7.5,7.1-11.5,2.5,1.6,7.3,2.7,12.5,2.7a34.223,34.223,0,0,0,9.6-1.3c5.3-1.6,9-4.7,10.7-9,.8-2.1.3-6.3-2.2-10.2a17.335,17.335,0,0,0-3.8-4.1,8.794,8.794,0,0,1,1-.6l2.4-1.5a48.134,48.134,0,0,1,5.1-2.5,68.811,68.811,0,0,1,10.8-3.7,63.972,63.972,0,0,1,11.3-1.5,55.654,55.654,0,0,1,11.5.8h0c.2,0,.4-.1.4-.3C167.766,21.1,167.566,20.9,167.366,20.9ZM127.066,36c2.2,3.4,2.5,6.8,2,8.1-1.4,3.6-4.6,6.2-9.3,7.7l-2.4.6a5.665,5.665,0,0,0-5.9-5.3,5.532,5.532,0,0,0-5.3,5.6,17.011,17.011,0,0,1-6.7-2.1c-3.4-2.3-4.7-4.5-4.9-8.1h0a13.088,13.088,0,0,1,4-9c2.3-2.4,6.6-5.2,13.8-4.9a13.576,13.576,0,0,1,2.9.3l-.1.1h0a1.3,1.3,0,0,0,2.2,1.4h0l.6-.9A15.474,15.474,0,0,1,127.066,36Z" fill="#191919"/><path d="M42.166,67.5c-3.4,3.8-4.9,7.2-5.4,10a47.585,47.585,0,0,0,12.8,14.2,22.856,22.856,0,0,0,2.5-.2,33.168,33.168,0,0,0,10.6-3.5A48.1,48.1,0,0,1,42.166,67.5Z" fill="#fff"/><path d="M68.566,57.9a29.027,29.027,0,0,0-4.3-.3,32.79,32.79,0,0,0-9.1,1.3A64.584,64.584,0,0,0,75.366,78a16.221,16.221,0,0,0,3-10.2A33.786,33.786,0,0,1,68.566,57.9Z" fill="#fff"/><polygon points="18.866 113 10.866 106.7 6.066 120.3 18.866 113" fill="#fff"/><path d="M49.166,84.5a8.752,8.752,0,0,0-.2-1.6l-.1-.8c0-.3-.1-.5-.1-.9v-.1a2,2,0,0,0-3.9.9h0c0,.2.1.4.1.7l.1.7c.1.5.1,1,.2,1.5.1,1,.2,2,.2,2.9a28.828,28.828,0,0,1-.3,5.9,21.863,21.863,0,0,1-4.1,10.6,16.85,16.85,0,0,1-4.2,3.8,15.705,15.705,0,0,1-2.5,1.4,23.074,23.074,0,0,1-2.8,1,33.9,33.9,0,0,1-10.6,1.3l-10.1-8h0l-.1-.1h-.1l-2.7-.9a1.387,1.387,0,0,0-.9,0,1.167,1.167,0,0,0-.6.6l-6.4,18.2a.972.972,0,0,0,.1.9,1.057,1.057,0,0,0,.7.6l2.8.7h.5c.1,0,.1,0,.2-.1h0l16.7-9.5a38.091,38.091,0,0,0,11.1-1.1c1-.2,2.1-.7,3.1-1a26.39,26.39,0,0,0,2.9-1.5,21.184,21.184,0,0,0,5.1-4.3,19.591,19.591,0,0,0,3.4-5.7,29.848,29.848,0,0,0,1.8-6.3,34.925,34.925,0,0,0,.5-6.5A12.223,12.223,0,0,0,49.166,84.5Zm-43.1,35.8,4.8-13.6,8,6.3Z" fill="#191919"/></g></g>
      </g>
    </g>
</g>

              </svg>