<?xml version="1.0" encoding="UTF-8"?><svg version="1.1" xmlns="http://www.w3.org/2000/svg" xmlns:xlink="http://www.w3.org/1999/xlink" viewBox="0 0 600 400" width="600" height="400" x="0px" y="0px">
              
              <!-- ITEM 0 -->
<g>
    <defs>
        
        <clipPath id="clip-path-id-viewbox-item-0">
            <rect x="0.0" y="0.0" width="444.81" height="394.88"/>
        </clipPath>
    </defs>
    <g transform="translate(150.0 102.0) rotate(0.0 115.5 102.5) scale(0.5193228569501585 0.519145056726094)">
      <g clip-path="url(#clip-path-id-viewbox-item-0)" transform="translate(-0.0 -0.0)">
      <title>abstract_background_15</title><path d="M339.08,16.32s114.3,62.8,105.22,203S301.24,364.06,262.63,348.74s-87,6.13-116.56,20.68S78.7,424.57,22.69,357.17s3.78-195.32,49.2-178.47,124.69-53.25,129.43-87.32C208.89,37,227.81-31.94,339.08,16.32Z" style="fill:#fece2f;"/>
      </g>
    </g>
</g>

<!-- ITEM 1 -->
<g>
    <defs>
        
        <clipPath id="clip-path-id-viewbox-item-1">
            <rect x="0.0" y="0.0" width="131.461" height="101.352"/>
        </clipPath>
    </defs>
    <g transform="translate(215.0 167.0) rotate(0.0 65.0 50.0) scale(0.9888864378028464 0.9866603520404136)">
      <g clip-path="url(#clip-path-id-viewbox-item-1)" transform="translate(-0.0 -0.0)">
      <title>bird</title><g id="Layer_2-i1" data-name="Layer 2"><g id="bird-i1"><path d="M63.9,67.136v-.3a2.617,2.617,0,1,0-5.2.6h0v2.6a13.329,13.329,0,0,1-.3,2.8,18.674,18.674,0,0,1-1.8,5.5,12.75,12.75,0,0,1-1.5,2.5l-.9,1.2-.9,1.2a28.515,28.515,0,0,1-4.4,4.1,7.234,7.234,0,0,0-2.1.1,4.508,4.508,0,0,0-1.1.3c-.2.1-.4.1-.6.2a3.287,3.287,0,0,0-.6.3,2.651,2.651,0,0,0-.6.5,1.552,1.552,0,0,0,.3,2.1l1,.7c.1,0,.2.1.4.1l.4.1.8.2c.5.1,1,.3,1.4.4a4.849,4.849,0,0,1,2,1.2,6.4,6.4,0,0,1,1.4,2c.4.9.8,2,1.2,3.2v.1a1.427,1.427,0,0,0,2.7.1,8.038,8.038,0,0,0,.6-4.4,11.627,11.627,0,0,0-.4-1.8,4.349,4.349,0,0,1,.7.6,3.6,3.6,0,0,1,.8,1.2,13.78,13.78,0,0,1,.6,1.6,34.236,34.236,0,0,1,.9,4v.1a1.589,1.589,0,0,0,.8,1,1.471,1.471,0,0,0,1.9-.7,10.575,10.575,0,0,0,.9-5.1,9.37,9.37,0,0,0-.6-2.8,10.679,10.679,0,0,0-1.6-2.7,7.558,7.558,0,0,0-2.5-1.9,15.175,15.175,0,0,0-2.8-.9c-.4,0-.9-.1-1.3-.1a7.965,7.965,0,0,0,1.7-1.5l1.2-1.2c.4-.4.7-.8,1.1-1.2.7-.9,1.4-1.8,2-2.7a27.032,27.032,0,0,0,2.9-6.2,33.834,33.834,0,0,0,.8-3.4,11.019,11.019,0,0,0,.2-1.8v-1.4Z" fill="#191919"/><path d="M79.5,9.236a8,8,0,0,0-2-3.6c-1.1-.9-2.8-1.2-3.8-.1a4.2,4.2,0,0,0-.9,1.9,30.055,30.055,0,0,0-.9,8.4,6.762,6.762,0,0,0-2.6-3.6,4.164,4.164,0,0,0-4.3-.2,4.416,4.416,0,0,0-1.9,3.7,12.6,12.6,0,0,0,.8,4.3c1.5,4.6,3.7,9.3,7.9,11.5,1.8.9,6.1,2.6,8.1,1.9,2.1-.7,1.8-3.8,1.9-5.6A46.748,46.748,0,0,0,79.5,9.236Z" fill="#fff"/><path d="M35.6,57.536l-3.3-15.8a1.555,1.555,0,0,0-.6-.8,1.7,1.7,0,0,0-1,0c-.1,0-7.6,4.3-15,9.3C1.9,59.336.1,62.736,0,64.436a2.512,2.512,0,0,0,1,2.1,7.782,7.782,0,0,0,4.6,1.4c4,0,8.3-2.3,10.2-3.5a3.49,3.49,0,0,0,.9.6c1.4.7,3.3.6,5.7-.4,1.5.9,5.9,2.8,12.7-1.2a1.326,1.326,0,0,0,.6-1v-4.7C35.6,57.736,35.6,57.636,35.6,57.536Z" fill="#191919"/><ellipse cx="58" cy="48.136" rx="27" ry="29.5" fill="#fece2f"/><path d="M80.3,31.636a31.141,31.141,0,0,1,1.6,10.2c0,16.3-12.1,29.5-27,29.5-9.3,0-17.5-5.2-22.3-13,3.8,11.3,13.7,19.3,25.3,19.3,14.9,0,27-13.2,27-29.5A31.434,31.434,0,0,0,80.3,31.636Z" fill="#fff"/><path d="M61.3,24.236c-7.5-17.8-12-24.9-16.7-23.1-4.4,1.6-4.1,11.5,2.4,30,0,0-9.2-17.1-12.6-14.1-2.4,2.1,2.2,10.9,5,15.7-2.1-3-5.3-6.8-7.7-4.9-3.7,3,9.7,25.4,14.4,28.6s13.3,1.5,18.7-4.6S66.4,36.336,61.3,24.236Z" fill="#fece2f"/><path d="M67.3,46.936c1-5.8-2.1-13.5-6-22.6-7.5-17.8-12-24.9-16.7-23.1-2.2.8-3.2,3.6-2.9,8.4,0,0,10.8,3.1,14.7,19.2C60.3,44.836,67.2,46.936,67.3,46.936Z" fill="#fff"/><path d="M82.2,32.836a1.087,1.087,0,0,0,.7-1c0-.1,0-6.6-.7-13.2-1.1-9.6-3.1-14.2-6.3-14.5a3.708,3.708,0,0,0-3.2,1.2c-1.6,1.7-1.8,4.9-1.7,7.6-1.5-1.5-3.5-2.8-5.5-1.8-2.5,1.2-2.8,5.3-2.8,7.1-1-.2-2.1-.3-3.1-.4-5.9-13.2-10.3-19.4-15.4-17.5-4.5,1.7-4.9,9.2-1.1,22.5-2.4-3.4-5.1-6.6-7.3-7a2.863,2.863,0,0,0-2.2.6c-.7.6-2.5,2.3,1.3,10.4a5.638,5.638,0,0,0-1.2-.4,3.7,3.7,0,0,0-2.7.7,3.343,3.343,0,0,0-1,2.9,23.175,23.175,0,0,0,1.9,6.7,33.531,33.531,0,0,0-2.1,11.5c0,16.9,12.6,30.6,28.1,30.6S86,65.136,86,48.236A31.381,31.381,0,0,0,82.2,32.836Zm-15.7-19.9c1.6-.8,4.1,2.6,5.1,4.3a1.027,1.027,0,0,0,1.3.5,1.086,1.086,0,0,0,.7-1.2c-.5-2.9-.8-8.2.7-9.9a1.19,1.19,0,0,1,1.3-.4c3,.3,4.9,12.5,5,24.1a28.233,28.233,0,0,0-15.8-11.8C64.9,16.536,65.3,13.536,66.5,12.936Zm-34,15.8a.908.908,0,0,1,.7-.3h.2c1.3.2,3.1,1.9,5.1,4.9a1.1,1.1,0,0,0,1.5.3,1.129,1.129,0,0,0,.4-1.5c-5.8-9.8-6-13.6-5.3-14.3a.438.438,0,0,1,.3-.1c2.4.4,7.6,8.3,10.6,13.8a1.24,1.24,0,0,0,1.5.5,1.158,1.158,0,0,0,.6-1.4c-8.5-24.4-4.5-28-3.1-28.6,4.1-1.5,8.9,7.5,15.3,22.5,4.7,11.1,8.8,20.8,3.8,26.4-4.7,5.4-12.8,7.5-17.2,4.4-3.8-2.6-14.4-19.6-14.6-25.7A1.1,1.1,0,0,1,32.5,28.736ZM58,76.536c-14.3,0-25.9-12.7-25.9-28.4a29.105,29.105,0,0,1,1.2-8.5c3.7,7.4,9.4,15.9,12.3,17.8a11.322,11.322,0,0,0,6.3,1.8,19.239,19.239,0,0,0,13.8-6.6c5.9-6.8,1.6-17-3.4-28.8-.6-1.3-1.1-2.7-1.7-3.9,13,1.5,23.1,13.6,23.1,28.2C83.8,63.836,72.2,76.536,58,76.536Z" fill="#191919"/><path d="M46,66.336a2.608,2.608,0,1,0-5.2.4v.6a1.952,1.952,0,0,1-.1.7,7.844,7.844,0,0,1-.2,1.4,27.971,27.971,0,0,1-.6,2.8,33.911,33.911,0,0,1-2,5.3,30.256,30.256,0,0,1-3.1,4.8,24.674,24.674,0,0,1-2.8,2.8c-.2,0-.4.1-.7.1a6.373,6.373,0,0,1-.7.2l-.3.1-.4.1h0c-.4-.1-.7-.2-1.1-.3a16.352,16.352,0,0,0-2.2-.2,4.1,4.1,0,0,0-1.1.1,1.268,1.268,0,0,0-.6.1l-.6.1a1.8,1.8,0,0,0-.9.6,1.621,1.621,0,0,0,.3,2.3l.6.5c.1.1.2.1.4.2l.4.1.8.3,1.5.6a11.711,11.711,0,0,1,2.5,1.4c.3.3.6.5.9.8a5.5,5.5,0,0,1,.7.9,15.542,15.542,0,0,1,1.2,2.8v.1a1.419,1.419,0,0,0,.8.9,1.528,1.528,0,0,0,2-.7,6.755,6.755,0,0,0,.5-4.7,4.714,4.714,0,0,0-.6-1.5l.6.3a10.627,10.627,0,0,1,1.1.9,3.6,3.6,0,0,1,.8,1.2c.2.5.4,1,.6,1.6a38.687,38.687,0,0,1,.7,4.3v.1a1.507,1.507,0,0,0,2.8.5,6.117,6.117,0,0,0,.5-1.2c.1-.4.3-.9.4-1.3s.2-.9.3-1.3a1.7,1.7,0,0,1,.1-.7v-.7a10.323,10.323,0,0,0-.4-3,8.267,8.267,0,0,0-1.6-2.9,7.9,7.9,0,0,0-2.7-2.1,11.275,11.275,0,0,0-2.4-.8,2.336,2.336,0,0,0,.7-.7,25.326,25.326,0,0,0,4.2-5,31.869,31.869,0,0,0,3-5.8c.4-1,.8-2.1,1.1-3.1.1-.5.3-1,.4-1.6.1-.3.1-.6.2-.8l.1-.4a1.087,1.087,0,0,1,.1-.5v-.7Z" fill="#191919"/><circle cx="90.8" cy="43.736" r="15" fill="#fff"/><circle cx="90.8" cy="43.736" r="9.8" fill="#fff"/><path d="M90.8,54.636a10.422,10.422,0,0,1-6.5-2.2h0a10.86,10.86,0,0,1,13-17.4,11.509,11.509,0,0,1,4.3,7.2,10.772,10.772,0,0,1-2.1,8.1,11.509,11.509,0,0,1-7.2,4.3Zm-5.1-4a8.635,8.635,0,0,0,6.4,1.6,8.345,8.345,0,0,0,5.7-3.4,8.635,8.635,0,0,0,1.6-6.4,8.345,8.345,0,0,0-3.4-5.7,8.65,8.65,0,0,0-10.3,13.9Z" fill="#191919"/><circle cx="90.8" cy="43.736" r="6.5" fill="#191919"/><circle cx="92.6" cy="47.236" r="3.5" fill="#fff"/><path d="M130.2,52.636c-14.4,1.4-21.1-1.8-24-4.1a16.1,16.1,0,0,0-1-11.9c.3-.4.5-.8.9-1.4a45.262,45.262,0,0,0,2.7-5.4c2.2-5.1,5.2-14,.7-16.5a4.747,4.747,0,0,0-4.4-.4c-1.8.9-2.7,3.1-3.2,4.6a6.156,6.156,0,0,0-3.4-.9,5.278,5.278,0,0,0-3.8,2.1c-1.6,2-1.2,5.2-.4,7.5a14.58,14.58,0,0,0,.7,1.9,18.406,18.406,0,0,0-4.1-.5,16.1,16.1,0,0,0,0,32.2,15.851,15.851,0,0,0,10.7-4.1,27.521,27.521,0,0,0,18.8,8.7h.7a1.092,1.092,0,0,0,.3-2.1,41.345,41.345,0,0,1-8.8-4.6,50.314,50.314,0,0,0,17.8-2.8l.6-.3A1.114,1.114,0,0,0,130.2,52.636Zm-25.8-6h0a9.2,9.2,0,0,0-4.6,7.7,13.871,13.871,0,1,1-9-24.4,14.587,14.587,0,0,1,5.5,1.1c1.8,3.2,4.4,6,6.9,6.8h.1a14.54,14.54,0,0,1,1.3,5.9A9.467,9.467,0,0,1,104.4,46.636Z" fill="#181818"/></g></g>
      </g>
    </g>
</g>

              </svg>