<?xml version="1.0" encoding="UTF-8"?><svg version="1.1" xmlns="http://www.w3.org/2000/svg" xmlns:xlink="http://www.w3.org/1999/xlink" viewBox="0 0 100 100" width="100" height="100" x="0px" y="0px">
    
    
    <!-- ITEM 0 -->
    <g>
        <defs>
            <clipPath id="clip-path-id-viewbox-item-0">
                <rect x="0.0" y="0.0" width="158.223" height="110.0"/>
            </clipPath>
        </defs>
        <g transform="translate(0.0 14.0) rotate(0.0 50.0 34.5) scale(0.6320193650733458 0.6272727272727273)">
            <g clip-path="url(#clip-path-id-viewbox-item-0)" transform="translate(-0.0 -0.0)">
                <title>stack_of_books</title><g id="ee9292a6-631f-4da8-9c71-abc38efb1e5e-i0" data-name="Layer 2"><g id="ef69d2fb-c2c6-4e82-8318-3bd227462fd4-i0" data-name="stack_of_books"><path d="M150.5,85.5s14,9,0,23h-96l-53-22c14-14,0-23,0-23" fill="#fff"/><path d="M150.5,110h-96a1.516,1.516,0,0,1-.575-.114l-53-22A1.5,1.5,0,0,1,.44,85.439c4.2-4.2,6.132-8.284,5.73-12.125C5.616,68.023.735,64.792.686,64.76a1.5,1.5,0,0,1,1.625-2.522c.25.16,6.117,4,6.84,10.732.458,4.266-1.247,8.624-5.073,12.976L54.8,107h95.072c3.905-4.05,5.688-7.979,5.3-11.686-.554-5.291-5.435-8.522-5.484-8.554a1.5,1.5,0,0,1,1.625-2.522c.25.16,6.117,4,6.84,10.732.515,4.794-1.7,9.7-6.59,14.591A1.5,1.5,0,0,1,150.5,110Z" fill="#1a1a1a"/><path d="M54.5,110a1.5,1.5,0,0,1-1.06-2.561c4.214-4.214,6.141-8.3,5.728-12.149-.572-5.316-5.43-8.5-5.479-8.528a1.5,1.5,0,1,1,1.622-2.524c.25.16,6.117,4,6.84,10.732.515,4.794-1.7,9.7-6.59,14.591A1.5,1.5,0,0,1,54.5,110Z" fill="#1a1a1a"/><polygon points="1.5 63.5 54.5 85.5 150.5 85.5 84.5 63.5 1.5 63.5" fill="#ffce31"/><path d="M150.5,87h-96a1.516,1.516,0,0,1-.575-.114l-53-22A1.5,1.5,0,0,1,1.5,62h83a1.5,1.5,0,0,1,.474.077l66,22A1.5,1.5,0,0,1,150.5,87ZM54.8,84h86.458l-57-19H9.027Z" fill="#1a1a1a"/><path d="M12.5,32.5s9,11,0,23l34,22h96c14-14,0-23,0-23" fill="#fff"/><path d="M142.5,79h-96a1.51,1.51,0,0,1-.815-.24l-34-22A1.5,1.5,0,0,1,11.3,54.6c8.2-10.933.122-21.049.039-21.15a1.5,1.5,0,0,1,2.322-1.9c.094.115,8.991,11.252.961,23.536L46.943,76h94.928c3.914-4.059,5.7-8,5.3-11.71-.572-5.316-5.43-8.5-5.479-8.528a1.5,1.5,0,1,1,1.622-2.524c.25.16,6.117,4,6.84,10.732.515,4.794-1.7,9.7-6.59,14.591A1.5,1.5,0,0,1,142.5,79Z" fill="#1a1a1a"/><path d="M46.5,79a1.5,1.5,0,0,1-1.2-2.4c8.2-10.933.122-21.049.039-21.15a1.5,1.5,0,0,1,2.322-1.9c.1.119,9.634,12.057.039,24.85A1.5,1.5,0,0,1,46.5,79Z" fill="#1a1a1a"/><polygon points="12.5 32.5 46.5 54.5 142.5 54.5 95.5 32.5 12.5 32.5" fill="#ffce31"/><path d="M142.5,56h-96a1.51,1.51,0,0,1-.815-.24l-34-22A1.5,1.5,0,0,1,12.5,31h83a1.488,1.488,0,0,1,.636.142l47,22A1.5,1.5,0,0,1,142.5,56ZM46.943,53h88.815L95.167,34H17.579Z" fill="#1a1a1a"/><path d="M10.5,1.5s9,11,0,23l34,22h96c14-14,0-23,0-23" fill="#fff"/><path d="M140.5,48h-96a1.51,1.51,0,0,1-.815-.24l-34-22A1.5,1.5,0,0,1,9.3,23.6c8.2-10.933.122-21.049.039-21.15A1.5,1.5,0,0,1,11.661.55c.094.115,8.991,11.252.961,23.536L44.943,45h94.928c3.914-4.059,5.7-8,5.3-11.71-.572-5.316-5.43-8.5-5.479-8.528a1.5,1.5,0,1,1,1.622-2.524c.25.16,6.117,4,6.84,10.732.515,4.794-1.7,9.7-6.59,14.591A1.5,1.5,0,0,1,140.5,48Z" fill="#1a1a1a"/><path d="M44.5,48a1.5,1.5,0,0,1-1.2-2.4c8.2-10.933.122-21.049.039-21.15a1.5,1.5,0,0,1,2.322-1.9c.1.119,9.634,12.057.039,24.85A1.5,1.5,0,0,1,44.5,48Z" fill="#1a1a1a"/><polygon points="10.5 1.5 44.5 23.5 140.5 23.5 93.5 1.5 10.5 1.5" fill="#ffce31"/><path d="M140.5,25h-96a1.51,1.51,0,0,1-.815-.24l-34-22A1.5,1.5,0,0,1,10.5,0h83a1.488,1.488,0,0,1,.636.142l47,22A1.5,1.5,0,0,1,140.5,25ZM44.943,22h88.815L93.167,3H15.579Z" fill="#1a1a1a"/><path d="M46.5,24.931s100.223-2.917,97.973,13.5c0,0,4.583-12.028-4.583-14.931C128.39,23.5,46.5,24.931,46.5,24.931Z" fill="#1a1a1a"/><path d="M48.5,55.931s100.223-2.917,97.973,13.5c0,0,4.583-12.028-4.583-14.931C130.39,54.5,48.5,55.931,48.5,55.931Z" fill="#1a1a1a"/><path d="M57.611,87.014s99.112-1.833,96.862,14.583c0,0,4.583-12.028-4.583-14.93C138.39,86.667,57.611,87.014,57.611,87.014Z" fill="#1a1a1a"/></g></g>
            </g>
        </g>
    </g>
    
</svg>