<?xml version="1.0" encoding="UTF-8"?><svg version="1.1" xmlns="http://www.w3.org/2000/svg" xmlns:xlink="http://www.w3.org/1999/xlink" viewBox="0 0 1200 800" width="1200" height="800" x="0px" y="0px">
              
              <!-- ITEM 0 -->
<g>
    <defs>
        
        <clipPath id="clip-path-id-viewbox-item-0">
            <rect x="0.0" y="0.0" width="224.322" height="245.226"/>
        </clipPath>
    </defs>
    <g transform="translate(488.0 277.0) rotate(0.0 112.0 122.5) scale(0.998564563440055 0.9990784011483285)">
      <g clip-path="url(#clip-path-id-viewbox-item-0)" transform="translate(-0.0 -0.0)">
      <title>dog_2</title><g id="Layer_2-i0" data-name="Layer 2"><g id="dog_2-i0"><path d="M80.886,113.826s-10.5-7.3-17.2-4.4-17.2,16.3-17.2,16.3-9.4,9.6-11.5,18a77.043,77.043,0,0,0-2,15.8s9.4,2.3,13.6-4.2c4.1-6.5,1.4-14.1,1.4-14.1l11.2-8.8s7.4-5.2,8.2-4.6c.8.7,9.4,7.1,9.4,7.1s5.8-6.1,6.2-10C83.686,117.926,80.886,113.826,80.886,113.826Z" fill="#fece2f"/><path d="M63.786,109.426c-6.7,2.9-17.2,16.3-17.2,16.3s-9.4,9.6-11.5,18a77.043,77.043,0,0,0-2,15.8,19.308,19.308,0,0,0,4,.4l-.3-.3s.7-12.6,2.7-17.2c4.9-10.8,18.9-27.6,23.1-30.3a20.457,20.457,0,0,1,7.2-3.1v-.1A10.981,10.981,0,0,0,63.786,109.426Z" fill="#fff"/><path d="M68.986,38.026s-36-6.5-51-1.5c-1.1.6-10.3,3.2-7.3,20.9s21.8,26.3,21.8,26.3,26.1,7.5,35.5,14c9.3,6.5,12.9,11.4,12.9,16.1,0,0,6.9,10.3-7.3,24.5,0,0-19.8,17.8-20.3,36.3-.6,18.4,1.2,17.9,1.2,17.9s11.8-.7,12.8-9.1c1-8.3-2.9-8.7-2.1-11.5s4-9.4,7.8-11.8a48.845,48.845,0,0,1,9.6-4.2s-1.1,18-4.2,23.6a23.638,23.638,0,0,0-10.7,20.2c.1,13.9,12.7,24.4,15.7,26.9l-14.3,5.9s-13.2-8-19-4.6c-5.9,3.4-11.3,7.7-9.7,12.8s16.7,3.6,16.7,3.6l16.3-.4,8.1-.1,17.4-.3s25.3,2.9,30.3-3.2c0,0,19.5,5.2,44.5-4.7s37-20.2,44-38.9,9.8-48.1-9.1-55.9-33.9,17.5-26.8,28.4c7.1,10.8,13,8.1,13,8.1s-5.1,23-15.3,34a79.409,79.409,0,0,1-21.4,16.2l-1.9-28.6s-5.5-39.3-8.6-52.9-13.4-53.6-22.5-69.2C115.986,61.026,96.486,41.726,68.986,38.026Z" fill="#fece2f"/><path d="M140.886,122.826s2.9,13.1-2.8,22.8-16.9,19.2-10.3,22.5c4.6,2.3,11.4-7.2,15.5-3.3,4.1,3.8-5.8,28.8,2.5,31.8,4.7,1.8,9-1.5,10.5,11.5a332.326,332.326,0,0,0-4.7-41.1C147.686,145.726,140.886,122.826,140.886,122.826Z" fill="#fff"/><path d="M99.286,176.126c-11.4-2.6-18.7,2.8-18.7,2.8l-1.6-.7a13.391,13.391,0,0,1-.6,1.2,23.638,23.638,0,0,0-10.7,20.2c.1,8.5,4.7,15.6,9.1,20.5l1.9.7c-4.7-5.6-6.1-16.8-5.1-23.5C76.086,180.626,99.286,176.126,99.286,176.126Z" fill="#fff"/><path d="M78.586,132.326a47.65,47.65,0,0,1-4.9,5.9s-19.8,17.8-20.3,36.3c-.5,15.4.7,17.6,1.1,17.9h.1c4.6-.7,3.1-7.5,2.4-14.9-.7-7.5,3.2-15.9,8.5-23.1s14.2-17.2,17.7-21.4.3-11.5.3-11.5C83.786,125.026,80.386,130.026,78.586,132.326Z" fill="#fff"/><path d="M214.286,144.326a18.451,18.451,0,0,0-5.7-3.6c-18.9-7.8-33.9,17.5-26.8,28.4,2.9,4.4,5.6,6.5,7.7,7.6l.6-.3s-6.2-11.5.7-21.7C197.986,144.226,206.786,143.526,214.286,144.326Z" fill="#fff"/><path d="M68.986,38.026s-36-6.5-51-1.5c-1.1.6-1.9,4.1-1.5,4.1,30.9-2.6,61.2,4.4,61.2,4.4l31.2,12A75.8,75.8,0,0,0,68.986,38.026Z" fill="#fff"/><path d="M89.986,35.626a2.3,2.3,0,0,1-2-1.3c-3.5-7.4-9.9-5.3-10.6-5a2.218,2.218,0,0,1-2.9-1.3,2.255,2.255,0,0,1,1.3-2.9c.1,0,10.8-4.1,16.3,7.2a2.272,2.272,0,0,1-1,3A2.607,2.607,0,0,1,89.986,35.626Z" fill="#191919"/><path d="M33.686,70.926a7.772,7.772,0,0,0,1.6.2,9.134,9.134,0,0,0,1.6.1,16.859,16.859,0,0,0,3.2-.1,13.679,13.679,0,0,0,2.9-.7,6.686,6.686,0,0,0,2.5-1.6h0a1.214,1.214,0,0,1,1.6.1,1.2,1.2,0,0,1,0,1.4,8.373,8.373,0,0,1-3.1,2.5,12.738,12.738,0,0,1-3.8,1.1,24.1,24.1,0,0,1-3.8,0l-1.8-.3a6.356,6.356,0,0,1-1.8-.6,1.068,1.068,0,0,1-.6-1.5,1.086,1.086,0,0,1,1.2-.7h.3Z" fill="#191919"/><path d="M221.886,155.226c-2.8-8.2-7.7-13.6-14.3-15.6-11.1-3.4-20.8,3.2-25.5,11.3-4.8,8.3-4.3,17.4,1.2,22.7a17.6,17.6,0,0,0,10,5,98.189,98.189,0,0,1-7.2,20.2c-4.8,9.7-13.3,22-27,26.9,0-6.5-.5-32.3-10-78.3-5.3-25.7-13.5-50.9-23-70.9-4.9-10.2-9.9-18.6-14.5-24.4l7.4-8.4s1.9,21,6.7,23.1,12.3-1.8,11.2-17.8c-1.1-16.1-5.7-21.5-7-22.8-1.2-1.2-7.7-1.8-10.6-.7-2.6.9-11.4,17.3-13.2,20.8a21.965,21.965,0,0,0-1.8-1.4c3.7-6.2,12.5-22.3,11.5-36.6-.6-8.2-11.3-13.5-16.6-.4-5.6,13.8-3.2,30-2.4,34.2a380.411,380.411,0,0,0-37.9-6.9c-16.5-2.1-28.8-2.4-36.8-1a13.226,13.226,0,0,0-3.5-9.6,11.014,11.014,0,0,0-8.5-4.1,9.946,9.946,0,0,0-7.5,4,11.273,11.273,0,0,0-1.3,12.4,11.392,11.392,0,0,0,8.7,6.2c-1.9,5.2-1.9,11.5.4,18a40.816,40.816,0,0,0,26.1,25.3c23.3,7.3,37.7,12.6,42.6,24.7.1.2.1.4.3.6a32.707,32.707,0,0,0-4.6-2.3c-5.6-2.2-10.7-2.1-14.9.3-8,4.6-21.4,23.4-24.6,29.8-3,5.9-3.3,19.3-3.3,19.8a1.23,1.23,0,0,0,.7,1.1,16.24,16.24,0,0,0,4.6.7,13.3,13.3,0,0,0,9.7-4c4.3-4.5,2.8-13.1,2.3-15.6,4.8-4.1,9-7.4,12.2-9.6l2.5-1.7a8.774,8.774,0,0,1,3.1-1.4h.1a1.421,1.421,0,0,1,.6.2l.4.2h.1a44.984,44.984,0,0,1,7.1,5.6c-.4.4-.8.9-1.2,1.3-7.9,8.8-22.6,25.3-21.9,38.3.7,15.1,1.2,18,1.3,18.1a1.172,1.172,0,0,0,1.1.9h0c.4,0,9.9-.2,13.4-8.4,1.8-4.1.3-7.8-.9-10.4a7.921,7.921,0,0,1-.8-2.6c.4-1.9,4-9.7,9.5-12.2,1.5-.7,3.5-1.5,5.6-2.4-.6,6.2-2,18.1-3.9,21.2a24.67,24.67,0,0,0-6.5,6.4c-5,7-5.7,15.9-2,24.9a40.378,40.378,0,0,0,11.6,15.5c-2.3.1-5.5.3-6.9.2a6.423,6.423,0,0,1-2.8-1.5c-1.7-1.2-3.8-2.7-6.6-2.7h-.1a10.2,10.2,0,0,0-8.7,4.9,12.745,12.745,0,0,0-5.8.3c-5.6,1.6-10.3,7.5-11.1,11.8a4.179,4.179,0,0,0,1.3,4.4c2.4,1.9,11.2,2.4,19.2,2.4,7.8,0,15-.4,15.2-.4,6.5-.4,16.3-.2,25.8,0,9,.2,17.5.3,21.4-.1a11.952,11.952,0,0,0,7.5-3.4,69.671,69.671,0,0,0,13.2,1.2,77.488,77.488,0,0,0,10.6-.7h.2a32.352,32.352,0,0,0,5.2-.7.365.365,0,0,0,.3-.1,101.23,101.23,0,0,0,15.9-4.3c16.3-5.9,29.8-15.5,38-27C223.286,194.226,227.386,171.226,221.886,155.226Zm-152.7-27.8c-1.9-1.5-5.2-3.7-6.9-2.8a2.263,2.263,0,0,0-.9,2.6c.1.9.3,1.8-1.3,3.1h0c-1.2.8-2.5,1.8-4.1,3-4.4,3.4-8.6,7-8.6,7.1a1.128,1.128,0,0,0-.3,1.1c0,.1,2.5,9.9-1.6,14.1a11.612,11.612,0,0,1-11.1,3c.1-3.1.7-13.4,3-18,3.3-6.4,16.4-24.7,23.8-28.9,3.6-2.1,8-2.1,12.9-.1a32.353,32.353,0,0,1,6.6,3.7.1.1,0,0,1,.1.1c2.8,9.3.1,12.9-2.8,16.6-.3.3-.6.7-1,1.2C75.486,132.126,71.986,128.926,69.186,127.426Zm141.2,81.1c-8,11.2-21.1,20.5-36.9,26.2a98.211,98.211,0,0,1-19.4,4.8c-.4,0-.9.1-1.3.1-7.2.3-13.9-2.2-16.6-6.6-3.9-6.3-9.1-7-9.4-7h-.2a1.135,1.135,0,0,0-.8.3,1.214,1.214,0,0,0-.1,1.6c3.1,3.5,4.3,7,3.2,9.7-1,2.6-3.9,4.4-7.6,4.8-3.8.4-12.2.3-21.1.1-9.6-.2-19.4-.4-26,0-13.8.9-30.3.6-32.8-1.5a2.605,2.605,0,0,1-.5-2.3c.7-3.6,4.9-8.6,9.6-10s9.4,1.3,12.8,3.2a12.143,12.143,0,0,0,3.3,1.6h.1c3.1.7,28.7.1,31.6,0h.4a.1.1,0,0,0,.1-.1h.1a.1.1,0,0,0,.1-.1l.1-.1a.1.1,0,0,1,.1-.1v-.1a.1.1,0,0,1,.1-.1v-.2h0v-.2h0v-.2h0v-.3a.1.1,0,0,0-.1-.1l-.1-.1a.1.1,0,0,0-.1-.1.1.1,0,0,1-.1-.1l-.1-.1h-.4a31.938,31.938,0,0,1-8.4-2.8l-3.2-1.8a38.8,38.8,0,0,1-15.5-17.8c-3.4-8.2-2.8-16.3,1.8-22.7,10-14,27.6-9.6,34.8-7.1a1.718,1.718,0,0,0,.8.2,1.11,1.11,0,0,0,1.1-1.1,1.172,1.172,0,0,0-.9-1.1c-.1,0-.1-.1-.3-.1a45.159,45.159,0,0,0-15.3-2.8h0a28.62,28.62,0,0,0-12.4,2.6,52.859,52.859,0,0,0,1.2-5.3c14.6-3.8,21.5-11.2,24.7-16.6a23.286,23.286,0,0,0,3.5-11.4,14.167,14.167,0,0,0,.8-1.8c2.5-5.6,5.3-13.8,4.9-21.9a1.1,1.1,0,0,0-2.2.2c.4,8.7-3.2,18.1-6.3,24.3l-3.2,5.4v-.2a45.4,45.4,0,0,1,.1-5.1,1.108,1.108,0,0,0-.9-1.2,1.146,1.146,0,0,0-1.3.7c-.8,2.4-4,6.5-6.2,9l.4-2.2c.1-.5.3-1,.4-1.5a1.145,1.145,0,0,0-.6-1.3,1.107,1.107,0,0,0-1.4.4c-1.3,1.9-7.2,4.4-12.2,6.4-.1,0-.2.1-.3.1a10.375,10.375,0,0,0-1,.4c-2.3.9-4.5,1.8-6.2,2.6-6.3,2.9-10.2,11.5-10.7,13.7-.3,1.2.3,2.4.9,4,1,2.4,2.3,5.4.9,8.7-2.4,5.4-8.1,6.7-10.5,6.9-.2-1.8-.6-6.2-1.1-16.8-.6-12.1,13.7-28.1,21.4-36.7,1.6-1.9,3-3.3,3.8-4.4,3.4-4.3,7.2-9.3,1.6-23-5.3-13-20.1-18.5-44-26a39.11,39.11,0,0,1-24.7-23.9c-2.2-6.3-2.2-12.4-.1-17.2a12.472,12.472,0,0,0,5.4-2.1,9.717,9.717,0,0,0,3.8-4.4c7.7-1.6,20.3-1.3,37.1.8,2.8.4,5.6.7,8.3,1.2-1.7,5.7-7.8,31.4,13.8,44.9,22.1,13.9,42.3,1.9,45.9-.4a324.878,324.878,0,0,1,20.2,64.7c8.8,42.5,10.3,70.5,9.9,79.4a.975.975,0,0,0,.4.9,1.449,1.449,0,0,0,.7.2h.3c11.5-3.5,21.3-12.6,28.6-26.2h0c.1-.1.6-1.1,1.3-2.5,4.3-7.7,8.9-12.9,14.7-16.6,7.6-4.9,7.1-10.5,7.1-10.7h0v-.1h0c0-.1,0-.1-.1-.2h0l-.1-.1h0l-.1-.1h0a.1.1,0,0,1-.1-.1h-.7a.1.1,0,0,0-.1.1h0l-.1.1a.1.1,0,0,0-.1.1,23.622,23.622,0,0,1-7.5,4.1c-5.9,1.9-11.2.6-15.8-3.7-5.5-5.2-4.4-13.7-.8-19.9,4.2-7.3,13-13.3,22.9-10.3,7.4,2.2,11,8.9,12.8,14.1C225.086,171.326,221.086,193.426,210.386,208.526Z" fill="#191919"/><circle cx="17.186" cy="46.226" r="1.3" fill="#191919"/><circle cx="13.786" cy="49.926" r="1.4" fill="#191919"/><circle cx="17.786" cy="53.526" r="1" fill="#191919"/><circle cx="29.486" cy="50.626" r="1.4" fill="#191919"/><circle cx="25.386" cy="44.926" r="1.4" fill="#191919"/><circle cx="22.186" cy="49.226" r="1.4" fill="#191919"/><circle cx="24.486" cy="55.526" r="1.3" fill="#191919"/><circle cx="29.286" cy="58.226" r="1.2" fill="#191919"/><circle cx="17.986" cy="59.326" r="1.3" fill="#191919"/><circle cx="35.886" cy="46.626" r="1.3" fill="#191919"/><circle cx="34.286" cy="55.426" r="1.3" fill="#191919"/><circle cx="88.986" cy="58.326" r="10" fill="#fff"/><path d="M80.586,51.826a9.926,9.926,0,0,0-2,5.3,9.895,9.895,0,0,0,14.2-8.2A9.69,9.69,0,0,0,80.586,51.826Z" fill="#191919"/><ellipse cx="7.678" cy="25.414" rx="4" ry="2" transform="translate(-13.115 8.907) rotate(-34.744)" fill="#fff"/></g></g>
      </g>
    </g>
</g>

              </svg>