<?xml version="1.0" encoding="UTF-8"?><svg version="1.1" xmlns="http://www.w3.org/2000/svg" xmlns:xlink="http://www.w3.org/1999/xlink" viewBox="0 0 600 400" width="600" height="400" x="0px" y="0px">
    
    
    <!-- ITEM 0 -->
    <g>
        <defs>
            <clipPath id="clip-path-id-viewbox-item-0">
                <rect x="0.0" y="0.0" width="163.919" height="192.54"/>
            </clipPath>
        </defs>
        <g transform="translate(35.0 11.0) rotate(0.0 63.5 74.5) scale(0.7747729061304668 0.7738651708735848)">
            <g clip-path="url(#clip-path-id-viewbox-item-0)" transform="translate(-0.0 -0.0)">
                <title>eggplant_3</title><g id="Layer_2-i0" data-name="Layer 2"><g id="eggplant_3-i0"><ellipse cx="123.004" cy="41.919" rx="5.1" ry="9.2" transform="translate(30.698 133.389) rotate(-63.558)" fill="#fff"/><path d="M125.856,36.34c-5.3-2.6-10.6-2.2-12.2,1s1.3,7.7,6.5,10.3a15.76,15.76,0,0,0,6.6,1.7c2.6,0,4.7-.9,5.6-2.7C133.956,43.44,131.156,38.94,125.856,36.34Zm-10,2.1c.4-.9,1.7-1.4,3.4-1.4a14.373,14.373,0,0,1,8.7,3.6c-2.9-.4-5.2.2-6.1,1.9a3.548,3.548,0,0,0,.2,3.3c-.2-.1-.5-.2-.7-.3C117.056,43.34,115.056,40.04,115.856,38.44Z" fill="#1a1a1a"/><path d="M118.056,19.74s1.5,15.2,1.2,22.2.8,10,4.2,11.2,5,5.2,1.2,7.8a9.3,9.3,0,0,1-7.8,1.2s-5,36-10.5,56-18.8,55.5-39.8,66.5-49.5,8-60.5-12.8-3-44.5,5.8-55.8c8.8-11.2,21.3-25.2,21.3-25.2l34-33,7.5-16.5,7-24,13.2-8.5Z" fill="#fece2f"/><path d="M123.556,53.24c-3.5-1.2-4.5-4.2-4.2-11.2s-1.2-22.2-1.2-22.2l-2.1-1s-6.1-1.9-5.6-1c6.1,10.9,2.1,25.2,3.7,32,1.5,6.9,12.5,6.1,12.5,6.1C127.156,55.24,126.956,54.44,123.556,53.24Z" fill="#fff"/><path d="M113.356,60.94c-.2.5-10,45.6-22.6,72-29.3,61.3-75.5,45.8-89.2,23.8a2.8,2.8,0,0,1-.1.6,44.21,44.21,0,0,0,4.8,14.5c11,20.8,39.5,23.8,60.5,12.8s34.2-46.5,39.8-66.5c5.3-19.4,10.2-54,10.5-55.9C115.256,62.04,115.056,61.74,113.356,60.94Z" fill="#fff"/><path d="M128.456,56.44c-.2-1.1-1.1-3-4.3-3.9-4.5-1.2-3.9-8.3-3.9-8.4h0c1-25.2-4.7-39.8-16.9-43.2-.1,0-11.2-3.1-19.7,8.1-2.9,3.9-4.3,9.9-5.9,16.8-2.8,12.1-6.4,27.1-19.3,39.4-2.5,2.4-5.4,5-8.4,7.7-21.6,19.7-54.3,49.4-49.6,84,2,14.7,10.3,25.9,23.4,31.7a48.343,48.343,0,0,0,19.1,3.9,45.564,45.564,0,0,0,26.1-7.8c32.6-22.7,41.9-76.4,47.4-108.5l.4-2.3c.6-3.3,1-6.3,1.4-9.5l.1-.9a10.284,10.284,0,0,0,1.7.1,9.955,9.955,0,0,0,6.2-2A5.12,5.12,0,0,0,128.456,56.44Zm-3.7,3.4c-1.8,1.5-5.4,2.3-9.9.2a1.208,1.208,0,1,0-1,2.2,18.028,18.028,0,0,0,2.1.8l-.1,1.1c-.4,3.1-.8,6.1-1.4,9.4l-.4,2.3c-5.5,31.7-14.6,84.7-46.4,106.9-11.8,8.2-29,9.7-42.8,3.6-12.3-5.4-20.1-16-21.9-29.8-4.4-33.3,27.6-62.5,48.9-81.8,3-2.8,5.9-5.4,8.4-7.8,13.4-12.8,17.1-28.2,20-40.6,1.6-6.7,2.9-12.5,5.5-15.9,7.4-9.8,16.6-7.3,17-7.2,11,3.1,16.1,16.8,15.2,40.8-.1.7-.7,9.2,5.7,10.9,1.5.4,2.4,1.1,2.6,2A3.954,3.954,0,0,1,124.756,59.84Z" fill="#1a1a1a"/><ellipse cx="100.001" cy="41.958" rx="5.1" ry="9.2" transform="translate(22.858 118.179) rotate(-67.418)" fill="#fff"/><path d="M108.456,40.34a16.259,16.259,0,0,0-6-4.3,14.6,14.6,0,0,0-7.2-1.2c-2.4.3-4.2,1.4-4.9,3.1s-.2,3.7,1.3,5.6a16.259,16.259,0,0,0,6,4.3,16.641,16.641,0,0,0,6,1.3,4.869,4.869,0,0,0,1.2-.1c2.4-.3,4.2-1.4,4.9-3.1C110.456,44.34,109.956,42.34,108.456,40.34Zm-14.9,1.7c-.9-1.2-1.3-2.3-.9-3.2.3-.8,1.4-1.4,2.9-1.6.3,0,.6-.1,1-.1a13.3,13.3,0,0,1,5,1.1,14.026,14.026,0,0,1,3.2,1.8c-2.9-.2-5.2.6-5.9,2.3a3.966,3.966,0,0,0,.4,3.3,1.854,1.854,0,0,0-.7-.2A10.864,10.864,0,0,1,93.556,42.04Z" fill="#1a1a1a"/><ellipse cx="105.956" cy="66.14" rx="4.5" ry="5.1" fill="#1a1a1a"/><path d="M74.256,76.74c-.3-1.3-.6-2.5-.8-3.8-3.4-15.6-.6-23.7-.5-23.8a1.376,1.376,0,0,0-.1-1.1,1.7,1.7,0,0,0-1-.6,1.213,1.213,0,0,0-1.2.7,56.723,56.723,0,0,1-12.2,17.1c-2.5,2.4-5.4,5-8.4,7.7-13.3,12.1-29.8,27.2-40.3,44.9a1.276,1.276,0,0,0,.4,1.7,1.421,1.421,0,0,0,.6.2,1.1,1.1,0,0,0,1-.6c.1-.2,12.5-20.1,23.8-21.9,10.1-1.7,16.7,4.9,22.5,10.7,4.6,4.7,8.7,8.7,13.6,7.5C82.256,112.84,78.056,93.64,74.256,76.74Z" fill="#1a1a1a"/><path d="M38.156,102.24c-6,0-10.8,4.2-10.8,9.5s4.9,9.5,10.8,9.5,10.8-4.2,10.8-9.5S44.156,102.24,38.156,102.24Z" fill="#1a1a1a"/><path d="M157.156,111.64c-.3-.2-.4-.3.1-1.9.4-1.3,1.2-3.7-1.5-4.6-3.2-1-6.2,4.1-7.5,6.9-22-9-35.9-18.4-43.6-24.8-8.7-7.2-12-12.2-12-12.2a1.235,1.235,0,0,0-2.1,1.3c.5.8,13,20,56.6,37.9a4.666,4.666,0,0,0,1.6,4,13.352,13.352,0,0,0,5.2,3.1,13.184,13.184,0,0,0,4.2.7c2.8,0,5-1,5.6-2.9C164.656,116.44,161.756,113.14,157.156,111.64Z" fill="#1a1a1a"/><path d="M159.056,95.84a12.129,12.129,0,0,0-5.1-3c-.3-.2-.4-.3.1-1.9.4-1.3,1.2-3.7-1.5-4.6-3.2-1-6.2,4.1-7.5,6.9a191.174,191.174,0,0,1-29.7-14.9,1.235,1.235,0,1,0-1.3,2.1,213.628,213.628,0,0,0,29.9,15.1,4.666,4.666,0,0,0,1.6,4,13.352,13.352,0,0,0,5.2,3.1,13.184,13.184,0,0,0,4.2.7c2.8,0,5-1,5.6-2.9h0C161.056,98.94,160.556,97.34,159.056,95.84Z" fill="#1a1a1a"/><path d="M110.156,33.44a1.856,1.856,0,0,1-1.7-1c-1.6-2.7-6.3-1.3-6.3-1.3a1.944,1.944,0,0,1-2.5-1.3,1.985,1.985,0,0,1,1.3-2.5c2.8-.9,8.3-1.3,11,3a1.882,1.882,0,0,1-.7,2.7A1.666,1.666,0,0,1,110.156,33.44Z" fill="#1a1a1a"/><path d="M133.056,34.64a2.107,2.107,0,0,1-1.8-1.1c-1.3-2.6-5.2-1.4-5.3-1.4a1.992,1.992,0,0,1-1.2-3.8c2.5-.8,7.9-1.2,10.2,3.4a2,2,0,0,1-.9,2.7A4.4,4.4,0,0,1,133.056,34.64Z" fill="#1a1a1a"/><path d="M126.356,19.74a24.817,24.817,0,0,1-7.9-6.8l-.3-.4c-2.9-4.2-7.021-10.792-14-12-1.245-.216-1.624-.251-2.6-.4-1.3-.2-13-1.4-19.6,9.3-1.5,2.5-5.6,7.5-5.6,7.6a1.277,1.277,0,0,0-.2,1.2,1.22,1.22,0,0,0,.9.8c.1,0,9.9,1.6,16.3-2.5,2.9,8.1,5.1,9.5,6.2,9.6h.1c2.3,0,4.8-4.3,6.8-8.6a20.614,20.614,0,0,0,4,3.2,17.953,17.953,0,0,0,15.5,1.3,1.17,1.17,0,0,0,.8-1.1C126.756,20.44,126.756,19.94,126.356,19.74Z" fill="#1a1a1a"/></g></g>
            </g>
        </g>
    </g>
    
    <!-- ITEM 1 -->
    <g>
        <defs>
            <clipPath id="clip-path-id-viewbox-item-1">
                <rect x="0.0" y="0.0" width="141.023" height="200.625"/>
            </clipPath>
        </defs>
        <g transform="translate(254.0 214.0) rotate(0.0 54.0 76.5) scale(0.7658325237727179 0.7626168224299066)">
            <g clip-path="url(#clip-path-id-viewbox-item-1)" transform="translate(-0.0 -0.0)">
                <title>eggplant_2</title><g id="Layer_2-i1" data-name="Layer 2"><g id="eggplant_2-i1"><ellipse cx="36.894" cy="41.184" rx="5.1" ry="9.2" transform="translate(-17.351 51.897) rotate(-59.316)" fill="#fff"/><path d="M40.1,35.725c-.1-.1-.2-.1-.3-.2a2.524,2.524,0,0,1,.1-1.7,1.235,1.235,0,0,0-2.3-.9,4.951,4.951,0,0,0-.3,1.4c-.4-.1-.8-.3-1.2-.4a5.622,5.622,0,0,1,.5-2.8,1.208,1.208,0,0,0-2.2-1,8.977,8.977,0,0,0-.7,3.3H32.3a10.119,10.119,0,0,1,.5-4.2,1.2,1.2,0,0,0-2.3-.7,11.914,11.914,0,0,0-.5,5.5,5.51,5.51,0,0,0-2,1.7c-.9,1.6-.8,3.6.5,5.7a15.307,15.307,0,0,0,5.3,5.1,13.954,13.954,0,0,0,7,2.2h.3c2.3,0,4.1-.8,5-2.3C47.7,43.525,45.2,38.725,40.1,35.725Zm3.7,9.6c-.5.8-1.6,1.2-3.1,1.1a12.4,12.4,0,0,1-5.8-1.9,12.837,12.837,0,0,1-4-3.6,6.465,6.465,0,0,0,2,.4,5.491,5.491,0,0,0,5.3-3.9,2.506,2.506,0,0,1,.7.4C42.9,40.225,44.7,43.725,43.8,45.325Z" fill="#1a1a1a"/><path d="M75.4,30.425l5,20s5.3,30.3,15,45,29.3,37.3,29.3,37.3,18,22.7,14.3,42.7-30.7,27-40.3,23-25.7-6.7-44.3-43c-18.7-36.3-17.7-84-17.3-86.3,0,0-12.7-5.4-9.3-12.2,0,0,2.4-2,4.5-1.5s5.5,1.6,6.1-1.6,4.6-23.9,10.5-30l14.9-2.2Z" fill="#fece2f"/><path d="M28.4,56.625a11.8,11.8,0,0,0,6.8,3.5c4.2.4,8.2-1.5,8.8-8.5s3.8-21.7,9.7-26.1l-6,1.1s-5.4,6.7-6.9,14.8C39.2,49.525,42.4,56.825,28.4,56.625Z" fill="#fff"/><path d="M138.2,178.925l-.3-1.2s-38.3,27.5-67.5-18.8c-28.8-46-28-88.2-28-88.2l-5.3-1.6c-.3,2.3-1.3,50,17.3,86.3,18.7,36.3,34.7,39,44.3,43C107.9,202.225,132.3,196.225,138.2,178.925Z" fill="#fff"/><path d="M37.5,80.725c-.1-.1-12.5-7.8-18.5-25.6,2.2-1.2,6.3-4,5.2-6.6-.9-2.1-2.8-1.3-3.8-.9-1.2.5-1.4.4-1.5.2-1.5-3.6-4.4-5.7-6.5-4.8s-2.6,4.4-1.1,8.1a9.091,9.091,0,0,0,4.2,4.9,2.663,2.663,0,0,0,1.2.3c6.3,18.5,18.9,26.3,19.4,26.6a1.421,1.421,0,0,0,.6.2,1.1,1.1,0,0,0,1-.6A1.253,1.253,0,0,0,37.5,80.725Z" fill="#1a1a1a"/><path d="M65.5,96.225a1.282,1.282,0,0,0-1.7-.5,29.2,29.2,0,0,1-17.1,2c-13-2.2-25.5-12.5-36.2-29.8,1.9-1.7,5-5.1,3.5-7.3-1.3-1.9-3-.7-3.9-.1-1.1.7-1.3.7-1.5.5-2.2-3.2-5.4-4.7-7.3-3.4s-1.7,4.9.5,8.2a8.625,8.625,0,0,0,5.1,3.9,2.856,2.856,0,0,0,1.6-.1c8,12.8,20.8,27.8,37.9,30.6a38.8,38.8,0,0,0,5.7.5c7.7,0,12.6-2.6,12.8-2.8A1.26,1.26,0,0,0,65.5,96.225Z" fill="#1a1a1a"/><ellipse cx="52.341" cy="72.361" rx="2.8" ry="5.2" transform="translate(-27.433 32.213) rotate(-27.406)" fill="#1a1a1a"/><ellipse cx="57.204" cy="51.268" rx="5.1" ry="9.2" transform="translate(-16.077 74.301) rotate(-59.316)" fill="#fff"/><path d="M71.4,51.925a1.165,1.165,0,0,0-1.7-.3,4.975,4.975,0,0,1-3.4.8,6.117,6.117,0,0,0-.5-1.2,9.245,9.245,0,0,0,5.1-2.5,1.2,1.2,0,1,0-1.6-1.8,6.979,6.979,0,0,1-5.2,1.9l-.2-.2a7.168,7.168,0,0,0,3.1-2.6,1.221,1.221,0,0,0-2-1.4,4.8,4.8,0,0,1-3.3,2.1c-.4-.3-.8-.5-1.2-.8a13.954,13.954,0,0,0-7-2.2,5.733,5.733,0,0,0-5.3,2.3c-.9,1.6-.8,3.6.5,5.7a15.307,15.307,0,0,0,5.3,5.1,13.954,13.954,0,0,0,7,2.2h.3c2.3,0,4.1-.8,5-2.3a6.356,6.356,0,0,0,.6-1.8h.4a7.822,7.822,0,0,0,4-1.2A1.506,1.506,0,0,0,71.4,51.925Zm-7.3,3.5c-.5.8-1.6,1.2-3.1,1.1a12.4,12.4,0,0,1-5.8-1.9,12.837,12.837,0,0,1-4-3.6,6.465,6.465,0,0,0,2,.4,5.491,5.491,0,0,0,5.3-3.9,2.506,2.506,0,0,1,.7.4C63.2,50.325,65,53.825,64.1,55.425Z" fill="#1a1a1a"/><path d="M110.9,114.225a3.807,3.807,0,0,1-.5-.6c-15.2-16.4-22.1-31.3-28.2-60.9a154.622,154.622,0,0,0-5.3-20.1,21.85,21.85,0,0,0,4.3-.5,1.285,1.285,0,0,0,1-1,1.3,1.3,0,0,0-.5-1.3,44.831,44.831,0,0,1-9-8.5,13.909,13.909,0,0,0,11-6.2,1.209,1.209,0,0,0-.1-1.4,1.419,1.419,0,0,0-1.4-.4c-6.9,2.7-13.1-1.5-15.1-3.2a25.021,25.021,0,0,1-.4-8.7,1.147,1.147,0,0,0-.5-1.2,1.051,1.051,0,0,0-1.3,0,65.832,65.832,0,0,0-21.7,23.7,1.183,1.183,0,0,0-.1,1,1.208,1.208,0,0,0,.7.7c.1,0,.9.3,2.3.7-4.1,6.2-7.1,15.4-8.8,27.3h0c0,.2-.4,1.5-2.9,1.1a2.92,2.92,0,0,1-.9-.2c-2.4-.4-6.9-1.3-8,3.7-.4,2.6,1.9,8.1,10.5,11.5a205.16,205.16,0,0,0,9.3,64.9c10.3,33.1,27.8,56.2,48.1,63.6a37.729,37.729,0,0,0,13,2.4,36.216,36.216,0,0,0,19.3-5.8c8.9-5.7,14-13.2,15.1-22.1C143.2,153.325,125.9,130.225,110.9,114.225Zm27.4,58.4c-1,8.2-5.7,15-14,20.3-9.2,5.9-19.6,7-30.1,3.2-19.5-7.1-36.5-29.7-46.6-62.1a203.908,203.908,0,0,1-9.2-63.3,24.912,24.912,0,0,0,3.2.8h.3a1.188,1.188,0,0,0,1.2-1,1.35,1.35,0,0,0-.9-1.5c-11.7-2.5-14.5-8.5-14.2-10.3.5-2.3,2.1-2.3,5.2-1.7.3.1.6.1.9.2a5.224,5.224,0,0,0,4.2-.8,4.418,4.418,0,0,0,1.5-2.4h0c1.7-12,4.8-21.3,9-27.1a24.678,24.678,0,0,0,11.6-.7c1.5,1.7,6,5.7,13.9,6.2a144.3,144.3,0,0,1,5.6,20.6c1.6,8,3.3,14.9,5.2,21.1v.3h0c.1.4,2.7,9.1-6.4,20-7.1,8.5-10.6,16.4-9.7,21.8a7.386,7.386,0,0,0,3.4,5.1,5.547,5.547,0,0,0,2.8.7c2.7,0,5.8-1.7,9.2-3.5,3.9-2.1,8.4-4.5,13-4.8,7.5-.4,10.3.8,11.2,1.4l.6.6C123.7,131.425,140.6,153.925,138.3,172.625Z" fill="#1a1a1a"/></g></g>
            </g>
        </g>
    </g>
    
</svg>