<?xml version="1.0" encoding="UTF-8"?><svg xmlns="http://www.w3.org/2000/svg" viewBox="0 0 163.919 192.54" x="0px" y="0px" width="164px" height="193px" version="1.1" xmlns:xlink="http://www.w3.org/1999/xlink"><title>eggplant_3</title><g id="Layer_2" data-name="Layer 2"><g id="eggplant_3"><ellipse cx="123.004" cy="41.919" rx="5.1" ry="9.2" transform="translate(30.698 133.389) rotate(-63.558)" fill="#fff"/><path d="M125.856,36.34c-5.3-2.6-10.6-2.2-12.2,1s1.3,7.7,6.5,10.3a15.76,15.76,0,0,0,6.6,1.7c2.6,0,4.7-.9,5.6-2.7C133.956,43.44,131.156,38.94,125.856,36.34Zm-10,2.1c.4-.9,1.7-1.4,3.4-1.4a14.373,14.373,0,0,1,8.7,3.6c-2.9-.4-5.2.2-6.1,1.9a3.548,3.548,0,0,0,.2,3.3c-.2-.1-.5-.2-.7-.3C117.056,43.34,115.056,40.04,115.856,38.44Z" fill="#1a1a1a"/><path d="M118.056,19.74s1.5,15.2,1.2,22.2.8,10,4.2,11.2,5,5.2,1.2,7.8a9.3,9.3,0,0,1-7.8,1.2s-5,36-10.5,56-18.8,55.5-39.8,66.5-49.5,8-60.5-12.8-3-44.5,5.8-55.8c8.8-11.2,21.3-25.2,21.3-25.2l34-33,7.5-16.5,7-24,13.2-8.5Z" fill="#fece2f"/><path d="M123.556,53.24c-3.5-1.2-4.5-4.2-4.2-11.2s-1.2-22.2-1.2-22.2l-2.1-1s-6.1-1.9-5.6-1c6.1,10.9,2.1,25.2,3.7,32,1.5,6.9,12.5,6.1,12.5,6.1C127.156,55.24,126.956,54.44,123.556,53.24Z" fill="#fff"/><path d="M113.356,60.94c-.2.5-10,45.6-22.6,72-29.3,61.3-75.5,45.8-89.2,23.8a2.8,2.8,0,0,1-.1.6,44.21,44.21,0,0,0,4.8,14.5c11,20.8,39.5,23.8,60.5,12.8s34.2-46.5,39.8-66.5c5.3-19.4,10.2-54,10.5-55.9C115.256,62.04,115.056,61.74,113.356,60.94Z" fill="#fff"/><path d="M128.456,56.44c-.2-1.1-1.1-3-4.3-3.9-4.5-1.2-3.9-8.3-3.9-8.4h0c1-25.2-4.7-39.8-16.9-43.2-.1,0-11.2-3.1-19.7,8.1-2.9,3.9-4.3,9.9-5.9,16.8-2.8,12.1-6.4,27.1-19.3,39.4-2.5,2.4-5.4,5-8.4,7.7-21.6,19.7-54.3,49.4-49.6,84,2,14.7,10.3,25.9,23.4,31.7a48.343,48.343,0,0,0,19.1,3.9,45.564,45.564,0,0,0,26.1-7.8c32.6-22.7,41.9-76.4,47.4-108.5l.4-2.3c.6-3.3,1-6.3,1.4-9.5l.1-.9a10.284,10.284,0,0,0,1.7.1,9.955,9.955,0,0,0,6.2-2A5.12,5.12,0,0,0,128.456,56.44Zm-3.7,3.4c-1.8,1.5-5.4,2.3-9.9.2a1.208,1.208,0,1,0-1,2.2,18.028,18.028,0,0,0,2.1.8l-.1,1.1c-.4,3.1-.8,6.1-1.4,9.4l-.4,2.3c-5.5,31.7-14.6,84.7-46.4,106.9-11.8,8.2-29,9.7-42.8,3.6-12.3-5.4-20.1-16-21.9-29.8-4.4-33.3,27.6-62.5,48.9-81.8,3-2.8,5.9-5.4,8.4-7.8,13.4-12.8,17.1-28.2,20-40.6,1.6-6.7,2.9-12.5,5.5-15.9,7.4-9.8,16.6-7.3,17-7.2,11,3.1,16.1,16.8,15.2,40.8-.1.7-.7,9.2,5.7,10.9,1.5.4,2.4,1.1,2.6,2A3.954,3.954,0,0,1,124.756,59.84Z" fill="#1a1a1a"/><ellipse cx="100.001" cy="41.958" rx="5.1" ry="9.2" transform="translate(22.858 118.179) rotate(-67.418)" fill="#fff"/><path d="M108.456,40.34a16.259,16.259,0,0,0-6-4.3,14.6,14.6,0,0,0-7.2-1.2c-2.4.3-4.2,1.4-4.9,3.1s-.2,3.7,1.3,5.6a16.259,16.259,0,0,0,6,4.3,16.641,16.641,0,0,0,6,1.3,4.869,4.869,0,0,0,1.2-.1c2.4-.3,4.2-1.4,4.9-3.1C110.456,44.34,109.956,42.34,108.456,40.34Zm-14.9,1.7c-.9-1.2-1.3-2.3-.9-3.2.3-.8,1.4-1.4,2.9-1.6.3,0,.6-.1,1-.1a13.3,13.3,0,0,1,5,1.1,14.026,14.026,0,0,1,3.2,1.8c-2.9-.2-5.2.6-5.9,2.3a3.966,3.966,0,0,0,.4,3.3,1.854,1.854,0,0,0-.7-.2A10.864,10.864,0,0,1,93.556,42.04Z" fill="#1a1a1a"/><ellipse cx="105.956" cy="66.14" rx="4.5" ry="5.1" fill="#1a1a1a"/><path d="M74.256,76.74c-.3-1.3-.6-2.5-.8-3.8-3.4-15.6-.6-23.7-.5-23.8a1.376,1.376,0,0,0-.1-1.1,1.7,1.7,0,0,0-1-.6,1.213,1.213,0,0,0-1.2.7,56.723,56.723,0,0,1-12.2,17.1c-2.5,2.4-5.4,5-8.4,7.7-13.3,12.1-29.8,27.2-40.3,44.9a1.276,1.276,0,0,0,.4,1.7,1.421,1.421,0,0,0,.6.2,1.1,1.1,0,0,0,1-.6c.1-.2,12.5-20.1,23.8-21.9,10.1-1.7,16.7,4.9,22.5,10.7,4.6,4.7,8.7,8.7,13.6,7.5C82.256,112.84,78.056,93.64,74.256,76.74Z" fill="#1a1a1a"/><path d="M38.156,102.24c-6,0-10.8,4.2-10.8,9.5s4.9,9.5,10.8,9.5,10.8-4.2,10.8-9.5S44.156,102.24,38.156,102.24Z" fill="#1a1a1a"/><path d="M157.156,111.64c-.3-.2-.4-.3.1-1.9.4-1.3,1.2-3.7-1.5-4.6-3.2-1-6.2,4.1-7.5,6.9-22-9-35.9-18.4-43.6-24.8-8.7-7.2-12-12.2-12-12.2a1.235,1.235,0,0,0-2.1,1.3c.5.8,13,20,56.6,37.9a4.666,4.666,0,0,0,1.6,4,13.352,13.352,0,0,0,5.2,3.1,13.184,13.184,0,0,0,4.2.7c2.8,0,5-1,5.6-2.9C164.656,116.44,161.756,113.14,157.156,111.64Z" fill="#1a1a1a"/><path d="M159.056,95.84a12.129,12.129,0,0,0-5.1-3c-.3-.2-.4-.3.1-1.9.4-1.3,1.2-3.7-1.5-4.6-3.2-1-6.2,4.1-7.5,6.9a191.174,191.174,0,0,1-29.7-14.9,1.235,1.235,0,1,0-1.3,2.1,213.628,213.628,0,0,0,29.9,15.1,4.666,4.666,0,0,0,1.6,4,13.352,13.352,0,0,0,5.2,3.1,13.184,13.184,0,0,0,4.2.7c2.8,0,5-1,5.6-2.9h0C161.056,98.94,160.556,97.34,159.056,95.84Z" fill="#1a1a1a"/><path d="M110.156,33.44a1.856,1.856,0,0,1-1.7-1c-1.6-2.7-6.3-1.3-6.3-1.3a1.944,1.944,0,0,1-2.5-1.3,1.985,1.985,0,0,1,1.3-2.5c2.8-.9,8.3-1.3,11,3a1.882,1.882,0,0,1-.7,2.7A1.666,1.666,0,0,1,110.156,33.44Z" fill="#1a1a1a"/><path d="M133.056,34.64a2.107,2.107,0,0,1-1.8-1.1c-1.3-2.6-5.2-1.4-5.3-1.4a1.992,1.992,0,0,1-1.2-3.8c2.5-.8,7.9-1.2,10.2,3.4a2,2,0,0,1-.9,2.7A4.4,4.4,0,0,1,133.056,34.64Z" fill="#1a1a1a"/><path d="M126.356,19.74a24.817,24.817,0,0,1-7.9-6.8l-.3-.4c-2.9-4.2-7.021-10.792-14-12-1.245-.216-1.624-.251-2.6-.4-1.3-.2-13-1.4-19.6,9.3-1.5,2.5-5.6,7.5-5.6,7.6a1.277,1.277,0,0,0-.2,1.2,1.22,1.22,0,0,0,.9.8c.1,0,9.9,1.6,16.3-2.5,2.9,8.1,5.1,9.5,6.2,9.6h.1c2.3,0,4.8-4.3,6.8-8.6a20.614,20.614,0,0,0,4,3.2,17.953,17.953,0,0,0,15.5,1.3,1.17,1.17,0,0,0,.8-1.1C126.756,20.44,126.756,19.94,126.356,19.74Z" fill="#1a1a1a"/></g></g></svg>