<?xml version="1.0" encoding="UTF-8"?><svg version="1.1" xmlns="http://www.w3.org/2000/svg" xmlns:xlink="http://www.w3.org/1999/xlink" viewBox="0 0 100 100" width="100" height="100" x="0px" y="0px">
    
    
    <!-- ITEM 0 -->
    <g>
        <defs>
            <clipPath id="clip-path-id-viewbox-item-0">
                <rect x="0.0" y="0.0" width="175.468" height="133.269"/>
            </clipPath>
        </defs>
        <g transform="translate(64.0 53.0) rotate(0.0 17.5 13.0) scale(0.19946656940296809 0.19509413291913347)">
            <g clip-path="url(#clip-path-id-viewbox-item-0)" transform="translate(-0.0 -0.0)">
                <title>flower_pot</title><g id="Layer_2-i0" data-name="Layer 2"><g id="flower_pot-i0"><path d="M2.281,18.077s5.874-4.448,15.967-6.558S64.154,5.531,64.154,5.531l39.233-.57,14.713.456,35.641,3.308,16.994,6.729,2,2.566s-.286,4.847-1.711,5.018-18.705,4.676-20.815,4.847-21.954,4.848-29.368,4.563-33.189,0-39.062-.571S43.111,29.71,43.111,29.71L25.148,26.745,7.927,22.468Z" fill="#fece2f"/><path d="M.969,15.112V51.323s2,6.558,33.931,9.694,86.679,2,86.679,2,37.066-3.992,47.331-8.268c0,0,5.474-2.567,5.816-4.448s-.114-34.843-.114-34.843-1.254,3.935-15.853,7.356-38.777,4.847-38.777,4.847-30.908,1.825-61.7.114-38.492-4.105-38.492-4.105S3.992,21.67.969,15.112Z" fill="#fece2f"/><path d="M.969,15.112s-1.6-5.7,20.416-9.695S79.836.741,79.836.741,104.243.456,121.35,1.768s39.633,5.246,39.633,5.246,10.835,3.137,13.116,5.817-2.851,5.588-2.851,5.588a169.267,169.267,0,0,0-45.735-8.44C99.738,8.839,77.9,8.269,55.372,9.694s-43.91,5.589-50.639,9.124C4.676,18.818.969,17.393.969,15.112Z" fill="#fff"/><path d="M159.5,63.584l-15.4,55.885a31.045,31.045,0,0,1-7.7,5.018c-4.163,1.825-9.694,4.448-25.49,6.387-15.8,1.882-28.342,2.11-42.028.741s-26.916-5.874-32.676-7.812c0,0-4.847-2.738-5.7-5.019S14.427,61.93,14.427,61.93l-2.452-7.813L92.5,55.828l70.141-3.421Z" fill="#fece2f"/><path d="M144.1,119.469l11.633-42.142a21.8,21.8,0,0,0-14.257,8.782c-3.82,5.3-5.018,11.918-6.786,18.191s-4.448,12.774-9.979,16.252c-4.163,2.623-9.466,3.022-14.256,1.939a40.439,40.439,0,0,1-13.344-6.1c-3.593-2.338-7.015-4.9-10.892-6.729s-8.269-2.794-12.432-1.768a7.472,7.472,0,0,0-4.5,2.852c-2.509,3.706.4,9.181-1.654,13.23-1.14,2.281-3.706,3.535-6.215,3.991a48.848,48.848,0,0,1-7.642.286,1.6,1.6,0,0,0-1.254.4A117.713,117.713,0,0,0,69,131.615a186.915,186.915,0,0,0,42.028-.741c15.8-1.882,21.27-4.562,25.49-6.387A29.628,29.628,0,0,0,144.1,119.469Z" fill="#fff"/><path d="M148.1,24.578s9.524,15.967-2.68,22.411c-12.146,6.444-38.777-3.421-27.372,15.568,3.536.4,22.411-1.54,35.926-3.821s19.389-5.132,20.7-9.01L174.84,16.2C174.9,16.252,169.024,22.867,148.1,24.578Z" fill="#fff"/><path d="M32.391,23.1a4.927,4.927,0,0,1-.913-.969,3.8,3.8,0,0,1-.342-.684,2.619,2.619,0,0,1-.057-.97,1.345,1.345,0,0,1,.627-.912,1.5,1.5,0,0,1,.856-.342,2.8,2.8,0,0,1,.627-.057,1.939,1.939,0,0,0,.57-.057,13.845,13.845,0,0,1,4.562.684c.742.228,1.483.57,2.053.741a2.238,2.238,0,0,0,.8.171,1.76,1.76,0,0,0,.571-.057c.171-.057.285-.171.285-.228.057,0,.057-.228.171-.627a2.728,2.728,0,0,1,.285-.8,2.351,2.351,0,0,1,.57-.741,3.972,3.972,0,0,1,1.426-.8,4.355,4.355,0,0,1,1.483-.114,3.923,3.923,0,0,1,.741.114c.228.057.456.171.684.228a11.436,11.436,0,0,1,2.053,1.2,7.237,7.237,0,0,0,.856.571,2.78,2.78,0,0,0,.741.342,2.356,2.356,0,0,0,1.369.114.3.3,0,0,0,.228-.114l.228-.228a6.646,6.646,0,0,1,.912-.913,3.818,3.818,0,0,1,2.737-.684,4.927,4.927,0,0,1,1.312.342c.4.171.741.4,1.083.57a11.586,11.586,0,0,1,1.768,1.483.742.742,0,0,1,0,1.084.779.779,0,0,1-1.026.057A12.308,12.308,0,0,0,58,20.358a3.715,3.715,0,0,0-1.654-.513,1.658,1.658,0,0,0-1.311.4c-.114.114-.285.342-.571.684a4.316,4.316,0,0,1-1.254.97,4.082,4.082,0,0,1-2.851,0,7.537,7.537,0,0,1-1.2-.513c-.342-.229-.684-.4-.969-.628a8.8,8.8,0,0,0-1.654-.969.81.81,0,0,0-.342-.114c-.114,0-.228-.057-.342-.057a2.779,2.779,0,0,0-.685.057.859.859,0,0,0-.456.228c-.057.057-.057.114-.114.114,0,.057-.057.114-.057.228a3.423,3.423,0,0,1-.513,1.369A2.7,2.7,0,0,1,42.6,22.639a3.572,3.572,0,0,1-1.54.171,4.929,4.929,0,0,1-1.311-.342c-.8-.285-1.312-.627-1.939-.855a13.037,13.037,0,0,0-3.935-.8H32.79v-.057c-.057-.057,0,.228.114.456a2.666,2.666,0,0,0,.513.685h0a.722.722,0,0,1,0,1.026A.75.75,0,0,1,32.391,23.1Z" fill="#1a1a1a"/><path d="M64.724,18.533a2.651,2.651,0,0,1-1.083-2.224,2.6,2.6,0,0,1,.342-1.254,2.794,2.794,0,0,1,1.026-.97,3.815,3.815,0,0,1,2.338-.285,6.64,6.64,0,0,1,1.882.627c1.141.514,2.11,1.141,3.022,1.54a4.559,4.559,0,0,0,2.681.456h.057a.808.808,0,0,1,.912.628.726.726,0,0,1-.4.8,3.743,3.743,0,0,1-2.053.456,7.705,7.705,0,0,1-2-.342A23.9,23.9,0,0,1,68.26,16.48a3.847,3.847,0,0,0-2.4-.513.763.763,0,0,0-.286.171.65.65,0,0,0-.171.342,1.05,1.05,0,0,0,.114.913l.114.114a.711.711,0,0,1-.171.969A.537.537,0,0,1,64.724,18.533Z" fill="#1a1a1a"/><path d="M114.393,19.959a1.808,1.808,0,0,1-.171-1.426,2.216,2.216,0,0,1,.742-1.14,3.405,3.405,0,0,1,2.224-.685,5.653,5.653,0,0,1,2,.4,8.127,8.127,0,0,1,1.711.912c1.027.684,1.882,1.369,2.737,2a6.1,6.1,0,0,0,2.624,1.2h.057a.778.778,0,0,1-.057,1.539,6.387,6.387,0,0,1-3.764-.912c-1.084-.627-1.939-1.312-2.851-1.882a6.392,6.392,0,0,0-2.566-1.141,2.739,2.739,0,0,0-1.027.057c-.228.058-.342.343-.4.457l-.057.4a.686.686,0,0,1-.741.57A.885.885,0,0,1,114.393,19.959Z" fill="#1a1a1a"/><path d="M126.825,18.134a2.562,2.562,0,0,1,1.2-1.254,3.233,3.233,0,0,1,1.6-.343,5.5,5.5,0,0,1,2.794,1.027c1.483,1.026,2.567,2.053,3.707,2.11a2.637,2.637,0,0,0,1.711-.4c.285-.171.627-.4,1.083-.628a4.6,4.6,0,0,1,1.483-.513,5.062,5.062,0,0,1,5.246,2.167.813.813,0,0,1-.228,1.084.85.85,0,0,1-.969-.114l-.057-.058a3.6,3.6,0,0,0-3.536-.969,3.369,3.369,0,0,0-.8.342q-.428.257-1.027.685a4.96,4.96,0,0,1-5.816-.4c-.742-.57-1.369-1.14-1.939-1.6a4.184,4.184,0,0,0-1.711-.913,1.4,1.4,0,0,0-1.368.4l-.057.057a.776.776,0,0,1-1.027.114A.6.6,0,0,1,126.825,18.134Z" fill="#1a1a1a"/><path d="M74.7,22.7a12.649,12.649,0,0,0,4.847-.228,9.381,9.381,0,0,0,2.224-.8,3.533,3.533,0,0,0,.912-.571,4.556,4.556,0,0,0,.741-.741l.8-1.026a4.885,4.885,0,0,1,1.083-1.084,6.845,6.845,0,0,1,2.8-1.254,12.436,12.436,0,0,1,5.645.342c3.479.969,6.558,2.338,9.58,1.2a4.84,4.84,0,0,1,1.654-.228,6.551,6.551,0,0,1,1.6.4,15.718,15.718,0,0,1,2.395,1.426c1.426.97,2.908,1.939,4.334,2.908a.75.75,0,0,1,.171,1.084.8.8,0,0,1-1.027.228c-1.539-.855-3.022-1.768-4.5-2.623a21.072,21.072,0,0,0-2.11-1.2,3.049,3.049,0,0,0-.912-.228,3.133,3.133,0,0,0-.912.171c-.343.114-.856.285-1.312.4a13.535,13.535,0,0,1-1.483.229,11.809,11.809,0,0,1-2.851-.229c-1.825-.342-3.478-.969-5.075-1.368a10.994,10.994,0,0,0-4.676-.342,4.515,4.515,0,0,0-1.939.8,4.224,4.224,0,0,0-.741.684l-.8,1.027A4.9,4.9,0,0,1,84,22.7a9.873,9.873,0,0,1-1.312.742,11.965,11.965,0,0,1-2.68.8,12.951,12.951,0,0,1-5.532-.171A.7.7,0,0,1,74.7,22.7Z" fill="#1a1a1a"/><path d="M149.35,4.106C132.87,1.426,110.972,0,87.705,0S42.541,1.483,26.061,4.106C4.505,7.584,0,11.8,0,14.713v35.07c0,3.308,5.417,5.817,12.375,7.756l17.392,60.846c1.54,5.075,11.12,8.44,18.819,10.379,9.751,2.452,22.582,4.049,35.185,4.448l5.531.057c24.863-.57,52.749-5.988,55.429-14.827l17.279-60.5c10.835-2.851,13.458-5.817,13.458-8.041V14.827C175.411,9.409,161.211,5.988,149.35,4.106Zm-6.045,113.88c-2.4,7.812-30,13.287-54.117,13.857l-5.474-.057c-24.065-.741-50.3-6.1-52.692-13.8L15.8,64.781C23.951,67.8,89.245,90.557,157.79,67.29Zm30.737-68.2c0,2.338-4.5,4.733-12.717,6.843a.209.209,0,0,0-.171.057c-14.541,3.707-40.6,6.5-73.506,6.5-51.665,0-86.336-6.9-86.336-13.344V17.564a13.644,13.644,0,0,0,2.509,1.825.209.209,0,0,0,.171.057C9.067,22.183,18.02,24.122,26,25.433c16.48,2.681,38.378,4.106,61.644,4.106s45.165-1.482,61.645-4.106c11.633-1.881,18.305-3.991,21.955-5.987.057,0,.114-.057.171-.057a10.226,10.226,0,0,0,2.509-1.825V49.783ZM5.646,18.761c11.861-5.588,45.05-9.409,82-9.409s70.142,3.821,82,9.409c-10.835,5.019-41.115,9.353-82,9.353S16.48,23.723,5.646,18.761Zm165.488-.855c-11.462-5.988-44.879-9.979-83.486-9.979S15.625,11.918,4.163,17.906c-1.882-1.083-2.851-2.167-2.851-3.193,0-6.444,34.728-13.344,86.336-13.344s86.337,6.9,86.337,13.344C174.042,15.739,173.016,16.823,171.134,17.906Z" fill="#1a1a1a"/><ellipse cx="137.774" cy="38.492" rx="7.128" ry="5.303" fill="#fff"/></g></g>
            </g>
        </g>
    </g>
    
    <!-- ITEM 1 -->
    <g>
        <defs>
            <clipPath id="clip-path-id-viewbox-item-1">
                <rect x="0.0" y="0.0" width="496.204" height="515.9"/>
            </clipPath>
        </defs>
        <g transform="translate(0.0 15.0) rotate(0.0 31.5 33.0) scale(0.1269639100047561 0.1279317697228145)">
            <g clip-path="url(#clip-path-id-viewbox-item-1)" transform="translate(-0.0 -0.0)">
                <title>woman_in_a_suit_sitting</title><g id="Layer_2-i1" data-name="Layer 2"><g id="woman_in_a_suit_sitting-i1"><path d="M242.771,315.081c17.589-.918,70.05,5.965,70.05,5.965s68.52,14.224,91.309,26.765,29.06,40.531,21.107,64.85-45.731,36.095-77.544,32.578-49.555-21.566-49.555-21.566l-83.05-51.7-36.86-44.2C178.228,327.622,226.406,316,242.771,315.081Z" fill="#fece2f"/><path d="M404.13,347.964c-12.848-7.035-40.072-14.682-61.485-20.036a4.933,4.933,0,0,0-1.07,3.059c-.459,9.177,11.93,11.93,18.659,13.154,6.73,1.376,13.46,2.753,20.189,4.435a85.269,85.269,0,0,1,13.46,4.13c18.506,7.647,32.118,26.46,33.5,46.5a4.057,4.057,0,0,0,.918-.765C429.978,378.248,422.331,358.059,404.13,347.964Z" fill="#fff"/><path d="M173.18,356.988s-5.812,26.154-21.565,30.9-69.132-24.166-69.132-24.166-15.907,23.86-9.024,50.472C80.342,440.65,101.3,440.5,101.3,440.5S91.507,464.816,91.2,490.052l72.955,8.565s96.663,15.3,125.264,15.754c28.448.458,55.825-4.895,60.108-46.037s-37.472-74.18-65.614-91.157c-27.99-16.824-32.578-15.753-32.578-15.753s-25.083,5.506-40.684,0l-2.141,5.353C208.664,367.083,182.357,359.894,173.18,356.988Z" fill="#fece2f"/><path d="M75.6,359.282s22.942,15.142,40.378,22.331c17.283,7.188,29.978,9.176,41.3,3.823,11.318-5.2,15.753-28.6,15.753-28.6l17.9,4.436s7.8-29.825,17.436-33.8L184.8,313.7s10.4-39.154,12.848-68.214c2.294-29.06,3.823-79.226-7.036-104.921,0,0-51.543-5.048-95.744,32.271-44.2,37.472-50.167,63.014-52.155,76.78s-.306,48.637,44.507,74.332Z" fill="#fece2f"/><path d="M237.265,158.616s26.154,13.307,45.578,33.954c19.424,20.5,40.684,66.226,61.179,60.414,9.483-2.753,19.271-9.023,45.731-27.53,0,0,13.765,26.46,28.754,33.342,0,0-31.66,44.355-57.049,57.508-25.236,13.154-66.838,2.142-66.838,2.142s-39.919-16.977-48.484-29.825c0,0-2.753-63.932-4.589-82.438C239.712,187.37,237.265,158.616,237.265,158.616Z" fill="#fece2f"/><path d="M390.824,225.3l22.636-16.212s13.765,25.695,19.271,29.824l-14.224,19.578C418.507,258.644,396.941,246.255,390.824,225.3Z" fill="#fff"/><path d="M413.46,209.089l20.5-16.977,12.541-8.107,13.46-22.177a6.323,6.323,0,0,1,4.894,3.824l6.882-7.189s3.518,1.224,1.071,6.577l11.012-4.435s2.294,5.2,0,7.341l10.248-2.294s1.376,4.435-8.412,9.177c-9.636,4.741-23.86,12.388-18.966,24.318s25.237,6.73,25.237,14.683l-13.46,1.988-27.224,4.589-18.507,18.506C432.731,239.066,415.448,219.03,413.46,209.089Z" fill="#fece2f"/><path d="M208.511,327.622l13.765,5.812s-11.165,18.66-12.694,32.119l-18.66-3.976C191.075,361.577,197.958,336.952,208.511,327.622Z" fill="#fff"/><path d="M222.276,333.434s17.13,0,28.907,6.577,21.566,21.107,23.554,31.966l-23.248-10.4a108.142,108.142,0,0,1-40.684,0S216.923,341.541,222.276,333.434Z" fill="#fece2f"/><path d="M242.771,313.551s3.977-46.5,1.071-79.685-4.9-59.343-4.9-59.343l-10.094,5.659L220.9,158.31l-9.177,21.107L197.04,168.252s4.588,51.237.459,79.379-13.612,64.7-12.542,66.226,13.154,8.565,13.154,8.565Z" fill="#fff"/><polygon points="220.9 158.157 236.347 151.122 238.947 174.523 229.006 180.182 220.9 158.157" fill="#fff"/><polygon points="220.9 158.157 211.876 179.417 197.193 168.252 190.769 140.874 197.958 131.239 220.9 158.157" fill="#fff"/><path d="M236.347,151.122l5.2-15.6s17.131,5.659,25.084-11.624c0,0,9.635.459,10.094-5.2.306-5.659-3.365-6.577-3.365-6.577s4.13-14.529,3.365-27.224c-.612-12.7-34.26-22.024-34.566-21.871-.459.3-11.165,18.047-11.165,18.047l-21.871-1.223s-12.389,12.694,4.282,21.412l-15.447,29.825L220.9,158.157Z" fill="#fece2f"/><polygon points="101.295 440.497 93.189 470.781 61.988 465.275 55.717 448.145 75.6 439.732 90.436 436.674 101.295 440.497" fill="#fece2f"/><path d="M93.5,341.541c-.459,3.517-.765,7.035,0,10.247a13.425,13.425,0,0,0,.765,2.294,13.959,13.959,0,0,0,1.223,1.989,9.7,9.7,0,0,0,3.671,2.753,15.391,15.391,0,0,0,9.483.458,70.53,70.53,0,0,0,9.941-3.517,32.521,32.521,0,0,1,11.012-2.906,9.257,9.257,0,0,1,2.906,0,10.59,10.59,0,0,1,3.059.459,13.918,13.918,0,0,1,5.659,2.753,18.655,18.655,0,0,1,3.977,4.588,15.279,15.279,0,0,1,2.141,5.506,23.75,23.75,0,0,1,.612,5.659,35.286,35.286,0,0,1-.459,5.659,1.52,1.52,0,0,1-1.529,1.071,1.34,1.34,0,0,1-1.071-1.377h0v-5.2a25.18,25.18,0,0,0-.918-4.894,16.42,16.42,0,0,0-1.988-4.436,13.514,13.514,0,0,0-3.212-3.365,10.1,10.1,0,0,0-4.129-1.835,11.81,11.81,0,0,0-2.3-.306H129.9a30.346,30.346,0,0,0-4.894.918c-1.529.458-3.212,1.07-4.894,1.682-3.365,1.224-6.73,2.753-10.554,3.518a18.345,18.345,0,0,1-5.812.306,15.611,15.611,0,0,1-5.812-1.53,13.315,13.315,0,0,1-4.894-3.823,24.659,24.659,0,0,1-1.529-2.753,20.4,20.4,0,0,1-.765-2.906,24.644,24.644,0,0,1-.153-5.812c.153-1.836.459-3.671.765-5.506a1.19,1.19,0,0,1,1.376-.918,1.053,1.053,0,0,1,.765,1.224Z" fill="#fff"/><path d="M284.067,377.33c-1.224-.765-2.447-1.529-3.671-2.141-8.718-4.741-13.918-6.118-13.918-6.118s-1.071,12.695,19.424,25.695,51.237,31.354,53.837,59.038c3.824,41.6-33.8,60.108-33.8,60.108h0c21.871-2.448,40.225-12.389,43.743-45.426C353.963,427.344,312.209,394.307,284.067,377.33Z" fill="#fff"/><path d="M342.951,260.938c1.989-.612,4.13-1.377,6.271-1.836a25,25,0,0,1,3.365-.306,8.716,8.716,0,0,1,3.365.612,15.337,15.337,0,0,1,3.212,1.53,8.579,8.579,0,0,1,2.447,2.753,7.68,7.68,0,0,1,.917,3.67,21.076,21.076,0,0,1-.305,3.365,24.808,24.808,0,0,0-.459,3.059,5.958,5.958,0,0,0,.306,2.447,4.845,4.845,0,0,0,3.212,2.753,7.445,7.445,0,0,0,4.435-.305,17.846,17.846,0,0,0,4.283-2.6,12.859,12.859,0,0,0,4.129-9.176c0-1.836-.306-3.824-.459-6.118a16.327,16.327,0,0,1,.918-7.5,9.161,9.161,0,0,1,2.447-3.517,12.282,12.282,0,0,1,3.671-1.989,18.669,18.669,0,0,1,7.035-.459c1.071,0,2.142.153,3.059.153h2.906a6.572,6.572,0,0,0,4.742-2.141h0a1.176,1.176,0,0,1,1.529-.153.968.968,0,0,1,.153,1.377,8.9,8.9,0,0,1-2.6,2.753,15.6,15.6,0,0,1-3.365,1.376,12.736,12.736,0,0,1-3.365.459,23.669,23.669,0,0,1-3.212.153,15.39,15.39,0,0,0-5.506.918,3.909,3.909,0,0,0-1.835,1.223,5.291,5.291,0,0,0-1.071,1.836,10.392,10.392,0,0,0-.306,2.294,18.553,18.553,0,0,0,.153,2.753c.153,1.988.765,4.129.918,6.577a17.721,17.721,0,0,1-5.812,13.612,17.208,17.208,0,0,1-6.73,3.824,11.538,11.538,0,0,1-8.106-.765,10.491,10.491,0,0,1-3.212-2.6,7.226,7.226,0,0,1-1.682-3.824,10.424,10.424,0,0,1,.153-3.824c.306-1.07.612-2.294.918-3.211a7.18,7.18,0,0,0,0-5.354,7.069,7.069,0,0,0-4.13-3.364,8.658,8.658,0,0,0-2.753-.459,18.5,18.5,0,0,0-2.906.153,44.3,44.3,0,0,0-5.965,1.835c-.612.153-1.223,0-1.376-.612s0-1.223.611-1.376Z" fill="#fff"/><path d="M288.961,307.586a10.726,10.726,0,0,1-.459-4.435,16.324,16.324,0,0,1,1.071-4.13,16.087,16.087,0,0,1,2.294-3.67,18.15,18.15,0,0,1,3.059-2.906,20.494,20.494,0,0,1,7.647-3.518,37.13,37.13,0,0,1,8.106-1.224c1.377-.153,2.753-.153,4.13-.306,1.377,0,2.753-.153,4.13-.153a19.866,19.866,0,0,1,8.718,1.53,13.916,13.916,0,0,1,4.129,2.753,10.355,10.355,0,0,1,2.753,4.435,13.639,13.639,0,0,1,.459,4.9c0,1.529-.153,2.753-.153,3.976a16.643,16.643,0,0,0,.153,2.906c0,.153.153.306.153.459s.153.306.306.459a1.844,1.844,0,0,0,.765.765,6.3,6.3,0,0,0,2.294,1.07,9.242,9.242,0,0,0,2.906,0A22.975,22.975,0,0,0,348,308.045a37.776,37.776,0,0,0,6.424-4.129c2.141-1.53,4.283-3.212,6.424-4.742,1.071-.764,2.294-1.529,3.365-2.294s2.294-1.529,3.518-2.294a16.637,16.637,0,0,1,4.129-1.682,9.876,9.876,0,0,1,4.742-.306,8.539,8.539,0,0,1,4.282,1.988,6.459,6.459,0,0,1,2.447,4.13c.153.611-.306,1.07-.917,1.223-.612,0-1.071-.153-1.224-.765h0c-.612-1.988-2.906-3.211-5.047-3.364a7.984,7.984,0,0,0-3.212.611,16.208,16.208,0,0,0-3.212,1.683c-1.071.612-1.988,1.529-3.059,2.294s-1.988,1.682-3.059,2.447c-1.988,1.682-4.129,3.518-6.118,5.2a54.783,54.783,0,0,1-6.882,4.742c-1.224.764-2.6,1.376-3.824,1.988a19.956,19.956,0,0,1-4.283,1.376,13.073,13.073,0,0,1-4.894.153,10.216,10.216,0,0,1-6.882-3.976,14.112,14.112,0,0,1-.765-1.224c-.153-.459-.459-.917-.612-1.376a15.163,15.163,0,0,1-.612-5.048,32.556,32.556,0,0,1,.306-4.129,9.469,9.469,0,0,0-.153-3.059,5.033,5.033,0,0,0-1.07-2.447,7.188,7.188,0,0,0-2.3-1.988c-3.67-2.3-9.329-2.448-14.53-2.6a31.655,31.655,0,0,0-7.647.765,33.212,33.212,0,0,0-3.671,1.071,14.38,14.38,0,0,0-3.364,1.835,15.438,15.438,0,0,0-4.742,5.659,9.4,9.4,0,0,0-.459,7.036,1.149,1.149,0,0,1-.611,1.376c-.459.153-1.377,0-1.53-.612Z" fill="#fff"/><path d="M283.149,199.606a32,32,0,0,1,2.447,11.93v4.588l-.153,1.53-.153,1.529-.153.765-.153.765-.306,1.529-.458,1.53a33.543,33.543,0,0,1-5.659,10.859c-2.448,3.212-5.506,5.965-7.954,8.871a39.074,39.074,0,0,0-5.965,9.635,37.055,37.055,0,0,0-1.835,5.354,35.661,35.661,0,0,0-.918,5.353,19.339,19.339,0,0,0,.153,5.2,11.452,11.452,0,0,0,.612,2.447c.306.765.612,1.377.918,2.141a7.4,7.4,0,0,0,3.212,2.906,21.354,21.354,0,0,0,4.435,1.377,12.037,12.037,0,0,0,4.742-.306,4.171,4.171,0,0,0,1.835-.918,4.325,4.325,0,0,0,1.529-1.376,9.264,9.264,0,0,0,1.836-4.13,13.381,13.381,0,0,0,.306-2.447v-2.6c-.153-3.671-.918-7.647-.918-11.93a17.673,17.673,0,0,1,1.376-6.73,14.413,14.413,0,0,1,4.283-5.811,11.869,11.869,0,0,1,3.365-1.836,10.275,10.275,0,0,1,3.67-.612,14.152,14.152,0,0,1,6.73,1.683,17.717,17.717,0,0,1,5.2,4.282,40.061,40.061,0,0,1,3.671,5.2l1.377,2.753c.458.918.917,1.836,1.223,2.6a12.645,12.645,0,0,0,3.059,4.129c1.988,1.836,8.106,1.988,7.342,0v-.153c-.153-.612,0-1.223.611-1.376a1.234,1.234,0,0,1,1.377.459,2.471,2.471,0,0,1,.153,2.294,3.046,3.046,0,0,1-1.224,1.835A5.444,5.444,0,0,1,319.091,264a25.9,25.9,0,0,1-3.364-.153,8.526,8.526,0,0,1-3.212-1.377,16.555,16.555,0,0,1-4.436-4.894c-.611-.918-1.07-1.835-1.529-2.6a13.172,13.172,0,0,0-1.53-2.447,32.007,32.007,0,0,0-3.364-4.283,12.713,12.713,0,0,0-4.13-2.906,10.244,10.244,0,0,0-4.588-.917,6.114,6.114,0,0,0-3.977,1.529c-2.141,1.835-3.212,5.353-3.212,8.718,0,3.518.918,7.341,1.071,11.624a24.669,24.669,0,0,1,0,3.365,12.742,12.742,0,0,1-.459,3.365,16.738,16.738,0,0,1-2.906,6.576,12.551,12.551,0,0,1-6.271,4.283,34.111,34.111,0,0,1-3.518.612h-3.518a17.938,17.938,0,0,1-6.729-1.989,15.36,15.36,0,0,1-5.2-5.2,15.6,15.6,0,0,1-1.377-3.365,25.9,25.9,0,0,1-.612-3.365,31.106,31.106,0,0,1,.306-6.576,40.017,40.017,0,0,1,1.683-6.118,37.058,37.058,0,0,1,2.447-5.659,47.164,47.164,0,0,1,7.188-9.942c2.753-2.906,5.812-5.506,8.259-8.412l.918-1.07c.306-.459.612-.765.765-1.071l.765-1.224a9.133,9.133,0,0,1,.611-1.223l.306-.612c.153-.153.153-.459.306-.612l.612-1.376.459-1.377.153-.612c0-.153.153-.458.153-.611l.459-1.377.305-1.376.153-.612.153-.612.153-1.376.153-1.377v-5.812l-.153-1.376-.153-1.377-.153-.612-.153-.611a22.117,22.117,0,0,0-1.835-5.354h0c-.153-.611,0-1.223.612-1.376s2.141-1.836,2.447-1.224Z" fill="#fff"/><path d="M58.164,301.01A87.03,87.03,0,0,1,95.33,283.88l1.224-.306,1.224-.153c.917-.153,1.682-.306,2.6-.459s1.682-.153,2.6-.306l1.376-.153h1.377a36.266,36.266,0,0,1,10.706.918,21.929,21.929,0,0,1,5.2,2.141c.459.306.765.459,1.224.765l1.07.918,1.071,1.07c.459.459.612.765.918,1.071a5.378,5.378,0,0,1,.764,1.223c.153.459.459.918.612,1.377l.306.612a.92.92,0,0,1,.153.612l.153.611.153.612a17.635,17.635,0,0,1,.306,5.659,29.711,29.711,0,0,1-3.365,10.4l-1.224,2.294a9.378,9.378,0,0,0-1.07,2.141,5.64,5.64,0,0,0-.612,3.671,3.075,3.075,0,0,0,.612,1.224,2.968,2.968,0,0,0,1.376.764,10.13,10.13,0,0,0,4.436.306c3.365,0,6.882,0,10.247.153s6.883.459,10.248.765c1.682.153,3.365.459,5.047.612a13.027,13.027,0,0,1,5.506,1.529,6.143,6.143,0,0,1,2.447,1.988,7.272,7.272,0,0,1,1.377,2.906,9.9,9.9,0,0,1-.306,5.965,16.468,16.468,0,0,1-2.906,4.742,43.326,43.326,0,0,1-3.824,3.67,1.259,1.259,0,0,1-1.835-.152,1.393,1.393,0,0,1,0-1.836c1.223-1.223,2.294-2.447,3.365-3.671a11.241,11.241,0,0,0,2.141-3.976,6.361,6.361,0,0,0,0-4.13,3.172,3.172,0,0,0-.918-1.529,5.5,5.5,0,0,0-1.529-1.071,12.55,12.55,0,0,0-4.283-.918c-1.529-.152-3.365-.305-5.047-.458-3.365-.306-6.73-.459-10.095-.612s-6.729-.153-10.094-.153a18.429,18.429,0,0,1-5.659-.459,7.141,7.141,0,0,1-3.059-1.835,6.53,6.53,0,0,1-1.682-3.212,12.378,12.378,0,0,1,0-3.365,11.6,11.6,0,0,1,.917-2.753c.459-.918.765-1.682,1.224-2.447l1.223-2.294a23.817,23.817,0,0,0,3.059-8.718,11.975,11.975,0,0,0-1.988-8.259c-.153-.306-.459-.612-.612-.918l-.764-.765-.918-.612c-.306-.153-.612-.458-.918-.611a19.98,19.98,0,0,0-4.129-1.836,40.568,40.568,0,0,0-4.589-.918c-1.529-.152-3.212-.152-4.894-.152a27.757,27.757,0,0,0-4.894.458,13.391,13.391,0,0,0-2.448.306l-1.223.153-1.224.153a94.975,94.975,0,0,0-19.118,5.812,84.429,84.429,0,0,0-17.283,9.942h0a1.1,1.1,0,0,1-1.682-.306C57.552,302.08,57.705,301.316,58.164,301.01Z" fill="#fff"/><path d="M148.862,152.345c1.835-.458,3.67-1.07,5.506-1.682a9.872,9.872,0,0,1,2.906-.612,6.358,6.358,0,0,1,3.365.306,3.176,3.176,0,0,1,1.529.918,6,6,0,0,1,1.224,1.529,5.686,5.686,0,0,1,.459,3.518,4.527,4.527,0,0,1-.306,1.53c-.153.458-.306,1.07-.459,1.529l-1.377,2.753a57.619,57.619,0,0,1-3.365,5.047c-1.07,1.53-2.141,3.212-3.058,4.742a26.455,26.455,0,0,0-2.142,4.741,27.693,27.693,0,0,0-1.376,4.741,14.233,14.233,0,0,0,.153,4.436,7.319,7.319,0,0,0,1.988,3.518c1.682,1.682,5.506,1.988,8.718,1.682a27.376,27.376,0,0,0,9.942-3.365,39.924,39.924,0,0,0,4.588-3.059,12.325,12.325,0,0,0,2.141-1.835,6.655,6.655,0,0,1,1.071-.918l.459-.459a.474.474,0,0,0-.153.306v.153a1.184,1.184,0,0,0,.153.459l.306.306a.916.916,0,0,0,.611.153h.306a.15.15,0,0,0,.153-.153l.153-.153a1.081,1.081,0,0,1-1.529-1.529l.153-.153.153-.153h.305a1.379,1.379,0,0,1,.765.153l.306.3a3.927,3.927,0,0,0,.306.765v.612a1.16,1.16,0,0,1-.306.612l-.459.612a6.737,6.737,0,0,1-.917,1.07c-.612.765-1.377,1.53-1.989,2.294a38.933,38.933,0,0,1-4.588,3.977,31.054,31.054,0,0,1-5.353,3.212,20.3,20.3,0,0,1-6.118,1.835,22.668,22.668,0,0,1-6.424.306,13.356,13.356,0,0,1-3.365-.765,14.37,14.37,0,0,1-3.365-1.835,13.641,13.641,0,0,1-4.129-6.118,15.7,15.7,0,0,1-.459-7.035,21.488,21.488,0,0,1,1.988-6.271,20.738,20.738,0,0,1,3.518-5.2c1.377-1.53,2.753-2.906,4.13-4.283a29.665,29.665,0,0,0,3.67-4.129l1.377-2.3c.153-.458.306-.764.459-1.223a3.6,3.6,0,0,0,.306-1.224,3.359,3.359,0,0,0-.153-2.141,2.321,2.321,0,0,0-1.53-1.377,5.589,5.589,0,0,0-2.294-.3,15.991,15.991,0,0,0-2.6.611c-1.835.612-3.671,1.071-5.506,1.836a1.066,1.066,0,1,1-.765-1.989Z" fill="#fff"/><path d="M115.978,159.993a80.817,80.817,0,0,0-8.259,7.953,101.893,101.893,0,0,0-7.036,9.024c-1.07,1.529-1.988,3.212-3.058,4.894-.459.765-.918,1.683-1.377,2.447-.153.459-.459.765-.612,1.224s-.306.765-.459,1.224a7.173,7.173,0,0,0-.306,2.447,3.28,3.28,0,0,0,.612,1.835c.153.153.459.306.612.459.306,0,.612.153.918,0a9.454,9.454,0,0,0,2.447-.612c3.518-1.376,6.883-3.212,10.4-4.894a27.725,27.725,0,0,1,12.083-3.212,10.856,10.856,0,0,1,3.671.612,7.685,7.685,0,0,1,3.365,2.447,8.648,8.648,0,0,1,1.682,3.823,10.7,10.7,0,0,1,0,3.824,11.536,11.536,0,0,1-1.224,3.671l-.458.918a3.335,3.335,0,0,0-.459.764c-.459.459-.765.918-1.224,1.377a23.226,23.226,0,0,1-5.353,3.823c-1.835.918-3.671,1.683-5.353,2.448l-5.2,2.447c-3.518,1.529-7.036,3.212-10.554,4.894-7.035,3.212-14.071,6.424-21.106,9.483l-1.377.612a4.586,4.586,0,0,0-1.223.611c-.765.459-1.53.765-2.3,1.224A8.923,8.923,0,0,0,73,227.289a10.64,10.64,0,0,0-1.223,1.53,2.642,2.642,0,0,0-.153,1.529,4.237,4.237,0,0,0,.764,1.836,13.789,13.789,0,0,0,.765,1.376c.306.612.459,1.071.765,1.683a8.967,8.967,0,0,1,.612,3.517,13.406,13.406,0,0,1-1.683,6.424,14.326,14.326,0,0,1-1.835,2.753,32.427,32.427,0,0,1-2.294,2.294,26.486,26.486,0,0,1-5.2,3.212c-1.835.918-3.67,1.53-5.353,2.295-.612.152-1.223,0-1.376-.612a1.132,1.132,0,0,1,.612-1.377c1.682-.917,3.364-1.682,5.047-2.6a23.469,23.469,0,0,0,4.435-3.212,11.65,11.65,0,0,0,3.059-4.129,10.49,10.49,0,0,0,.918-4.742,4.886,4.886,0,0,0-.459-2.141l-.459-.918c-.153-.306-.459-.611-.765-1.07l-.917-1.377a4.345,4.345,0,0,1-.612-1.835,7.527,7.527,0,0,1,.306-4.13,11.38,11.38,0,0,1,1.988-3.212c.765-.917,1.683-1.529,2.447-2.294a26.7,26.7,0,0,1,2.753-1.682c.459-.153.918-.459,1.377-.612l1.376-.612c6.883-3.365,13.919-6.729,20.8-10.094,3.518-1.683,7.036-3.365,10.4-4.9l5.2-2.447c1.682-.917,3.518-1.682,5.047-2.447a19.454,19.454,0,0,0,4.13-2.753c.305-.153.458-.459.764-.765l.306-.459.306-.458a5.106,5.106,0,0,0,.765-1.836,4.855,4.855,0,0,0-.306-3.365c-.153-.458-.612-.611-1.071-.917a3.824,3.824,0,0,0-1.988-.459,13.074,13.074,0,0,0-2.447,0,17.011,17.011,0,0,0-2.6.306,35.129,35.129,0,0,0-5.353,1.529c-3.518,1.224-7.036,2.906-10.86,4.13a9.99,9.99,0,0,1-3.212.612,9.407,9.407,0,0,1-1.988-.153,5.727,5.727,0,0,1-1.835-1.071,3.673,3.673,0,0,1-1.071-1.835,7.68,7.68,0,0,1-.306-1.836,7.523,7.523,0,0,1,.612-3.212,10.588,10.588,0,0,1,.612-1.529,6.2,6.2,0,0,1,.765-1.377,13.181,13.181,0,0,1,1.529-2.447c1.071-1.682,2.141-3.365,3.212-4.894a107.115,107.115,0,0,1,7.341-9.177,54.755,54.755,0,0,1,4.13-4.282c1.377-1.377,2.906-2.753,4.282-3.977a1.033,1.033,0,0,1,1.53.153c-.153-.306-.153.306-.612.765Z" fill="#fff"/><path d="M179.451,233.56a53.038,53.038,0,0,0-9.024,8.565c-.612.765-1.376,1.53-1.988,2.447s-1.224,1.683-1.835,2.448a19.845,19.845,0,0,0-1.224,2.6,4.455,4.455,0,0,0-.306,1.376c0,.459-.153.918-.153,1.377a4.488,4.488,0,0,0,.612,2.447,3.253,3.253,0,0,0,1.529,1.376,5.365,5.365,0,0,0,2.448.459l3.211.306c2.142.153,4.283.459,6.271.765l1.53.153h.917c.306,0,.612.153.918.153a11.827,11.827,0,0,1,2.294.917,5.336,5.336,0,0,1,2.142,2.6,7.678,7.678,0,0,1,.305,1.836,4.71,4.71,0,0,1-.153,1.529,2.211,2.211,0,0,1-.305,1.071c-.153.306-.153.612-.306.918a9.716,9.716,0,0,1-2.142,3.364,22.6,22.6,0,0,1-5.659,4.589c-3.823,2.294-7.8,3.824-9.482,6.271a2.469,2.469,0,0,0-.612,1.529,3.42,3.42,0,0,0,.459,1.53,3.909,3.909,0,0,0,1.682,1.376c.306.153.765.459,1.071.612a10.5,10.5,0,0,1,1.529.612,5.184,5.184,0,0,1,1.836.917,5.3,5.3,0,0,1,1.529,1.683,6.815,6.815,0,0,1,.918,4.129,8,8,0,0,1-1.224,3.518c-.612,1.071-1.376,1.836-1.988,2.753a1.111,1.111,0,0,1-1.835-1.224,23.166,23.166,0,0,0,1.376-2.753,4.939,4.939,0,0,0,.459-2.447,3.826,3.826,0,0,0-.612-1.988c-.153-.153-.459-.306-.612-.459a7.392,7.392,0,0,0-1.07-.459l-1.53-.458c-.611-.153-1.223-.459-1.835-.612a11,11,0,0,1-3.365-2.294A8.637,8.637,0,0,1,164,285.1a6.13,6.13,0,0,1-.459-2.294,8.852,8.852,0,0,1,1.07-4.282,11.977,11.977,0,0,1,2.447-3.059c.459-.459.918-.765,1.377-1.224l1.377-.918c1.835-1.223,3.823-2.294,5.353-3.364.764-.612,1.529-1.071,2.294-1.683a20.749,20.749,0,0,0,1.835-1.835,14.016,14.016,0,0,0,1.224-1.988c.153-.306.153-.765.306-.918v0c0,.153.153.306.153.153l-.612-.306c-.612-.153-1.836-.459-2.753-.612-1.989-.459-4.13-1.071-6.118-1.682l-3.059-.918a13.673,13.673,0,0,1-3.518-1.529,7.248,7.248,0,0,1-1.529-1.53,5.167,5.167,0,0,1-.918-1.835,10.559,10.559,0,0,1-.612-3.824,12.013,12.013,0,0,1,2.6-6.577c1.377-1.835,2.753-3.364,4.13-5.047a71.683,71.683,0,0,1,9.177-8.871,1.021,1.021,0,0,1,1.529.153c.612,1.377.612,1.988.153,2.447Z" fill="#fff"/><path d="M242.465,4.293C239.1,1.387,234.206-.142,228.394.01a32.931,32.931,0,0,0-15.3,4.436c-7.188,4.435-10.247,11.318-8.259,18.812,4.589,16.672,20.342,22.942,20.954,23.248.153,0,.459.153.612.153h.459l16.824-4.894a1.51,1.51,0,0,0,1.07-1.071C245.218,39.471,253.936,14.54,242.465,4.293Z" fill="#191919"/><path d="M236.347,152.8h-.459a1.552,1.552,0,0,1-1.07-1.988l5.2-16.824a1.552,1.552,0,0,1,1.988-1.071,1.682,1.682,0,0,1,1.071,1.989l-5.2,16.824A1.52,1.52,0,0,1,236.347,152.8Z" fill="#191919"/><ellipse cx="251.431" cy="98.549" rx="4.283" ry="9.024" transform="translate(62.964 291.965) rotate(-67.145)" fill="#fff"/><path d="M253.783,93a17.733,17.733,0,0,0-7.035-1.529q-3.9.23-5.048,2.753c-.611,1.682-.153,3.67,1.53,5.506a17.889,17.889,0,0,0,5.965,4.129,18.521,18.521,0,0,0,6.577,1.53c2.753,0,4.741-.918,5.659-2.753h0C262.654,99.579,259.289,95.449,253.783,93Zm-8.106,4.589c-.918-.918-1.071-1.683-.918-1.989s.918-.612,2.142-.612h.306a14.906,14.906,0,0,1,5.353,1.224,7.491,7.491,0,0,1,1.07.459,2.814,2.814,0,0,0-2.6,1.682,3.35,3.35,0,0,0,.612,3.059,7.459,7.459,0,0,1-1.071-.459A13.751,13.751,0,0,1,245.677,97.591Z" fill="#191919"/><path d="M241.7,115.791l9.177,7.8s-4.894,3.059-8.718.153C238.947,121.45,241.7,115.791,241.7,115.791Z" fill="#fff"/><path d="M245.83,126.65a8.287,8.287,0,0,1-4.741-1.529c-3.365-2.447-1.989-7.494-.765-10.095a1.619,1.619,0,0,1,1.071-.917,1.466,1.466,0,0,1,1.376.306l9.177,7.8a1.661,1.661,0,0,1,.612,1.376,1.363,1.363,0,0,1-.765,1.224A10.931,10.931,0,0,1,245.83,126.65Zm-3.365-7.953c-.306,1.377-.459,3.059.612,3.824a5.353,5.353,0,0,0,4.741.612Z" fill="#191919"/><path d="M282.69,90.708c-5.506-1.988-11.777.459-15.906,5.659A14.246,14.246,0,0,0,245.677,84.9a18.059,18.059,0,0,0-8.106,22.024,13.882,13.882,0,0,0,8.412,8.412,13.046,13.046,0,0,0,4.741.918c6.424,0,12.542-4.435,15.142-11.318h0c.153-.459.306-.765.459-1.224a1.376,1.376,0,0,0,.918-.917c2.6-6.883,9.023-11.012,14.377-9.024s7.647,9.177,5.2,16.212c-1.989,5.2-6.271,9.024-10.707,9.483a1.713,1.713,0,0,0-1.529,1.835,1.572,1.572,0,0,0,1.682,1.53h.153c5.812-.612,11.165-5.047,13.46-11.624C292.938,102.638,289.726,93.308,282.69,90.708Zm-20.036,13.153c-2.6,6.883-9.635,10.707-15.753,8.565A11.078,11.078,0,0,1,240.477,106a14.334,14.334,0,0,1,0-10.095,15.073,15.073,0,0,1,6.577-7.8,12.093,12.093,0,0,1,5.353-1.377,10.275,10.275,0,0,1,3.67.612C262.348,89.484,265.254,96.826,262.654,103.861Z" fill="#191919"/><path d="M217.535,42.683a2.937,2.937,0,0,1-2.447-1.377,2.871,2.871,0,0,1,.917-3.824c.612-.3,14.377-8.412,30.131-7.647a2.757,2.757,0,0,1-.306,5.506c-14.224-.612-27.072,6.883-27.072,7.036C218.453,42.377,217.994,42.683,217.535,42.683Z" fill="#fff"/><path d="M277.337,46.659c-6.271-6.271-18.048-13.306-38.084-11.012-14.53,1.682-24.777,7.341-30.436,16.824-6.73,11.471-4.436,24.472-2.141,29.825a13.608,13.608,0,0,0-2.906,9.024c0,5.812,4.129,9.176,7.494,10.859l-15.448,28.142a1.727,1.727,0,0,0,.612,2.294,1.147,1.147,0,0,0,.765.153,1.861,1.861,0,0,0,1.529-.917l16.366-29.825a1.463,1.463,0,0,0,0-1.377,1.619,1.619,0,0,0-1.071-.917c-.306,0-7.035-2.141-7.035-8.412a10.762,10.762,0,0,1,2.905-7.648,7.96,7.96,0,0,1,5.812-2.294c4.436.153,7.189,4.741,7.648,5.659,1.682,7.8,5.506,8.565,6.271,8.718h.306c2.294,0,3.823-3.212,6.423-9.024,2.6-5.659,6.577-14.224,10.095-14.224,3.365,0,6.882,3.824,10.094,7.648,3.518,3.976,7.189,8.106,11.777,9.023a18.219,18.219,0,0,0,7.036.153,64.04,64.04,0,0,1-3.977,22.331c-4.741-3.671-4.129-6.73-3.977-6.883a1.449,1.449,0,0,0-1.07-1.988,1.782,1.782,0,0,0-2.141,1.07c-.153.306-2.448,7.495,9.788,13.307.765.459,1.224.918,1.224,1.529s-.459,1.071-1.224,1.53c-2.753,1.376-8.106.612-11.165-3.518a1.654,1.654,0,0,0-2.753,1.835,15.637,15.637,0,0,0,5.2,4.283c-1.682,3.518-6.576,10.859-16.671,10.859a18.956,18.956,0,0,1-6.118-1.071c-.153,0-.306-.153-.459-.153a.475.475,0,0,1-.306-.152,21.262,21.262,0,0,1-10.094-7.954h0a.15.15,0,0,0-.153-.153l-.153-.153a.15.15,0,0,1-.153-.153H229.77a6.027,6.027,0,0,0-2.753,2.753,6.855,6.855,0,0,0,.153,5.2c.612,1.682,2.3,3.212,3.977,4.894,3.518,3.365,5.812,6.118,5.2,9.789l-.459,1.529a1.449,1.449,0,0,0,1.071,1.988c.153,0,.306.153.612.153a1.663,1.663,0,0,0,1.529-1.07c.153-.612.459-1.224.612-1.836l3.365-10.859a24.458,24.458,0,0,0,5.965.765h0c12.388,0,18.047-9.177,19.883-13.154a13.15,13.15,0,0,0,2.447.153,9.991,9.991,0,0,0,4.435-.917,4.745,4.745,0,0,0,0-8.871,9.127,9.127,0,0,1-1.223-.612c2.906-7.036,4.435-15.3,4.435-25.236a24.654,24.654,0,0,0,2.753-1.53c3.977-2.906,6.271-7.494,7.036-13.459C288.961,66.542,285.9,55.224,277.337,46.659Z" fill="#191919"/><ellipse cx="274.018" cy="108.03" rx="4.283" ry="9.024" transform="translate(68.042 318.577) rotate(-67.145)" fill="#fff"/><path d="M276.266,102.638a17.735,17.735,0,0,0-7.035-1.53q-3.9.229-5.047,2.753c-1.377,3.059,1.988,7.189,7.494,9.636a18.518,18.518,0,0,0,6.577,1.529h.459q3.9-.229,5.047-2.753C285.137,109.062,281.925,104.932,276.266,102.638Zm-9.023,2.447c.153-.306.917-.612,2.141-.612h.306a14.906,14.906,0,0,1,5.353,1.224,7.514,7.514,0,0,1,1.07.458,2.813,2.813,0,0,0-2.6,1.683,3.35,3.35,0,0,0,.612,3.059,7.392,7.392,0,0,1-1.07-.459C268.925,108.6,266.937,106,267.243,105.085Z" fill="#191919"/><path d="M218.758,84.59a8.976,8.976,0,0,0-5.353.918h0a3.676,3.676,0,0,0-1.223.917q-2.295,2.3-1.836,6.424a1.668,1.668,0,0,0,1.683,1.53h.153a1.581,1.581,0,0,0,1.376-1.836,7.872,7.872,0,0,1,.153-2.753l1.836,3.365a1.68,1.68,0,0,0,1.529.918,1.379,1.379,0,0,0,.765-.153,1.689,1.689,0,0,0,.612-2.294l-1.989-3.671a5.944,5.944,0,0,1,1.683,0,1.51,1.51,0,0,0,1.835-1.377A1.561,1.561,0,0,0,218.758,84.59Z" fill="#191919"/><path d="M494.674,164.887c-.611-.765-1.07-1.376-7.647.918a6.415,6.415,0,0,0,.153-3.824,3.592,3.592,0,0,0-2.753-2.906c-.612-.153-1.224-.153-9.33,4.894a.15.15,0,0,1,.153-.153,5.037,5.037,0,0,0-2.447-6.729,1.876,1.876,0,0,0-1.988.306l-5.353,5.659a7.371,7.371,0,0,0-4.742-2.753,1.552,1.552,0,0,0-1.529.765c-4.895,7.953-12.848,20.8-13.765,21.871-.153.153-.153.306-.306.459-2.142.917-3.671,1.835-4.742,2.294-6.729,3.671-25.695,20.342-27.683,22.024-3.671,1.836-10.248,6.577-18.66,12.542-12.235,8.718-28.6,20.342-41.3,26.613-.918.458-1.683.764-2.6,1.223-4.436,1.988-8.259,3.212-11.013,3.212h-.458c-9.177-.459-21.413-17.283-33.343-33.5-8.565-11.777-17.589-23.86-26.307-31.966-19.424-17.589-36.248-26.766-39.919-28.6-.459-4.13-.612-6.424-.612-6.577v-.612h0V149.9a.15.15,0,0,0-.152-.153l-.153-.153-.153-.153h-.153a.15.15,0,0,1-.153-.152h-1.377l-14.377,6.576-22.789-26a1.661,1.661,0,0,0-1.376-.612,1.56,1.56,0,0,0-1.224.765l-5.812,8.718c-6.118-.153-39.919-.459-68.52,14.683C89.977,170.546,41.8,212.607,41.34,258.491c-.306,31.965,24.624,54.143,45.884,67.143L74.835,358.518a1.673,1.673,0,0,0,.612,1.988s2.294,1.53,5.659,3.671q-2.752,5.506-5.047,10.553c-3.671,8.106-5.506,19.73-4.894,30.131a52.927,52.927,0,0,0,3.67,16.977c-14.377,10.094-46.954,18.047-59.343,21.106a23.629,23.629,0,0,0-2.294.612Q2.185,446.31.35,451.356a5.826,5.826,0,0,0,1.071,5.812c2.753,3.671,14.836,5.048,34.566,6.883,3.059.306,6.118.612,9.024.918C63.67,466.8,86,470.781,92.118,471.851c-1.376,9.789-1.835,17.283-1.835,17.895a1.666,1.666,0,0,0,1.529,1.682c.918.153,84.121,9.177,118.84,14.836l2.447.459c23.707,3.977,55.214,9.177,80.6,9.177,14.377,0,26.766-1.682,34.719-6.118,11.471-6.424,20.189-20.954,22.789-37.778a71.467,71.467,0,0,0-.918-25.695h5.354c39,0,61.331-9.635,70.355-29.977a62.345,62.345,0,0,0,3.518-36.555c-2.294-11.471-9.33-27.071-29.213-36.248-16.518-7.647-43.437-14.683-65.92-19.577,11.93-.459,22.33-2.906,30.283-7.648,12.542-7.494,28.143-22.636,46.343-45.119,13-16.059,22.636-30.13,23.554-31.354,7.953-8.565,16.212-16.212,17.589-17.436,2.447-.918,22.636-3.824,40.684-5.965a1.58,1.58,0,0,0,1.376-1.835c-.764-6.577-6.423-7.342-11.471-7.953-5.965-.765-12.082-1.683-14.53-9.636-3.364-9.789,9.33-16.06,18.66-20.8,1.988-1.071,3.977-1.988,5.506-2.906,2.294-1.376,3.518-2.906,3.824-4.741A9.492,9.492,0,0,0,494.674,164.887Zm-11.012-2.447a2.211,2.211,0,0,1,.306,1.071,1.4,1.4,0,0,1-.459,1.223l-3.364,3.212-.306.306c-3.059,1.223-6.73,2.753-11.318,4.588-1.683.612-3.365,1.377-5.048,2.142C472.65,169.323,481.215,163.816,483.662,162.44ZM472.038,160.6c.153.458.459.917,0,1.529-1.07,2.141-5.812,6.73-7.8,8.412-1.835,1.071-3.518,2.294-5.2,3.365Zm-10.859,3.211a2,2,0,0,1,1.53,1.377c0,.153,0,.153.153.306l-7.648,7.953C457.661,169.475,459.956,165.652,461.179,163.816Zm-214.125,44.2c.458,2.294,2.753,3.671,4.894,4.894,3.365,1.989,4.894,3.059,4.129,5.354a48.682,48.682,0,0,1-2.906,6.576,126.853,126.853,0,0,0-8.106,20.495c-1.376-30.895-3.976-61.485-5.659-79.073,8.565,15.906,16.366,31.813,16.518,34.719-.611.764-2.294,1.223-3.67,1.682C250.113,203.43,246.442,204.5,247.054,208.018Zm-1.071,82.438c9.636,10.095,23.707,18.966,39.766,25.084a282.534,282.534,0,0,0-40.99-1.53C245.218,306.822,245.677,298.869,245.983,290.456ZM234.971,153.569c.306,3.365,1.07,10.247,1.988,19.577l-7.188,4.436-6.73-18.507Zm-14.53,36.86c0-3.365.153-6.729.459-10.247.153-3.365.459-6.883.764-10.248.153-1.376.153-2.906.306-4.282l5.506,15.142a1.849,1.849,0,0,0,1.071,1.07c.153,0,.306.153.459.153.306,0,.612-.153.918-.153l7.494-4.741c3.212,35.331,7.8,99.109,3.977,137.193a283.694,283.694,0,0,0-34.108,3.824,39.407,39.407,0,0,1-.917-8.412,42.178,42.178,0,0,1,1.529-9.789,70,70,0,0,1,3.365-9.483c1.377-3.212,2.906-6.118,4.435-9.176l4.895-9.177a92.469,92.469,0,0,0,4.435-9.636,47.925,47.925,0,0,0,3.059-10.4,44.41,44.41,0,0,0,.612-11.012,47.9,47.9,0,0,0-2.141-10.554c-1.071-3.365-2.142-6.729-3.212-9.941-.459-1.683-1.071-3.212-1.377-4.9-.153-.764-.459-1.682-.611-2.447-.153-.917-.306-1.682-.459-2.447a74.729,74.729,0,0,1-.765-10.094C220.288,197.159,220.288,193.794,220.441,190.429Zm2.753,144.841,10.553,1.07c5.506.918,11.777,2.448,16.671,5.048,8.871,4.894,18.966,17.894,22.025,27.683a196.468,196.468,0,0,0-20.495-9.177h-.765c-.153,0-.153,0-.306.153h0c-6.882,3.365-23.859,2.141-33.5,1.071h-.153l-4.894-.612C215.394,349.953,221.359,338.482,223.194,335.27Zm-15.6,29.672-14.683-3.824c1.836-5.506,8.26-23.707,15.907-31.507l11.165,4.588C217.382,339.093,210.193,353.165,207.593,364.942ZM223.806,241.36a40.846,40.846,0,0,1-.612,9.636,51.3,51.3,0,0,1-2.6,9.483c-1.224,3.059-2.447,6.271-3.824,9.33s-2.906,6.117-4.435,9.329c-3.059,6.271-6.118,12.7-7.8,19.577a40.959,40.959,0,0,0-1.529,10.554,37.389,37.389,0,0,0,.918,9.177l-6.883,1.376c-3.059-1.682-6.577-3.671-10.095-5.659,4.283-17.589,7.648-35.178,10.248-51.543h0v-.459a365.872,365.872,0,0,0,4.435-42.519,252.84,252.84,0,0,0-2.141-48.178l12.083,9.788a2.211,2.211,0,0,0,1.071.306h.458a1.512,1.512,0,0,0,1.071-1.07l3.977-10.554c-.612,3.212-1.071,6.424-1.53,9.636-.459,3.518-.765,7.035-.918,10.4a61.054,61.054,0,0,0,.459,10.554l.306,2.6.459,2.6c.153.918.306,1.682.459,2.6s.306,1.682.459,2.6c.612,3.518,1.529,6.883,2.294,10.247C221.817,228.207,223.5,234.937,223.806,241.36Zm-26.46-107.521,21.718,24.624-7.035,18.813-13.154-10.554a161.822,161.822,0,0,0-6.118-25.848Zm-5.812,14.836c3.212,11.471,8.412,36.1,6.73,70.967-.306,8.412-1.224,17.742-2.448,27.683-2.753-9.788-8.106-19.118-11.624-25.083a40.96,40.96,0,0,1-2.906-5.506c0-.765,2.295-2.6,3.671-3.824,2.447-1.988,5.2-4.282,5.506-7.035a3.694,3.694,0,0,0-.764-2.906c-1.53-1.836-4.436-1.988-7.5-1.988a16.231,16.231,0,0,1-3.212-.306c-.153-1.071,1.071-4.742,2.141-8.107,1.224-3.517,2.6-7.8,3.977-13A219.251,219.251,0,0,0,191.534,148.675ZM71.624,311.257c-18.507-15.6-27.837-33.342-27.684-52.461.153-24.93,15.3-47.107,27.989-61.484,14.072-16.06,33.19-31.2,51.085-40.684,26.765-14.224,58.425-14.377,66.073-14.224a248.452,248.452,0,0,1-7.036,36.554c-1.376,5.047-2.753,9.33-3.976,12.695a48.938,48.938,0,0,0-2.142,7.341c-.459,2.6.153,4.283,1.836,4.894a17.193,17.193,0,0,0,4.435.612c1.683,0,4.436.153,5.047.918v.306c-.153,1.376-2.447,3.365-4.282,4.741-2.6,2.141-5.047,4.13-4.742,6.577.153,1.223,1.071,2.906,3.365,6.883,5.048,8.718,14.377,24.777,12.389,37.93-2.447,16.06-5.812,33.343-9.942,50.779a102.835,102.835,0,0,1-13-9.024c-2.141-1.683-4.741-3.824-7.8-6.271-13-10.553-30.437-24.93-40.99-29.519,1.988-3.365,6.73-11.012,11.471-18.965,12.695-21.719,11.93-23.248,11.471-24.472a5.367,5.367,0,0,0-4.741-2.906,12.608,12.608,0,0,0-11.013,5.66,34.732,34.732,0,0,0-3.517,8.412c-1.989,6.117-3.824,11.929-11.318,13.306-1.071.153-2.142.459-3.365.612-10.554,1.835-23.554,4.129-27.684,9.941a7.318,7.318,0,0,0-1.223,5.659c1.376,8.26,14.377,9.483,26.766,10.554a87.9,87.9,0,0,1,10.553,1.223,73.062,73.062,0,0,1,22.789,8.718l4.741,3.059c4.9,3.824,9.636,7.8,13.765,11.165,3.059,2.447,5.66,4.589,7.8,6.271a119.19,119.19,0,0,0,15.142,10.248.149.149,0,0,1,.152.152c4.589,2.754,9.177,5.354,13,7.342a.15.15,0,0,1,.153.153h.153c3.365,1.835,6.271,3.212,8.106,4.129-7.953,8.871-14.224,26.613-16.059,32.119-9.024-2.753-54.3-16.212-74.333-23.859C107.872,333.587,88.448,325.481,71.624,311.257Zm5.965,47.414,11.623-31.049a167.587,167.587,0,0,0,24.931,11.93c13.765,5.2,39.154,13.154,56.743,18.507-1.988,5.812-3.824,10.553-5.353,14.224-3.059,6.882-7.189,11.318-12.848,13.459-4.435,1.683-9.635,1.836-15.141.918a95.389,95.389,0,0,1-11.012-2.753,156.912,156.912,0,0,1-18.2-7.5C97.319,371.365,81.871,361.424,77.589,358.671Zm20.036,82.438c-2.448,3.059-8.107,11.471-11.013,26.613-5.047-.918-12.541-2.141-20.647-3.365a10.893,10.893,0,0,0-1.989-5.659c-1.376-2.447-1.988-3.824-.917-5.965,1.835-3.671,17.588-10.706,27.377-14.377A43.913,43.913,0,0,0,97.625,441.109Zm249.609,30.742c-2.447,15.6-10.707,29.519-21.107,35.331-21.107,11.93-78.615,2.294-113.028-3.365l-2.447-.459c-32.119-5.353-105.686-13.459-117.463-14.836.459-6.117,2.294-29.212,9.177-46.037a179.338,179.338,0,0,0,20.954,4.436c8.106,8.106,19.883,12.389,36.4,13.153,13,.612,28.907-1.07,48.484-5.2,21.107-4.282,44.508-.917,66.073,9.636,2.447,1.07,11.624,5.353,19.424,5.353,3.365,0,6.271-.765,8.565-2.753a8.119,8.119,0,0,0,2.906-6.271,7.866,7.866,0,0,0-3.67-5.965h0c-17.895-12.236-80.6-11.012-115.016-8.259-23.095,1.835-60.873-.918-84.274-7.647-.153,0-.153,0-.306-.153a86.869,86.869,0,0,1-10.247-3.671.15.15,0,0,1-.153-.153,33.929,33.929,0,0,1-6.271-3.824C71.777,420,71.93,393.237,78.2,377.789a154.193,154.193,0,0,0,60.108,12.389h.153a39.3,39.3,0,0,0,5.965.458,28,28,0,0,0,10.095-1.682c6.424-2.447,11.471-7.647,14.836-15.3a156.389,156.389,0,0,0,5.506-14.683c9.329,2.907,15.906,4.742,16.059,4.895h0l17.9,4.588a7.278,7.278,0,0,0,2.753.612,7.546,7.546,0,0,0,2.294-.459,8.47,8.47,0,0,0,4.589-4.129c4.741.458,11.012,1.07,17.13,1.07,6.423,0,12.541-.612,16.671-2.294,4.894,1.835,38.084,14.836,67.3,41.6l9.636,9.482a73.04,73.04,0,0,1,17.436,30.743.559.559,0,0,0,.153.458A85.4,85.4,0,0,1,347.234,471.851Zm-7.5-142.7a.92.92,0,0,0,.612-.153c35.025,8.106,51.7,14.836,58.12,17.742,18.506,8.718,25.083,23.248,27.224,33.954,2.753,13.612.153,26.766-3.364,34.566-8.871,20.036-32.272,28.907-73.721,27.989a74.669,74.669,0,0,0-14.989-27.836,104.412,104.412,0,0,0,11.013.459,135.008,135.008,0,0,0,16.518-1.071c13.765-1.835,21.871-9.33,23.554-15.6a9.494,9.494,0,0,0-3.212-10.094c-7.189-5.812-16.213-.459-24.166,4.283-2.447,1.376-4.741,2.753-7.035,3.823-8.565,4.13-26.307,4.436-29.978,4.589a221.976,221.976,0,0,0-44.2-30.743c-1.988-10.859-13.765-26.765-24.318-32.73a56.967,56.967,0,0,0-14.377-4.895c-.918-2.447-.918-4.588.306-6.576,1.988-3.365,7.341-6.118,15.294-7.8a83.693,83.693,0,0,1,11.93-1.682h.612c3.824-.306,7.953.459,13.459,2.753,1.53.612,2.906,1.224,4.436,1.835a62.245,62.245,0,0,0,9.33,3.671,73.3,73.3,0,0,0,13.918,2.294c9.635.918,18.048,1.224,25.848,1.224C335.151,329.305,337.445,329.152,339.739,329.152ZM362.528,313.7c-13.459,8.107-35.636,9.483-59.037,3.824-23.248-5.659-44.508-17.283-56.743-31.2-.153-.153-.459-.306-.612-.459.153-8.106,0-16.518-.153-25.236h0c1.224-14.53,6.883-26.307,10.553-34.26a70.289,70.289,0,0,0,3.059-7.036c1.53-5.047-2.753-7.647-5.659-9.177-1.376-.764-3.212-1.835-3.365-2.6-.153-.612.918-1.07,3.212-1.682,2.141-.612,4.589-1.377,5.659-3.365.612-1.071,1.377-2.753-9.635-24.166-2.906-5.812-6.118-11.471-8.107-15.447a208.427,208.427,0,0,1,35.025,25.848c8.718,7.953,17.436,19.883,26,31.507.612.917,1.377,1.835,1.988,2.753,3.059,5.659,10.554,21.565,9.177,28.295-1.07,4.894-3.517,8.718-5.659,11.93-2.906,4.435-5.659,8.565-1.835,13a4.429,4.429,0,0,0,3.518,1.53c4.435,0,11.471-5.2,20.189-11.777A198.584,198.584,0,0,1,348,253.443a30.685,30.685,0,0,0,6.73-3.518c10.553-5.353,23.4-13.918,34.566-22.024,1.377,2.447,4.283,7.189,8.106,12.542q9.865,13.766,18.813,18.812C401.683,277.609,380.27,303.151,362.528,313.7ZM417.9,256.655c-11.93-6.424-23.248-25.542-26.154-30.742,1.377-.918,2.753-1.835,3.977-2.753,7.035-5.047,13.306-9.483,16.977-11.624,2.447,4.741,10.553,19.271,17.895,27.683C428.907,241.666,424.319,248.243,417.9,256.655Zm74.485-88.25c-.153.765-.917,1.529-2.294,2.447a53.629,53.629,0,0,1-5.2,2.753c-9.789,4.894-24.472,12.236-20.342,24.777,3.212,9.942,11.318,11.166,17.283,11.93,4.435.612,7.188,1.071,8.259,3.518-3.365.459-10.859,1.377-18.2,2.294-20.8,2.753-21.565,3.518-22.33,4.13-.918.765-8.871,7.953-16.824,16.518-7.189-8.412-14.989-22.789-17.283-27.072,4.13-3.67,20.5-17.741,26.307-20.953,7.494-4.283,44.354-19.883,50.472-21.107A1.147,1.147,0,0,1,492.38,168.405Z" fill="#181818"/></g></g>
            </g>
        </g>
    </g>
    
    <!-- ITEM 2 -->
    <g>
        <defs>
            <clipPath id="clip-path-id-viewbox-item-2">
                <rect x="0.0" y="0.0" width="110.667" height="157.333"/>
            </clipPath>
        </defs>
        <g transform="translate(61.0 37.0) rotate(0.0 1.0 2.0) scale(0.018072234722184572 0.025423782677505672)">
            <g clip-path="url(#clip-path-id-viewbox-item-2)" transform="translate(-0.0 -0.0)">
                <title>ellipse_1 copy 3</title><g id="Layer_2-i2" data-name="Layer 2"><g id="ellipse_1_copy_3-i2" data-name="ellipse_1 copy 3"><ellipse cx="55.333" cy="78.667" rx="55.333" ry="78.667" fill="#1a1a1a"/></g></g>
            </g>
        </g>
    </g>
    
</svg>