<?xml version="1.0" encoding="UTF-8"?><svg version="1.1" xmlns="http://www.w3.org/2000/svg" xmlns:xlink="http://www.w3.org/1999/xlink" viewBox="0 0 1200 800" width="1200" height="800" x="0px" y="0px">
              
              <!-- ITEM 0 -->
<g>
    <defs>
        
        <clipPath id="clip-path-id-viewbox-item-0">
            <rect x="0.0" y="0.0" width="157.484" height="162.808"/>
        </clipPath>
    </defs>
    <g transform="translate(521.0 319.0) rotate(0.0 78.5 81.0) scale(0.9969266719158771 0.9950370989140583)">
      <g clip-path="url(#clip-path-id-viewbox-item-0)" transform="translate(-0.0 -0.0)">
      <title>porcupine_hedgehog</title><g id="Layer_2-i0" data-name="Layer 2"><g id="porcupine_hedgehog-i0"><path d="M84.715,158.408l.1-.1a1.421,1.421,0,0,0,.2-.6v-.2a.367.367,0,0,0-.1-.3l-16.5-45.3a.758.758,0,0,0-.2-.4,3.958,3.958,0,0,0-7.1,3.5l20.1,40.5a17.281,17.281,0,0,0-4.1-.4c-4.3,0-7.7,1.2-7.7,2.6s3.5,2.6,7.7,2.6c3.4,0,6.2-.7,7.2-1.7.3-.1.3-.2.4-.2Z" fill="#191919"/><path d="M60.515,55.908s-23.1-38-30.9-30.5c-6,5.8,9.8,37.4,8.5,46-1.2,8.5-15.9,61.3,37.4,54.8" fill="#fff"/><path d="M43.315,70.208c-.2,7.9-7.4,53.9,31.4,52l-14.1-66.3s-23.1-38-30.9-30.5C24.315,31.908,43.515,61.508,43.315,70.208Z" fill="#fece2f"/><path d="M63.715,160.808a1.421,1.421,0,0,0,.2-.6v-.4l-12.9-45.6c0-.1-.1-.3-.1-.4a3.927,3.927,0,0,0-7.3,2.9l16.8,41.3a18.5,18.5,0,0,0-4.3-.4c-4.3,0-7.7,1.2-7.7,2.6s3.5,2.6,7.7,2.6c3.3,0,6.1-.7,7.2-1.7C63.515,161.108,63.615,160.908,63.715,160.808Z" fill="#191919"/><ellipse cx="27.919" cy="24.202" rx="5.2" ry="6" transform="translate(-8.477 30.57) rotate(-50.844)" fill="#191919"/><circle cx="42.115" cy="47.808" r="2.9" fill="#191919"/><path d="M157.315,94.008a100.221,100.221,0,0,0-8.9-11.7c-1.6-1.8-3.4-3.6-5.2-5.3-.9-.9-1.8-1.6-2.8-2.5a17.41,17.41,0,0,0-1.4-1.2l-1.5-1.2c-.6-.5-1.3-1-2-1.5,4.9,1.3,9.6,2.9,14.4,4.6h0a.7.7,0,0,0,.9-.4.819.819,0,0,0-.4-1,207.627,207.627,0,0,0-21.7-7.8,1.268,1.268,0,0,0-.6-.1,79.985,79.985,0,0,0-17-7.3,92.9,92.9,0,0,0-14.6-3.2h1.1c2.1.1,4.1.3,6.2.6l1.5.2c.5.1,1,.1,1.5.2l3.1.6,1.5.3,1.5.3,3.1.7c.5.1,1,.3,1.5.4l1.5.4,3,.9h0a.87.87,0,0,0,.9-.4c.1-.4,0-.8-.4-.9l-3-1.2-1.5-.6-1.5-.6-3-1-1.5-.5c-.5-.1-1-.3-1.5-.4l-2.4-.7a25.123,25.123,0,0,1,2.7.4,138.456,138.456,0,0,1,16.7,3.7.807.807,0,0,0,.9-.4c.1-.4,0-.8-.4-.9a137.767,137.767,0,0,0-16.6-5,111.092,111.092,0,0,0-17.3-2.6,104.637,104.637,0,0,0-17.7.2,88.931,88.931,0,0,0-8.8,1.3c-1.5.3-2.9.6-4.4,1-.7.2-1.5.4-2.2.6a4.875,4.875,0,0,0-1.1.4l-.4.1c-1.9-2.9-5.1-7.8-8.7-12.7-7.9-10.5-14-16.1-18.3-16.6a5,5,0,0,0-4.1,1.3c-4.1,3.9-.3,15.7,3.7,28.1,2.4,7.5,4.9,15.3,4.4,18.6-.1.7-.3,1.6-.5,2.8-1.8,9.6-6.1,32.2,5.9,45,5.6,5.9,13.9,8.9,24.8,8.9,1.9,0,4-.1,6-.3a62.581,62.581,0,0,0,4.9,4.1,80.2,80.2,0,0,0,18.6,10.7,86.354,86.354,0,0,0,20.5,5.5.76.76,0,0,0,.8-.6.779.779,0,0,0-.6-.9h0a88.442,88.442,0,0,1-19.6-6.5,77.225,77.225,0,0,1-12.6-7.7l1.3.7c.6.3,1.2.6,1.7.9a90.819,90.819,0,0,0,9.7,4.1,4.348,4.348,0,0,1,.7.4,95.147,95.147,0,0,0,9,4.6.806.806,0,0,0,.9-.3.777.777,0,0,0-.3-1h0c-1.6-.9-3.3-1.8-4.9-2.7a.87.87,0,0,0-.4-.9c-.9-.3-1.8-.7-2.7-1.1a1,1,0,0,1-.5-.4c-.7-.4-1.3-1-2-1.4l-1-.7a3.615,3.615,0,0,0-1-.7c-.6-.5-1.3-1-1.9-1.5l-1.9-1.6c-1-.9-1.9-1.7-2.8-2.6a8.794,8.794,0,0,0,1,.6c.7.5,1.5,1,2.3,1.5a139.308,139.308,0,0,0,19.1,10.1.807.807,0,0,0,.9-.3.777.777,0,0,0-.3-1h0a136.386,136.386,0,0,1-18.2-11.1c-.7-.5-1.4-1-2.1-1.6-.7-.5-1.4-1-2.1-1.6-1.4-1.1-2.8-2.2-4.1-3.4q-4.05-3.45-7.8-7.2c-1-1-2-2.1-2.9-3.1-.1-.2-.3-.4-.4-.6h0c2.1,2.1,4.3,4.1,6.5,6.1,1.8,1.6,3.6,3.1,5.5,4.6s3.8,2.9,5.8,4.2,4,2.6,6.1,3.7a55.141,55.141,0,0,0,6.5,3.1.806.806,0,0,0,.9-.3.777.777,0,0,0-.3-1h0c-2.1-1.1-4-2.3-5.9-3.5-1.9-1.3-3.8-2.7-5.6-4.1-.2-.2-.5-.4-.7-.6l.6.4c.7.4,1.3.8,2,1.2l4.1,2.3c1.3.8,2.7,1.5,4.1,2.2l2.1,1.1a19.987,19.987,0,0,0,2.1,1l4.2,2.1c.3.2.7,0,1-.3a.714.714,0,0,0-.3-1h0l-4-2.4c-.7-.4-1.3-.8-2-1.2l-1.9-1.2c-1.3-.8-2.6-1.6-3.9-2.5l-3.8-2.6c-.6-.4-1.3-.9-1.9-1.3l-1.9-1.3c-1.3-.9-2.5-1.8-3.8-2.7l-3.7-2.7-3.7-2.8c-1.1-.9-2.2-1.7-3.3-2.6-.2-.2-.4-.5-.6-.7.1.1.3.2.4.3q7.8,5.1,15.3,10.2c5.1,3.5,10.1,7,14.9,10.8h0a.769.769,0,0,0,1-.1.668.668,0,0,0,0-1c-1.8-1.6-3.6-3.2-5.5-4.7.3,0,.5,0,.7-.3a.44.44,0,0,0,.1-.5c1.3,1.2,2.6,2.4,3.8,3.6a178.779,178.779,0,0,1,14.3,15.8h0a.668.668,0,0,0,1,.1.775.775,0,0,0,.2-1,168.194,168.194,0,0,0-13.5-16.8c-4.6-5-9.3-9.7-14.3-14.4.6.5,1.2.9,1.7,1.4a152.377,152.377,0,0,1,12.6,11.4h0a.668.668,0,0,0,1,0,.769.769,0,0,0,.1-1,117.459,117.459,0,0,0-9-9.7c2.5,2,5,4,7.5,6.1,1,.9,1.9,1.7,2.9,2.6a17.1,17.1,0,0,1,1.3,2.3,59.19,59.19,0,0,1,4.2,9.7h0a.728.728,0,0,0,1.4-.4,73.248,73.248,0,0,0-2.5-7.5,15.915,15.915,0,0,1,1.3,1.3c2.8,2.8,5.5,5.6,8.1,8.6h0a.769.769,0,0,0,1,.1.675.675,0,0,0,.1-1c-2.4-3.1-5-6.2-7.7-9.1-1.9-2.1-3.9-4.1-5.9-6.2-1.2-2-2.4-4-3.8-5.9a95.455,95.455,0,0,0-7.1-8.4c-1.2-1.2-2.3-2.3-3.5-3.4,3.5,2.2,6.9,4.7,10.3,7.2l2.9,2.4a33.29,33.29,0,0,1,2.8,2.5l1.4,1.3,1.3,1.3,2.7,2.7h0a.668.668,0,0,0,1,0,.769.769,0,0,0,.1-1l-2.5-2.9a17.383,17.383,0,0,0-1.3-1.5l-1.3-1.4c-.9-.9-1.8-1.9-2.7-2.8l-2.8-2.7a123.848,123.848,0,0,0-11.9-9.8c-2.4-1.7-4.8-3.4-7.2-5,1.4.6,2.8,1.3,4.1,2,3.4,1.7,6.8,3.6,10.1,5.6a105.991,105.991,0,0,1,9.5,6.5l2.3,1.8,2.2,1.9c.7.6,1.5,1.3,2.2,1.9l1.1,1,.5.5.5.5,2.1,2.1c.7.7,1.3,1.4,2,2.1l1,1.1c.3.4.6.7.9,1.1l1.8,2.2h0a.769.769,0,0,0,1,.1.668.668,0,0,0,.1-1l-1.3-1.9-.9-1.2-.9-1.2c-.6-.7-1.2-1.5-1.9-2.3l-2-2.2-.5-.6-.5-.5-1-1-2.1-2.1-2.2-2-2.2-1.9c-2.1-1.8-4.2-3.5-6.4-5.1.9.6,1.9,1.2,2.8,1.9a67.007,67.007,0,0,1,10.8,9h0a.769.769,0,0,0,1,.1.675.675,0,0,0,.1-1,66.88,66.88,0,0,0-10.3-10.3c-1.1-.9-2.3-1.9-3.5-2.8,2.3,1.4,4.6,3,6.8,4.6h0a.769.769,0,0,0,1-.1.668.668,0,0,0,0-1,83.044,83.044,0,0,0-11.6-8.9,90.312,90.312,0,0,0-13-7,24.425,24.425,0,0,0-2.4-1c1.6.4,3.2.9,4.9,1.4l2.9.9,2.9,1c.7.3,1.5.6,2.2.9.6.5,1.3.9,1.9,1.4a87.715,87.715,0,0,1,9.7,8.6,25.034,25.034,0,0,1,2.2,2.4,25.247,25.247,0,0,1,2.1,2.5,64.055,64.055,0,0,1,3.9,5.2h0a.651.651,0,0,0,.9.2.777.777,0,0,0,.3-1c-1.1-1.9-2.2-3.9-3.5-5.7-.6-.9-1.3-1.8-1.9-2.8-.7-.9-1.3-1.8-2.1-2.7-.8-1-1.6-1.9-2.4-2.8.1,0,.2.1.3.1l2.7,1.5c1.2.7,2.5,1.5,3.7,2.3.8,1.6,1.5,3.2,2.2,4.8h0a.751.751,0,0,0,.9.4.631.631,0,0,0,.4-.9c-.3-.8-.6-1.6-.9-2.5a132.1,132.1,0,0,1,13.2,10.5h0a.707.707,0,0,0,1-1,116.783,116.783,0,0,0-16-13.7,9.25,9.25,0,0,0-.5-1,34.709,34.709,0,0,0-2.1-3.7,9.223,9.223,0,0,1-.5-.8,118.643,118.643,0,0,1,16.8,12.3h0a.76.76,0,0,0,1,0,.668.668,0,0,0,0-1,127.1,127.1,0,0,0-18.1-14.6,8.342,8.342,0,0,0-1.2-.8l-.5-.3a18.66,18.66,0,0,1,2.2.7c2.5.9,5,1.8,7.5,2.9h0a.806.806,0,0,0,.9-.3.777.777,0,0,0-.3-1,71.2,71.2,0,0,0-7.4-3.5c-2.5-1-5-2.1-7.6-2.9l-.9-.3a44.076,44.076,0,0,0-6.4-5c-1.2-.8-2.4-1.6-3.7-2.3a.367.367,0,0,1,.3.1,72.65,72.65,0,0,1,24.4,11.8l2.7,2.1,1.3,1.1.7.6.6.6c1.7,1.5,3.3,3.1,4.9,4.8a98.455,98.455,0,0,1,8.5,10.8h0a.751.751,0,0,0,1,.2.959.959,0,0,0,.3-1,83.044,83.044,0,0,0-8.2-11.5c-1.5-1.8-3.1-3.5-4.8-5.2l-.6-.6-.6-.6-1.3-1.2c-.9-.8-1.8-1.6-2.7-2.3a73.5,73.5,0,0,0-19.1-11.3c.1,0,.1,0,.2.1a74.122,74.122,0,0,1,7.9,2.8q3.9,1.65,7.5,3.6a52.505,52.505,0,0,1,6.9,4.7,47.109,47.109,0,0,1,6,5.8h0a.769.769,0,0,0,1,.1.675.675,0,0,0,.1-1,59.8,59.8,0,0,0-5.8-6.5,70.016,70.016,0,0,0-6.8-5.4,81.525,81.525,0,0,0-7.5-4.4c-1.6-.8-3.1-1.5-4.7-2.2,1.8.3,3.6.7,5.4,1,.9.2,1.9.4,2.8.6h.1a73.17,73.17,0,0,1,10.4,6.2c.5.3,1,.7,1.5,1a17.1,17.1,0,0,1,1.4,1.1c.9.7,1.9,1.5,2.8,2.3,1.8,1.5,3.5,3.2,5.2,4.9a98.541,98.541,0,0,1,9.2,11.1h0a.775.775,0,0,0,1,.2C157.515,94.808,157.615,94.408,157.315,94.008Zm-113.3,23.5c-11.1-11.9-7-33.6-5.2-42.9.2-1.2.4-2.2.5-2.9.6-3.8-1.8-11.2-4.6-19.6-3.2-10.2-7.3-22.8-4.4-25.6a2.531,2.531,0,0,1,2.1-.6c6.6.9,19.1,18.5,25.2,28a3.362,3.362,0,0,0-.7,3.8c-.3.1-.6.1-.9.2a12.09,12.09,0,0,0-1.8.5l-.9.3c-.3.1-.6.2-1,.3h-.1a3.25,3.25,0,0,0-1.9,4.3,3.178,3.178,0,0,0,1.6,1.8l-.8.2a3.178,3.178,0,0,0-.9.3h-.1a3.361,3.361,0,0,0-2.1,4.2,3.208,3.208,0,0,0,2.8,2.2h-.3a3.291,3.291,0,0,0-2.7,3.8,3.247,3.247,0,0,0,2,2.5h0a3.278,3.278,0,0,0-1.8,4,3.292,3.292,0,0,0-.6,5.9l.4.3.7.4a3.3,3.3,0,0,0,0,1.4,3.8,3.8,0,0,0-.7,3.7,3.87,3.87,0,0,0,3.8,2.6,4.253,4.253,0,0,0,.2,1.1l.1.4.1.3.3.7h0a3.779,3.779,0,0,0-.8,3.8,2.982,2.982,0,0,0,1.2,1.7,3.582,3.582,0,0,0,0,2.5,3.727,3.727,0,0,0,4.4,2.5,4.87,4.87,0,0,0,0,2.4,3.993,3.993,0,0,0,4,2.6l1.5,2.1a79.131,79.131,0,0,0,7.1,8.1l.7.7C58.615,126.208,49.715,123.508,44.015,117.508Zm8.5-45.8h-.3c.1,0,.2-.1.3-.1h0C52.415,71.608,52.515,71.608,52.515,71.708Zm23,47.2a115.612,115.612,0,0,0,10.5,10.5l-.4-.3-.7-.6-1.5-1.1c-1.9-1.5-3.8-3.1-5.6-4.8a49.771,49.771,0,0,1-4.9-5.4,48.894,48.894,0,0,1-4.1-6c0-.1-.1-.1-.1-.2l2.2,2.2C72.315,115.108,73.915,117.008,75.515,118.908Zm31.4-39.9c1.5.6,2.9,1.2,4.3,1.8l1.3.6c.4.2.9.4,1.3.6l2.5,1.2a39.672,39.672,0,0,1,2.9,2.9l.7.7.6.8c.4.5.8,1,1.2,1.6.1.1.1.2.2.3l-1.6-1a9.129,9.129,0,0,0-1.3-.8l-1.3-.8-2.7-1.5-2.8-1.5c-.2-.1-.5-.3-.7-.4a65.735,65.735,0,0,0-5.7-4.8C106.115,78.808,106.515,78.908,106.915,79.008Z" fill="#191919"/><path d="M40.915,74.908h0a44.891,44.891,0,0,1-7.7-6.1l-1.8-1.8-1.6-1.9-.4-.5-.4-.5-.8-1-.8-1-.7-1-.7-1a6.07,6.07,0,0,1-.7-1l-1.4-2.2c-.4-.7-.9-1.5-1.3-2.2s-.9-1.5-1.3-2.3c-.9-1.5-1.6-3.1-2.4-4.6-.7-1.6-1.5-3.2-2.1-4.8a141.866,141.866,0,0,1-6.6-20c-.9-3.4-1.7-6.9-2.4-10.4-.1-.3-.1-.7-.2-1a15.639,15.639,0,0,0,1.3-7.6,3.715,3.715,0,0,0-3.1-3.2,4.881,4.881,0,0,0-3.8,1.9,6.77,6.77,0,0,0-1.8,2.9,5.757,5.757,0,0,0,.9,4.9,6.963,6.963,0,0,0,3.5,2.3v.3c.4,3.6,1,7.2,1.6,10.8a160.256,160.256,0,0,0,5.3,21.2c.6,1.8,1.2,3.5,1.8,5.2.7,1.7,1.3,3.4,2.1,5.1a19.234,19.234,0,0,0,1.2,2.5c.4.8.8,1.7,1.2,2.5l1.3,2.5a7.459,7.459,0,0,0,.7,1.2l.7,1.2.7,1.2.8,1.2.8,1.2.4.6.4.6,1.7,2.3,1.9,2.2a49.826,49.826,0,0,0,8.6,7.9c.1.1.2.1.3.2a4.451,4.451,0,0,0,6.2-1.5A4.52,4.52,0,0,0,40.915,74.908Z" fill="#191919"/><path d="M54.915,46.008c.1,1.1.1,2.2.2,3.3a1.344,1.344,0,0,1,.7.6c2.1,3.2,4.9,6,7.2,9.1-.1-1.9-.2-3.8-.4-5.7-.3-2.8-.7-5.5-1.2-8.2s-1.1-5.4-1.8-8.1a105.347,105.347,0,0,0-5.1-15.6q-1.5-3.75-3.3-7.5c-.5-1.1-1.1-2.2-1.6-3.3a16.089,16.089,0,0,0,1.2-7.4,3.715,3.715,0,0,0-3.1-3.2,4.881,4.881,0,0,0-3.8,1.9,6.77,6.77,0,0,0-1.8,2.9,5.757,5.757,0,0,0,.9,4.9,6.242,6.242,0,0,0,4.1,2.4c.4,1,.8,2,1.2,3.1q1.35,3.75,2.4,7.5a117.344,117.344,0,0,1,3.3,15.4C54.415,40.808,54.715,43.408,54.915,46.008Z" fill="#191919"/></g></g>
      </g>
    </g>
</g>

              </svg>