<?xml version="1.0" encoding="UTF-8"?><svg version="1.1" xmlns="http://www.w3.org/2000/svg" xmlns:xlink="http://www.w3.org/1999/xlink" viewBox="0 0 900 650" width="900" height="650" x="0px" y="0px">
              
              <!-- ITEM 0 -->
<g>
    <defs>
        
        <clipPath id="clip-path-id-viewbox-item-0">
            <rect x="0.0" y="0.0" width="93.0" height="132.0"/>
        </clipPath>
    </defs>
    <g transform="translate(217.0 22.0) rotate(0.0 219.5 311.5) scale(4.720430107526882 4.71969696969697)">
      <g clip-path="url(#clip-path-id-viewbox-item-0)" transform="translate(-0.0 -0.0)">
      <g id="a17283e1-c9f3-4bda-b52a-e9fe520fb3d0-i0" data-name="Layer 2"><g id="a23073b1-6b86-45cd-829e-33a341eafc94-i0" data-name="lock_locked"><path d="M83.5,55.5H81v-18a34.5,34.5,0,0,0-69,0v18H9.5a8,8,0,0,0-8,8v59a8,8,0,0,0,8,8h74a8,8,0,0,0,8-8v-59A8,8,0,0,0,83.5,55.5ZM23,37.5a23.5,23.5,0,0,1,47,0v18H23Z" fill="#ffce31"/><path d="M16,55s-1-23,2-29,6-11,14-15A36.524,36.524,0,0,1,50,7c4,0,8-1,9-3A36.48,36.48,0,0,0,38,3C27,6,25,8,19,15s-7,9-8,17-.382,23.529-.382,23.529Z" fill="#fff"/><path d="M2,120c6,6,20,4,25,4,5.1,0,24.5.5,35.5.5s27,2,29-9c0,0,3.118,13.235-5.441,14.618S7.5,130.5,7.5,130.5,0,127,2,120Z" fill="#1a1a1a"/><path d="M2,73s4.54-7.953,10-10c8-3,20,0,34,0s28,0,35-1,7.059-1.912,7-5c0,0-4-1-13-1S9,55,9,55-3,59,2,73Z" fill="#fff"/><path d="M46.5,112a6.508,6.508,0,0,1-6.5-6.5V95.987A11.5,11.5,0,0,1,46.5,75a11.907,11.907,0,0,1,1.264.067A11.5,11.5,0,0,1,53,95.987V105.5A6.508,6.508,0,0,1,46.5,112Z" fill="#1a1a1a"/><path d="M84,54.025V37.5a37.5,37.5,0,0,0-75,0V54.025A9.5,9.5,0,0,0,0,63.5v59A9.511,9.511,0,0,0,9.5,132h74a9.511,9.511,0,0,0,9.5-9.5v-59A9.5,9.5,0,0,0,84,54.025ZM46.5,3A34.543,34.543,0,0,1,81,37.5V54H70V37.5a23.5,23.5,0,0,0-47,0V54H12V37.5A34.543,34.543,0,0,1,46.5,3ZM67,54H26V37.5a20.5,20.5,0,0,1,41,0Zm23,68.5a6.508,6.508,0,0,1-6.5,6.5H9.5A6.508,6.508,0,0,1,3,122.5v-59A6.508,6.508,0,0,1,9.5,57h74A6.508,6.508,0,0,1,90,63.5Z" fill="#1a1a1a"/></g></g>
      </g>
    </g>
</g>

              </svg>