<?xml version="1.0" encoding="UTF-8"?><svg version="1.1" xmlns="http://www.w3.org/2000/svg" xmlns:xlink="http://www.w3.org/1999/xlink" viewBox="0 0 1200 800" width="1200" height="800" x="0px" y="0px">
              
              <!-- ITEM 0 -->
<g>
    <defs>
        
        <clipPath id="clip-path-id-viewbox-item-0">
            <rect x="0.0" y="0.0" width="2000.0" height="2000.0"/>
        </clipPath>
    </defs>
    <g transform="translate(1601.0 -600.0) rotate(0.0 -1000.0 1000.0) scale(-1.0 1.0)">
      <g clip-path="url(#clip-path-id-viewbox-item-0)" transform="translate(-0.0 -0.0)">
      

<g>
	<path d="M589.407,1663.75c-0.265,0-0.535-0.036-0.803-0.11c-143.064-39.667-288.914-16.071-290.371-15.829   c-1.637,0.269-3.181-0.832-3.453-2.465c-0.273-1.634,0.831-3.18,2.465-3.453c0.368-0.062,37.422-6.15,91.759-7.206   c50.152-0.973,125.766,2.254,201.203,23.17c1.596,0.443,2.532,2.096,2.089,3.693   C591.928,1662.878,590.722,1663.749,589.407,1663.75z" style="fill:#1A1A1A;"/>
</g>
<g>
	<path d="M940.034,1597.116c0,0-626.966-64.503-637.391-440.46c-10.425-375.958,227.313-456.118,376.663-552.083   c77.44-49.759,183.476-70.568,288.974-133.213c170.325-101.14,392.87-63.46,501.653,47.636   c82.307,84.057,150.546,126.565-152.476,710.652C1261.004,1338.468,1139.591,1598.959,940.034,1597.116z" style="fill:#FECE2F;"/>
</g>
<g>
	<path d="M1754.346,676.233l-3.908-9.77l-13.892-111.135l-8.53,2.754l-9.331,7.169l-31.753,45.645l-11.907,7.938   l-1.984,17.861l1.984,23.815l6.403,16.887l9.474,8.912c0,0-73.429,261.962-377.498,165.362l50.045-44.304   c47.63-11.907,77.398-113.12,77.398-113.12c21.83-59.537-63.506-39.691-63.506-39.691c-21.83-3.969-21.83,13.892-39.691-11.907   s-61.521,17.861-61.521,17.861c0-27.784-31.753-17.861-31.753-17.861c-39.691,9.923,1.984,47.63,1.984,47.63l-11.907,19.845   c-19.846-19.845-53.583-1.985-53.583-1.985C1010.197,656.541,839.525,726,839.525,726   c-212.348,81.367-281.808,228.225-281.808,228.225l-3.969-9.923c-5.309-0.858-90.816-50.962-110.379-63.971   c-97.736-64.995-156.085-175.773-156.085-296.333c0-198.091,161.159-359.25,359.25-359.25c144.652,0,269.364,71.32,310.328,177.47   c16.973,43.982,26.967,86.153,24.304,102.552c-5.291,32.575-28.623,66.56-67.633,66.556c-1.273,0-2.569-0.036-3.876-0.11   c-18.001-1.017-34.529-8.982-46.54-22.43c-12.01-13.447-18.064-30.767-17.048-48.768c0.856-15.164-10.742-28.15-25.906-29.007   c-15.174-0.856-28.15,10.743-29.006,25.906c-3.808,67.439,47.96,125.403,115.399,129.21c32.255,1.826,63.111-9.387,86.895-31.559   c21.925-20.44,36.842-49.2,42.004-80.982c6.239-38.417-17-104.529-27.281-131.171c-25.303-65.567-75.282-120.434-144.535-158.671   c-63.067-34.821-140.169-53.998-217.104-53.998c-55.911,0-110.165,10.957-161.253,32.565   c-49.332,20.866-93.63,50.731-131.666,88.766s-67.9,82.334-88.766,131.666c-21.608,51.089-32.565,105.342-32.565,161.253   c0,68.821,16.924,136.839,48.943,196.703c31.419,58.744,76.956,109.032,131.687,145.428c11.57,7.694,95.19,67.787,95.19,67.787   c-57.552,67.475,5.954,109.151,5.954,109.151l27.784,17.861c3.353,12.715-37.542,82.625-130.981,168.688l-146.857,121.058   c0,0-9.923-23.815-89.305,11.907c0,0-49.614,13.892-25.799,41.676c0,0,11.907,21.83,69.459-17.861l5.954,3.969v23.815l7.938,71.444   l15.876,57.552l17.861,27.784l13.892,9.923l17.861,1.985c0,0,45.645-5.954,71.444-1.985c0,0,13.892,1.985,13.892,9.923   c0,0,10.143-2.548,7.099-12.705c3.049,4.908,6.715,9.767,8.777,8.736c0,0,7.938,9.923,5.954-13.892l7.938,7.938   c0,0,5.954,7.938,9.923,5.954c2.62-1.31,3.509-12.997,2.099-21.361c3.046,5.412,7.418,11.438,11.793,11.438   c0,0,17.861-17.861-29.768-51.599c0,0-13.892-5.954-55.568-19.846c0,0-33.737-25.799-43.66-53.583c0,0-27.784-45.645,67.475-95.259   c0,0,92.509-45.011,107.166-51.599c176.626-79.382,253.918-170.409,254.024-170.672l-5.954-3.969c0,0,38.146,15.814,65.491,45.645   c65.491,71.444,101.213,103.197,100.389,329.849c0,0-22.991,96.832,74.252,84.924c0,0,17.861,0,41.676-7.938   c23.815-7.938,97.244-5.954,142.888,13.892c0,0,59.537,27.784,63.506,31.753s15.876-17.861-11.907-33.737   c0,0,5.954-17.861-13.892-25.799c0,0,5.954-11.907-33.738-21.83c0,0-5.954-43.66-117.089-35.722c0,0,39.691-27.784,21.83-49.614   c0,0,1.985-7.938-77.398,53.583h-11.907l9.923-103.197l7.938-83.352c0.044,0.068-19.846-99.228-19.846-99.228   s39.691,160.749,170.672,216.317c50.135,21.27,161.368,53.621,210.364,77.398c12.506,6.069,47.63,29.769,47.63,29.769   l35.722,39.691c0.079,0.2,2.05,2.074,2.13,2.274l7.793,7.649l15.829,31.658c0.03,0.066,0.061,0.134,0.091,0.2   c7.233,17.303,14.457,20.921,17.832,21.614c1.253,0.257,2.274,1.156,2.717,2.356c5.003,13.562,13.2,8.819,16.077,6.584   c0.658-0.511,4.173,3.048,5.006,3.079c8.899,0.327,6.539-18.057,5.954-21.83c-0.101-0.651,1.742-3.357,1.984-3.969   c10.44-26.387-11.724-64.784-13.72-69.094c-0.119-0.257-0.201-0.512-0.256-0.79c-0.639-3.197,1.421-3.483,4.054-1.561   c19.971,14.581,26.352,6.285,27.475,1.545c-0.887-1.667-1.433-2.694-2.32-4.361c-14.232-5.421-27.755-24.937-29.027-26.807   c-0.069-0.102-0.085-0.227-0.181-0.306c-69.376-57.391-122.959-87.159-122.959-87.159l-97.244-73.429   c-101.213-83.352-115.104-127.012-115.104-127.012c-31.753-53.583-19.846-192.502,29.768-283.792   c93.274,25.799,119.074,39.691,232.194,27.784c85.556-9.006,184.39-70.756,232.174-152.487c0,0,69.48-85.661,98.2-228.886   L1754.346,676.233z M956.614,1156.65c-16.217-40.932-32.368-63.312-38.321-65.67c32.623-4.234,32.368-9.743,32.368-9.743   C954.629,1122.912,958.776,1145.751,956.614,1156.65z" style="fill:#FFFFFF;"/>
</g>
<g>
	<path d="M1926.962,597.414c-4.035-4.489-36.622,38.447-137.648,12.663   c-131.895-33.663-128.645-134.066-126.026-144.328c4.036-15.812,2.566-29.84-3.282-31.332   c-5.848-1.493-13.861,10.116-17.896,25.927c-0.325,1.272-0.61,2.531-0.864,3.774c-0.491,1.691-0.965,3.392-1.404,5.111   c-22.172,86.873,30.279,175.271,117.151,197.443c53.323,13.609,107.213-0.904,146.016-34.228c3.047-1.971,6.197-4.374,9.284-7.149   C1924.43,614.385,1930.997,601.903,1926.962,597.414z" style="fill:#FECE2F;"/>
</g>
<g>
	<path d="M1797.237,673.446c-13.614,0-27.31-1.682-40.781-5.121c-42.792-10.921-78.77-37.854-101.306-75.834   c-22.536-37.981-28.932-82.465-18.01-125.257c0.391-1.535,0.835-3.154,1.396-5.088c0.268-1.301,0.561-2.578,0.872-3.797   c2.038-7.982,5.129-15.232,8.706-20.415c5.313-7.696,9.912-8.424,12.838-7.677c8.86,2.261,9.447,19.31,5.447,34.981   c-1.021,4.001-2.982,30.75,12.345,61.302c13.364,26.638,43.559,62.033,111.516,79.377c77.469,19.771,114.242-1.579,128.085-9.617   c5.136-2.981,8.529-4.952,11.051-2.145l0,0c2.018,2.244,3.509,6.657-0.846,14.935c-2.932,5.572-7.92,11.674-14.048,17.182   c-3.076,2.765-6.268,5.229-9.488,7.326C1874.676,659.591,1836.303,673.446,1797.237,673.446z M1659.176,436.036   c-1.239,0-3.557,1.587-6.124,5.306c-3.184,4.612-5.964,11.179-7.831,18.49c-0.297,1.163-0.577,2.385-0.831,3.633l-0.058,0.236   c-0.558,1.921-0.996,3.515-1.378,5.016c-10.525,41.24-4.361,84.109,17.357,120.712c21.718,36.603,56.39,62.558,97.629,73.083   c50.297,12.836,103.875,0.278,143.32-33.597l0.325-0.243c3.014-1.95,6.011-4.258,8.908-6.862   c5.612-5.044,10.139-10.554,12.749-15.513c1.681-3.195,2.23-5.618,2.09-7.023c-1.056,0.522-2.578,1.406-3.973,2.216   c-14.425,8.374-52.74,30.619-132.582,10.241c-70.149-17.903-101.472-54.746-115.396-82.5   c-16.077-32.047-14.137-60.219-12.795-65.476c4.248-16.644,1.49-27.019-1.118-27.684   C1659.379,436.047,1659.281,436.036,1659.176,436.036z" style="fill:#1A1A1A;"/>
</g>
<g>
	<path d="M885.172,1685.559c-1.028,0-2.03-0.529-2.589-1.479c-0.84-1.428-0.363-3.267,1.065-4.107   c33.795-19.879,84.163-29.72,86.291-30.128c1.627-0.313,3.2,0.752,3.512,2.379c0.313,1.627-0.752,3.2-2.379,3.513   c-0.511,0.099-51.491,10.061-84.382,29.409C886.213,1685.425,885.689,1685.559,885.172,1685.559z" style="fill:#1A1A1A;"/>
</g>
<g>
	
		<ellipse transform="matrix(0.1399 -0.9902 0.9902 0.1399 -238.9621 1659.1466)" cx="835.555" cy="967.124" rx="22.822" ry="13.892" style="fill:#1A1A1A;"/>
</g>
<g>
	
		<ellipse transform="matrix(0.1399 -0.9902 0.9902 0.1399 -306.1006 2010.5194)" cx="1004.243" cy="1181.457" rx="22.822" ry="13.892" style="fill:#1A1A1A;"/>
</g>
<g>
	
		<ellipse transform="matrix(0.1399 -0.9902 0.9902 0.1399 -340.8971 2085.5649)" cx="1030.042" cy="1239.009" rx="22.822" ry="13.892" style="fill:#1A1A1A;"/>
</g>
<g>
	<path d="M1325.434,1477.394c-6.876,10.564-17.662,15.735-24.093,11.55s-4.391-19.739,2.485-30.303"/>
</g>
<g>
	
		<ellipse transform="matrix(0.1399 -0.9902 0.9902 0.1399 -426.2262 2118.3118)" cx="1006.228" cy="1304.5" rx="22.822" ry="13.892" style="fill:#1A1A1A;"/>
</g>
<g>
	
		<ellipse transform="matrix(0.1399 -0.9902 0.9902 0.1399 -391.9615 1919.6113)" cx="908.984" cy="1185.426" rx="22.822" ry="13.892" style="fill:#1A1A1A;"/>
</g>
<g>
	
		<ellipse transform="matrix(0.1399 -0.9902 0.9902 0.1399 -569.4094 1425.5806)" cx="535.887" cy="1040.553" rx="22.822" ry="13.892" style="fill:#1A1A1A;"/>
</g>
<g>
	
		<ellipse transform="matrix(0.1399 -0.9902 0.9902 0.1399 -117.1719 1632.6531)" cx="881.2" cy="883.773" rx="22.822" ry="13.892" style="fill:#1A1A1A;"/>
</g>
<g>
	
		<ellipse transform="matrix(0.1399 -0.9902 0.9902 0.1399 222.1837 1975.7028)" cx="1248.344" cy="859.958" rx="22.822" ry="13.892" style="fill:#1A1A1A;"/>
</g>
<g>
	
		<ellipse transform="matrix(0.1399 -0.9902 0.9902 0.1399 -461.7705 1994.0403)" cx="916.922" cy="1262.824" rx="22.822" ry="13.892" style="fill:#1A1A1A;"/>
</g>
<g>
	
		<ellipse transform="matrix(0.1399 -0.9902 0.9902 0.1399 -612.2463 2166.1204)" cx="940.737" cy="1435.481" rx="22.822" ry="13.892" style="fill:#1A1A1A;"/>
</g>
<g>
	
		<ellipse transform="matrix(0.1399 -0.9902 0.9902 0.1399 -426.6046 1546.3226)" cx="676.791" cy="1018.723" rx="22.822" ry="13.892" style="fill:#1A1A1A;"/>
</g>
<g>
	
		<ellipse transform="matrix(0.1399 -0.9902 0.9902 0.1399 -445.9546 1480.3859)" cx="629.161" cy="996.893" rx="22.822" ry="13.892" style="fill:#1A1A1A;"/>
</g>
<g>
	
		<ellipse transform="matrix(0.1399 -0.9902 0.9902 0.1399 24.5581 1847.4166)" cx="1075.687" cy="909.572" rx="22.822" ry="13.892" style="fill:#1A1A1A;"/>
</g>
<g>
	
		<ellipse transform="matrix(0.1399 -0.9902 0.9902 0.1399 83.5249 1927.2089)" cx="1151.101" cy="915.526" rx="22.822" ry="13.892" style="fill:#1A1A1A;"/>
</g>
<g>
	
		<ellipse transform="matrix(0.1399 -0.9902 0.9902 0.1399 -10.7548 1929.8059)" cx="1105.456" cy="971.094" rx="22.822" ry="13.892" style="fill:#1A1A1A;"/>
</g>
<g>
	<path d="M741.716,774.539c2.38,4.564,3.388,11.006,2.413,17.903c-1.764,12.481-9.352,21.728-16.948,20.654   c-7.597-1.073-12.326-10.077-10.562-22.557"/>
</g>
<g>
	<ellipse transform="matrix(0.1399 -0.9902 0.9902 0.1399 29.948 1508.308)" cx="883.185" cy="736.915" rx="22.822" ry="13.892"/>
</g>
<g>
	<path d="M555.732,940.333c0,0-17.861,67.475,23.815,31.753c322.4-276.343,434.619-228.225,571.554-228.225   c15.822,0,41.676-47.629,41.676-47.629S791.895,608.911,555.732,940.333z" style="fill:#FECE2F;"/>
</g>
<g>
	<path d="M1244.375,785.537c0,0,3.969-7.938-9.923,3.969c0,0-7.938,9.923-35.722,3.969   c-41.664-8.928-39.691-27.784-21.83-59.537c17.861-31.753,73.429-1.985,73.429-1.985s15.876,3.969,19.846-15.876   c2.752-13.76,21.83-61.521,61.521-51.599c0,0,21.83,3.969,25.799,17.861s27.784-35.722,79.382-23.815   c51.599,11.907-91.29-47.629-91.29-47.629l-51.599,27.784l-57.552,67.475c0,0-39.691-29.768-75.301,25.275   c-10.917,16.875-35.834,58.077,35.61,77.922C1196.746,809.352,1234.452,821.259,1244.375,785.537z" style="fill:#FECE2F;"/>
</g>
<g>
	<path d="M972.49,1293.585c0,0-7.938,261.962-21.83,325.468c0,0,69.46-41.676,188.533-17.861l23.815,3.969   c0,0-5.954-55.568-186.549-27.784c0,0,23.815-162.734,19.846-212.348C996.305,1365.029,972.49,1297.554,972.49,1293.585z" style="fill:#FECE2F;"/>
</g>
<g>
	<path d="M1224.006,776.743c-9.637,0-30.314-1.384-35.198-12.92c-3.626-8.567,2.201-19.713,17.813-34.077   c1.219-1.122,3.117-1.042,4.239,0.177c1.122,1.219,1.042,3.117-0.177,4.239c-12.955,11.917-18.761,21.62-16.351,27.32   c3.732,8.827,26.361,9.583,33.995,9.152c1.647-0.104,3.07,1.171,3.165,2.825c0.094,1.654-1.17,3.07-2.824,3.165   C1228.002,776.663,1226.323,776.743,1224.006,776.743z" style="fill:#1A1A1A;"/>
</g>
<g>
	<path d="M1192.59,765.66c-1.208,0-2.347-0.735-2.803-1.931c-0.591-1.548,0.185-3.282,1.733-3.873l18.048-6.89   c1.547-0.59,3.282,0.185,3.873,1.733c0.591,1.548-0.185,3.282-1.733,3.873l-18.048,6.89   C1193.307,765.596,1192.946,765.66,1192.59,765.66z" style="fill:#1A1A1A;"/>
</g>
<g>
	<path d="M1324.75,707.17c-20.044,0-35.746-10.359-35.746-23.583c0-13.224,15.701-23.583,35.746-23.583   c20.044,0,35.745,10.359,35.745,23.583C1360.495,696.811,1344.794,707.17,1324.75,707.17z M1324.75,666.004   c-16.124,0-29.746,8.052-29.746,17.583s13.622,17.583,29.746,17.583c16.124,0,29.745-8.052,29.745-17.583   S1340.873,666.004,1324.75,666.004z" style="fill:#1A1A1A;"/>
</g>
<g>
	<path d="M1318.515,663.693c0,0-8.65,30.18,31.042,32.352C1349.557,696.045,1379.325,666.464,1318.515,663.693z" style="fill:#1A1A1A;"/>
</g>
<g>
	<path d="M1413.063,702.186c0,0-35.722-11.907,7.938-23.815c0,0,3.834,14.862-13.892,11.907   C1395.202,688.294,1413.063,702.186,1413.063,702.186z" style="fill:#1A1A1A;"/>
</g>
<path d="M1389.081,752.773c-5.563,0.311-11.289-0.129-17.023-1.302c-25.498-5.215-44.012-23.441-44.195-23.623  l-5.906-5.906l0.798,8.314c0.492,5.12,5.301,50.153,22.569,54.894c1.023,0.281,2.057,0.421,3.102,0.421  c5.856,0,12.042-4.407,18.436-13.146c2.765-3.779,8.742-12.616,8.995-12.991c0.246-0.364,0.402-0.763,0.472-1.17  c4.406,0.571,8.788,0.738,13.086,0.5c1.654-0.092,2.921-1.508,2.829-3.162S1390.745,752.689,1389.081,752.773z" style="fill:#1A1A1A;"/>
<g>
	<path d="M919.674,1092.466l-0.457-1.947c2.421-0.568,4.611-1.076,6.608-1.538c14.084-3.263,18.335-4.247,26.339-8.621l0.959,1.755   c-8.245,4.505-12.933,5.591-26.847,8.814C924.282,1091.391,922.094,1091.898,919.674,1092.466z"/>
</g>
<path d="M986.382,1575.392c58.548-44.464,55.874-41.859,65.49-47.63c9.923-5.954,24.721-13.078,13.892,19.846  c-3.064,9.314-3.896,17.167-31.68,23.121" style="fill:#FECE2F;"/>
<g>
	<path d="M863.337,1407.72c-1.605,0-2.936-1.271-2.996-2.889c-2.179-58.845-42.507-124.163-113.553-183.921   c-1.047-0.881-1.854-1.561-2.393-2.03c-0.707-0.616-2.859-2.49-1.238-4.761c0.494-0.692,1.936-2.126,4.637-0.505   c0.523,0.313,0.916,0.761,1.161,1.273c0.486,0.414,1.083,0.916,1.695,1.431c72.359,60.862,113.444,127.731,115.687,188.291   c0.061,1.656-1.231,3.047-2.887,3.109C863.412,1407.72,863.375,1407.72,863.337,1407.72z" style="fill:#1A1A1A;"/>
</g>
<g>
	<path d="M393,1274.754c-0.859,0-1.713-0.368-2.306-1.08c-1.061-1.272-0.889-3.165,0.384-4.225   c58.531-48.776,115.949-133.473,116.522-134.323c0.926-1.374,2.791-1.736,4.165-0.81c1.374,0.926,1.736,2.791,0.81,4.165   c-0.578,0.857-58.476,86.261-117.656,135.578C394.358,1274.526,393.677,1274.754,393,1274.754z" style="fill:#1A1A1A;"/>
</g>
<path d="M1726.623,571.205c-5.901,9.332-7.962,17.605-9.923,25.799c-0.775,3.237-0.51,18.638,11.907,5.954  c7.297-7.454,16.117-27.423,17.861-37.707c0.501-2.954,0-11.907-7.938-9.923" style="fill:#FFFFFF;"/>
<path d="M1764.33,585.096c-7.084,7.656-15.434,27.562-17.861,37.707c-0.775,3.237-0.51,18.638,11.907,5.954  c7.297-7.454,16.117-27.423,17.861-37.707C1776.794,587.769,1774.049,574.593,1764.33,585.096z" style="fill:#FFFFFF;"/>
<path d="M1776.794,600.496c-6.638,8.046-9.561,15.179-11.408,25.445c-0.589,3.276,0.549,18.637,12.226,5.268  c6.862-7.856,8.548-14.36,11.408-25.445C1789.851,602.542,1785.901,589.457,1776.794,600.496z" style="fill:#FFFFFF;"/>
<path d="M1754.452,564.109c-7.428,7.323-22.668,39.361-25.559,49.383c-0.922,3.198-1.365,18.595,11.621,6.494  c7.631-7.111,23.345-39.19,25.559-49.383C1766.78,567.35,1764.643,554.062,1754.452,564.109z" style="fill:#FFFFFF;"/>
<path d="M1786.487,593.902c-1.898-0.968-4.641-1.361-7.986,0.899c0.29-1.156,0.524-2.246,0.694-3.25  c0.451-2.656-0.492-10.352-5.393-12.764c-1.739-0.855-4.289-1.2-7.535,0.772c1.329-3.396,2.298-6.294,2.739-8.321  c0.572-2.632-0.017-10.363-4.802-12.998c-2.363-1.301-6.338-1.709-11.857,3.731c-0.869,0.857-1.838,2.037-2.871,3.448  c0.377-2.721,0.156-8.144-3.211-11.261c-1.479-1.37-4.12-2.773-8.316-1.773c-0.002,0-0.004,0-0.006,0  c-0.013,0.003-0.026,0.007-0.039,0.009c-0.034,0.008-0.066,0.013-0.101,0.022c-0.006,0.001-0.011,0.004-0.016,0.006  c-11.521,2.37-20.386,11.384-25.802,18.551c-0.999,1.322-0.737,3.203,0.585,4.202c0.542,0.409,1.176,0.606,1.806,0.606  c0.909,0,1.806-0.411,2.396-1.191c4.813-6.37,12.597-14.372,22.347-16.322c0.024-0.005,0.045-0.016,0.068-0.021  s0.047-0.004,0.071-0.01c2.031-0.509,2.708,0.117,2.93,0.323c1.366,1.264,1.584,4.648,1.323,6.188  c-1.674,9.874-10.242,29.158-17.047,36.109c-4.161,4.25-5.805,4.027-5.819,4.024c-0.901-0.416-1.553-4.98-1.027-7.181  c1.856-7.756,3.775-15.776,9.541-24.894c0.885-1.4,0.468-3.253-0.932-4.139c-1.4-0.885-3.253-0.469-4.139,0.932  c-6.298,9.959-8.427,18.856-10.305,26.705c-0.631,2.635-0.88,11.155,3.958,13.829c0.981,0.542,1.986,0.771,2.982,0.771  c2.523,0,4.993-1.463,6.924-2.994c-0.712,1.864-1.272,3.479-1.638,4.75c-0.751,2.604-1.392,11.103,3.319,13.996  c1.054,0.646,2.152,0.914,3.25,0.914c4.196,0,8.382-3.9,9.98-5.389c0.421-0.393,0.867-0.866,1.325-1.382  c-0.119,0.449-0.232,0.888-0.332,1.306c-0.631,2.635-0.88,11.155,3.958,13.829c0.982,0.542,1.986,0.771,2.983,0.771  c4.302,0,8.463-4.25,10.027-5.849c0.584-0.597,1.178-1.276,1.776-2.011c0.182,3.597,1.312,8.435,4.875,10.147  c0.888,0.427,1.779,0.61,2.657,0.61c4.436,0,8.53-4.687,10.043-6.419c7.342-8.406,9.116-15.28,12.054-26.669  C1792.695,603.527,1791.177,596.292,1786.487,593.902z M1738.469,617.791c-4.35,4.052-5.986,3.761-5.999,3.753  c-0.881-0.457-1.323-5.045-0.696-7.221c2.692-9.333,17.837-41.231,24.783-48.079v0c2.398-2.364,4.144-3.082,4.751-2.748  c1.379,0.759,2.148,5.015,1.833,6.468C1760.93,580.147,1745.315,611.412,1738.469,617.791z M1756.233,626.658  c-4.156,4.245-5.807,4.032-5.82,4.024c-0.9-0.416-1.553-4.98-1.026-7.181c2.318-9.688,10.539-29.228,17.146-36.367  c1.98-2.141,3.529-3.025,4.313-3.025c0.121,0,0.224,0.021,0.308,0.063c1.413,0.695,2.376,4.911,2.127,6.377  C1771.605,600.422,1763.038,619.707,1756.233,626.658z M1786.115,605.015c-2.809,10.888-4.356,16.886-10.763,24.221  c-3.91,4.476-5.567,4.351-5.582,4.349c-0.923-0.365-1.833-4.884-1.433-7.112c1.848-10.268,4.767-16.791,10.77-24.067  c2.346-2.843,3.956-3.486,4.624-3.172C1785.306,599.974,1786.323,603.93,1786.115,605.015z" style="fill:#1A1A1A;"/>
<g>
	
		<ellipse transform="matrix(0.1399 -0.9902 0.9902 0.1399 -340.9751 1430.5699)" cx="652.976" cy="911.557" rx="22.822" ry="13.892" style="fill:#1A1A1A;"/>
</g>
<g>
	<path d="M1313.835,849.043c0,0-363.538,313.923-152.811,535.831c61.088,64.33,224.255,176.626,285.777,198.456   c0,0,42.668,12.9,64.498,42.668c0,0,9.923,13.892,21.83,9.923s-19.846-15.876-19.846-15.876l-8.706-10.503l-7.414-13.48   c0,0-134.145-89.661-186.025-130.082s-51.879-40.421-51.879-40.421s-75.413-63.506-97.244-115.105   c-21.83-51.599-28.795-148.542,35.217-286.619C1197.232,1023.834,1217.583,959.186,1313.835,849.043z" style="fill:#FECE2F;"/>
</g>
<g>
	
		<ellipse transform="matrix(0.1399 -0.9902 0.9902 0.1399 -379.3497 2515.6887)" cx="1258.404" cy="1476.205" rx="22.822" ry="13.892" style="fill:#1A1A1A;"/>
</g>
<g>
	
		<ellipse transform="matrix(0.1399 -0.9902 0.9902 0.1399 -372.896 2423.8904)" cx="1208.79" cy="1426.591" rx="22.822" ry="13.892" style="fill:#1A1A1A;"/>
</g>
<g>
	<path d="M863.339,989.947c0,0-14.482,43.814,13.892,87.321c29.768,45.645,79.382,87.321,91.29,190.518l-9.923-97.244   c0,0,0-35.722-71.444-117.089C860.287,1022.854,863.339,989.947,863.339,989.947z" style="fill:#FECE2F;"/>
</g>
<g>
	<path d="M1281.932,888.809c0,0,310.752,130.382,422.375-196.809l-11.421-3.707c0,0-89.661,265.238-377.067,162.734   L1281.932,888.809z" style="fill:#FECE2F;"/>
</g>
<path d="M1706.778,690.278c-35.722-1.985-31.753-51.599-31.753-65.49c0-10.77,9.923-11.907,18.903-20.193  c13.152-12.136,17.691,6.275,16.232,9.329c-4.572,9.572-5.143,17.603-17.274,22.772l9.923,19.846" style="fill:#FFFFFF;"/>
<g>
	
		<ellipse transform="matrix(0.1399 -0.9902 0.9902 0.1399 277.5944 2158.5671)" cx="1381.31" cy="919.495" rx="22.822" ry="13.892" style="fill:#1A1A1A;"/>
</g>
<g>
	
		<ellipse transform="matrix(0.1399 -0.9902 0.9902 0.1399 265.0719 2100.4907)" cx="1341.619" cy="897.665" rx="22.822" ry="13.892" style="fill:#1A1A1A;"/>
</g>
<g>
	<path d="M635.115,1158.635c0,0,23.815,37.707-105.182,128.996c-139.126,98.459-224.255,136.935-230.209,182.58   c-3.425,26.255,25.799,67.475,25.799,67.475s-71.014-61.802,62.233-127.648c133.246-65.846,240.413-95.615,266.212-174.997   C679.767,1155.658,635.115,1158.635,635.115,1158.635z" style="fill:#FECE2F;"/>
</g>
<g>
	
		<ellipse transform="matrix(0.1399 -0.9902 0.9902 0.1399 147.3653 1675.2363)" cx="1037.981" cy="752.792" rx="22.822" ry="13.892" style="fill:#1A1A1A;"/>
</g>
<g>
	<path d="M1376.147,1087.324c-21.594,0-44.314-1.877-67.868-5.617c-57.92-9.198-101.477-26.758-101.91-26.934   c-1.535-0.625-2.272-2.375-1.648-3.909c0.625-1.535,2.375-2.271,3.909-1.648c0.428,0.174,43.455,17.509,100.725,26.587   c52.648,8.346,128.473,11.225,190.717-22.447c1.456-0.789,3.277-0.247,4.066,1.211c0.788,1.457,0.246,3.277-1.211,4.066   c-28.195,15.253-61.366,24.529-98.589,27.57C1395.183,1086.95,1385.776,1087.324,1376.147,1087.324z" style="fill:#1A1A1A;"/>
</g>
<g>
	<path d="M794.085,506.937c0,0,16.618,53.552,49.925,83.547c34.525,31.092,94.649,39.842,154.868-20.377   c12.226-12.226,52.304-58.555,0-172.189c-15.206-33.035-31.585-60.113-73.359-101.887c-34.838-34.838-91.956-69.862-154.868-88.642   c-61.348-18.312-139.41-27.15-245.547,1.019c0,0-202.415,39.057-268.981,309.396c-11.811,47.968-6.402,98.637,3.057,140.943   c43.848,196.125,267.283,319.585,267.283,319.585l-13.585,16.302c0,0-135.19-63.436-217.019-194.264   c-47.587-76.082-76.439-183.178-51.962-300.566c0,0,5.721-43.931,31.585-97.811c35.959-74.91,108.371-170.774,236.377-209.887   c220.075-67.245,381.057,43.811,382.075,54c0,0,176.26,128.717,136.528,282.226c-22.415,86.604-100.974,113.684-162,86.604   C826.324,596.239,792.42,552.438,794.085,506.937z" style="fill:#FECE2F;"/>
</g>
<path d="M1759.972,667.239l-12.679-2.717c-18.113,138.566-99.361,221.104-149.666,267.873  c-162.924,151.471-351.422,56.493-373.026,44.801c2.791-5.238,5.622-10.427,8.498-15.548c25.907-46.138,55.757-82.347,81.591-107.84  c1.005,0.422,30.511,12.702,72.824,19.251c14.938,2.312,32.67,4.071,52.067,4.071c32.002,0,68.518-4.792,104.37-19.795  c66.123-27.669,116.139-83.469,148.659-165.847c0.225-0.57,0.4-1.12,0.551-1.651c3.781,1.923,8.222,3.147,13.45,3.437  c0.057,0.003,0.113,0.004,0.169,0.004c1.581,0,2.904-1.236,2.993-2.833c0.092-1.654-1.175-3.07-2.829-3.162  c-30.033-1.668-29.29-41.529-28.972-58.551c0.028-1.51,0.053-2.839,0.053-3.944c0-5.375,2.857-7.444,8.802-11.253  c2.817-1.805,6.01-3.851,9.136-6.736c2.222-2.05,5.351-4.212,7.644-2.866c2.812,1.651,4.086,7.291,3.79,8.815  c-0.974,2.05-1.756,3.989-2.514,5.865c-2.747,6.807-4.731,11.724-13.173,15.321l-2.934,1.25l11.349,22.698  c0.74,1.481,2.542,2.082,4.025,1.341c1.482-0.741,2.083-2.543,1.341-4.025l-8.559-17.118c8.383-4.505,10.883-10.7,13.514-17.222  c0.738-1.827,1.5-3.717,2.42-5.643c1.585-3.319-0.422-12.245-5.359-15.887c-2.552-1.883-7.975-3.989-15.615,3.06  c-2.738,2.526-5.567,4.34-8.304,6.093c-5.947,3.811-11.564,7.41-11.564,16.305c0,1.074-0.024,2.365-0.052,3.833  c-0.249,13.353-0.817,43.934,15.877,57.735c-0.024,0.104-0.05,0.199-0.075,0.304c-0.212,0.915-0.412,1.778-0.746,2.624  c-31.895,80.796-80.796,135.467-145.345,162.496c-56.239,23.549-114.277,21.362-153.063,15.379  c-35.252-5.437-61.419-14.901-69.217-17.928c23.868-22.797,43.732-36.023,52.912-39.011c19.762-6.432,51.494-45.454,71.377-105.101  c6.826-20.478,6.2-35.526-1.861-44.726c-10.675-12.183-30.242-9.314-33.006-8.836h-37.438l-0.298,0.015  c-14.056,1.401-21.345-4.211-27.775-9.167c-2.083-1.604-4.05-3.121-6.143-4.335c-17.46-10.131-38.342-0.042-56.783,15.2  c-0.619-3.578-2.063-6.524-4.355-8.767c-5.593-5.472-14.186-5.098-18.803-4.894c-0.38,0.017-0.729,0.032-1.039,0.042  c-20.619,0.633-33.293,6.168-37.67,16.452c-7.472,17.552,12.612,42.235,16.91,47.222c-0.37,0.524-0.693,0.985-0.965,1.378  c-7.032-3.206-15.308-5.553-24.449-5.485c-9.383,0.073-18.481,2.706-27.231,7.81c-9.415-2.163-101.977-22.232-221.128-5.579  c-73.513,10.274-142.66,32.301-205.519,65.467c-77.885,41.094-146.259,99.49-203.26,173.591  c-13.145-6.672-82.624-42.714-141.411-88.168c-68.146-52.69-153.221-192.473-108.294-361.611  c48.174-181.359,229.043-277.214,369.003-262.014c144.143,15.653,230.348,67.719,279.513,168.82  c19.802,40.72,28.045,78.588,23.838,109.51c-3.179,23.368-12.609,36.374-15.662,39.087l-0.169,0.151  c-9.861,8.779-29.985,23.195-53.892,21.182c-17.337-1.466-33.538-11.452-48.157-29.686c-0.834-1.298-10.804-17.413-8.948-42.162  c0.651-8.683-4.562-17.083-13.946-22.47c-11.178-6.417-24.359-6.458-33.582-0.103c-8.007,5.518-16.604,18.081-12.087,46.592  c4.688,29.599,16.966,54.405,36.492,73.73c15.636,15.476,31.525,22.999,38.31,26.211l0.17,0.08  c0.964,0.485,23.961,11.874,55.203,10.762c28.847-1.033,70.231-13.473,103.56-66.872c24.031-38.501,23.967-96.225-0.175-158.371  c-18.279-47.053-49.376-93.626-87.563-131.143c-42.142-41.401-91.558-70.847-142.908-85.154  c-88.843-24.754-172.137-28.047-247.567-9.79c-75.114,18.181-142.958,57.85-201.647,117.904  c-55.674,56.969-92.698,130.754-107.069,213.38c-13.273,76.307-5.995,155.802,20.495,223.843  c21.096,54.188,49.301,98.045,88.762,138.02c35.651,36.115,77.801,66.249,122.426,98.152c11.628,8.313,23.623,16.889,35.843,25.804  c-7.952,7.9-29.785,32.987-22.534,64.124c5.356,22.996,25.188,43.597,59.206,61.631c-7.786,17.179-26.564,51.32-68.69,99.863  c-50.889,58.641-120.063,120.309-205.613,183.306c-6.095-3.124-26.549-10.621-62.5,4.787c-3.502,1.5-6.863,2.931-10.083,4.301  c-36.866,15.69-55.371,23.566-53.227,38.572c1.169,8.184,6.008,15.464,12.945,19.475c7.575,4.38,17.115,4.646,26.861,0.748  c6.751-2.701,14.15-6.829,21.305-10.82c6.958-3.882,17.341-9.683,20.317-9.391c0.018,0.218,0.017,0.577-0.061,1.125l-0.035,0.241  l0.005,0.243c0.118,5.912,3.402,145.242,47.45,183.759c8.745,7.647,18.609,10.901,29.319,9.68  c61.284-7.004,78.742-2.35,82.595,2.789c2.18,2.906,4.549,3.947,6.596,3.947c1.246,0,2.372-0.386,3.264-0.972  c2.145-1.409,3.537-4.275,3.726-8.121c3.052,2.829,6.449,5.096,9.511,5.095c0.71,0,1.403-0.122,2.068-0.387  c3.073-1.222,4.226-4.61,4.482-8.628c3.548,3.619,7.827,6.978,11.517,6.978c0.326,0,0.647-0.026,0.962-0.081  c1.316-0.227,3.691-1.138,4.811-4.683c0.813-2.576,1.327-5.1,1.562-7.572c2.585,2.464,5.748,4.706,8.817,4.706  c1.098,0,2.184-0.287,3.226-0.954c5.551-3.552,3.63-15.199,0.109-22.241l-0.256-0.523c-7.147-14.697-24.895-40.313-63.456-46.739  c-44.735-7.456-64.966-59.111-65.166-59.632l-0.136-0.304c-4.974-9.655-5.627-19.287-1.997-29.446  c15.485-43.339,104.359-81.837,157.459-104.838c9.219-3.994,17.182-7.443,23.722-10.459c113.734-52.455,185.557-115.446,238-161.441  c2.574-2.257,5.091-4.464,7.572-6.635c58.956,34.692,94.074,79.401,114.584,116.213c32.139,57.683,36.323,108.825,36.472,110.805  l3.96,162.381c-0.559,3.547-4.473,33.079,16.336,52.607c19.026,17.856,52.169,21.238,98.509,10.054  c58.652-14.157,113.615-1.162,149.395,12.232c38.902,14.563,64.206,32.743,64.458,32.925l2.434,1.764l1.759-2.436  c0.289-0.399,7.012-9.925,2.224-22.052c-2.536-6.423-7.732-12.208-15.525-17.339c1.246-7.683-0.489-14.317-5.175-19.717  c-2.006-2.312-4.471-4.261-7.209-5.924c-4.025-10.384-18.208-18.816-33.507-25.141c-0.037-0.094-0.064-0.19-0.112-0.282  c-12.906-24.951-48.917-37.456-107.12-37.095c-1.027,0.006-2.051,0.017-3.073,0.031c8.916-4.907,10.729-10.612,12.608-16.533  c0.172-0.541,0.345-1.087,0.526-1.639c5.016-15.247,5.243-23.652,0.738-27.251c-4.723-3.772-11.934-0.358-19.023,3.896  c-0.892,0.535-1.676,0.997-2.415,1.432c-7.372,4.342-10.132,5.968-63.294,46.341c-1.717,0.269-3.222,0.513-4.461,0.721  c7.152-43.185,12.288-154.951,13.083-215.534c16.867,38.468,39.488,70.444,68.077,96.386  c53.605,48.644,120.764,69.459,180.017,87.824c34.858,10.804,67.782,21.009,94.885,35.671c40.432,21.873,69.834,48.347,87.38,66.704  c22.708,23.758,34.792,43.259,38.24,52.741c6.284,17.282,15.203,23.398,20.439,23.656c2.196,6.305,5.105,9.987,8.865,11.212  c0.849,0.276,1.725,0.413,2.613,0.413c2.2,0,4.479-0.837,6.618-2.461c0.213-0.161,0.406-0.34,0.595-0.521  c1.045,0.377,2.373,0.716,3.806,0.716c1.257,0,2.589-0.26,3.865-0.982c3.094-1.752,4.663-5.529,4.663-11.228  c0-3.018-0.279-6.356-0.774-9.911c0.025-0.028,0.055-0.047,0.079-0.076c13.363-16.036,2.386-49.796-7.739-72.883  c5.206,4.054,11.49,7.396,18.063,7.396c3.367,0,6.809-0.876,10.22-2.982c0.806-0.498,1.506-1.166,2.026-1.933  c1.429-2.109,1.814-4.471,1.086-6.649c-1.009-3.017-3.911-5.31-8.92-7.027c-1.509-0.786-14.899-7.974-20.161-18.119  c-0.016-0.031-0.034-0.079-0.052-0.142c-4.454-15.397-46.532-42.551-96.928-73.842c-15.459-9.599-28.81-17.889-35.017-22.614  c-19.107-14.548-34.213-25.774-47.54-35.678c-49.622-36.876-66.339-49.298-130.716-116.817  c-71.526-75.014-50.44-206.892,1.075-324.924c3.423,1.389,9.159,3.619,16.892,6.278c50.293,19.742,111.659,29.335,173.871,24.734  c5.88-0.342,11.718-0.804,17.505-1.402c42.604-4.406,82.675-15.825,119.097-33.94c13.382-6.656,26.275-14.209,38.688-22.632  c10.6-7.101,20.845-14.9,30.662-23.426c76.746-65.736,131.971-169.945,164.629-311.035c0.039-0.168,0.02-0.332-0.023-0.487  C1759.757,668.263,1759.972,667.239,1759.972,667.239z M1224.04,658.452c3.38-7.942,14.259-12.25,32.334-12.805  c0.333-0.01,0.708-0.026,1.116-0.044c3.709-0.163,10.61-0.464,14.346,3.189c2.014,1.97,2.991,5.047,2.902,9.144  c-0.001,0.069,0.013,0.135,0.016,0.203c-15.439,13.947-28.595,30.57-35.708,40.187  C1231.924,689.815,1218.908,670.509,1224.04,658.452z M555.534,1325.966c-20.455,11.753-42.562,23.292-66.548,34.355  c-6.477,2.987-14.41,6.423-23.594,10.402c-53.994,23.389-144.364,62.534-160.725,108.325c-4.143,11.594-3.39,23.054,2.238,34.066  c1.516,3.9,22.381,55.363,69.724,63.253c35.903,5.984,52.405,29.788,59.046,43.445l0.286,0.583  c3.481,6.962,3.104,13.661,2.081,14.478c-0.025,0.01-2.559,0.234-8.962-7.771c-0.149-0.186-0.32-0.344-0.5-0.484  c-0.684-2.97-1.832-5.841-3.461-8.599c-12.076-20.433-45.97-27.419-47.407-27.707c-1.626-0.323-3.204,0.729-3.529,2.353  c-0.326,1.624,0.728,3.205,2.351,3.531c0.326,0.065,32.724,6.759,43.426,24.886c3.738,6.332,4.371,13.163,1.933,20.883  c-0.096,0.303-0.186,0.482-0.245,0.58c-1.93-0.084-7.499-5.155-11.908-10.824c-5.161-33.25-64.026-29.722-66.553-29.552  c-1.653,0.11-2.904,1.54-2.793,3.193c0.11,1.652,1.534,2.912,3.193,2.793c0.564-0.037,56.753-3.449,60.33,25.163  c1.081,8.644-0.057,10.878-0.334,11.278c-1.927-0.026-7.598-5.338-11.95-11.199c-0.564-1.276-1.214-2.584-1.98-3.925  c-3.89-6.807-17.031-10.627-40.175-11.679c-16.349-0.744-31.927,0.241-32.082,0.251c-1.654,0.106-2.908,1.533-2.801,3.187  c0.106,1.653,1.529,2.917,3.187,2.8c23.06-1.487,61.555-0.518,66.662,8.417c0.725,1.268,1.33,2.485,1.832,3.644  c0.017,0.041,0.031,0.082,0.051,0.122c2.132,4.987,2.316,8.882,1.636,11.078c-0.286,0.922-0.649,1.258-0.677,1.286  c-0.137-0.003-0.846-0.278-1.806-1.558c-4.894-6.526-19.325-13.007-88.077-5.15c-9.088,1.038-17.162-1.655-24.687-8.234  c-41.278-36.092-45.237-172.722-45.397-179.14c0.476-3.852-0.987-5.745-2.316-6.658c-4.509-3.096-12.303,0.989-26.837,9.097  c-6.99,3.899-14.217,7.932-20.61,10.489c-10.254,4.101-17.422,2.062-21.629-0.371c-5.356-3.097-9.098-8.752-10.009-15.129  c-1.491-10.442,16.669-18.171,49.637-32.202c3.224-1.372,6.59-2.805,10.096-4.308c39.354-16.865,58.447-4.384,58.62-4.269  l1.763,1.234l1.734-1.274c86.635-63.664,156.672-126.03,208.165-185.366c42.378-48.833,61.484-83.444,69.499-101.046  c21.001,10.521,46.974,20.139,77.856,28.817C623.987,1162.189,627.857,1238.778,555.534,1325.966z M1050.96,1531.792  c0.75-0.442,1.549-0.913,2.456-1.457c9.094-5.456,11.555-4.86,12.191-4.353c0.333,0.267,3.09,3.11-2.692,20.688  c-0.188,0.572-0.368,1.138-0.546,1.698c-2.473,7.789-4.451,13.97-27.629,19.142c-14.485,0.884-27.668,2.339-37.869,3.688  C1041.447,1537.397,1044.22,1535.762,1050.96,1531.792z M1147.694,1183.248c-4.487,36.633-3.271,70.002,3.613,99.183  c7.368,31.229,21.257,57.712,41.283,78.715c64.731,67.889,81.551,80.388,131.48,117.492c13.314,9.894,28.405,21.108,47.484,35.635  c6.434,4.899,19.897,13.258,35.487,22.938c35.9,22.291,90.154,55.977,94.33,70.415c0.13,0.447,0.29,0.851,0.489,1.235  c5.983,11.536,19.972,19.249,22.714,20.677c0.271,0.141,0.567,0.267,0.878,0.373c3.366,1.153,4.854,2.428,5.124,3.236  c0.156,0.468-0.111,1.01-0.363,1.381c-0.046,0.068-0.123,0.138-0.211,0.192c-13.945,8.61-30.688-12.859-33.311-16.399  c-1.971-3.793-3.342-6.212-3.626-6.71c-0.822-1.438-2.654-1.94-4.093-1.116c-1.438,0.822-1.938,2.654-1.116,4.093  c0.943,1.651,1.995,3.569,3.115,5.698c0.087,0.337,0.224,0.667,0.435,0.97c0.042,0.061,0.136,0.193,0.268,0.376  c10.635,20.531,26.656,58.738,19.259,77.747c-6.262-29.636-22.817-67.655-23.678-69.622c-0.665-1.518-2.434-2.208-3.952-1.544  c-1.518,0.665-2.209,2.434-1.544,3.952c0.255,0.583,25.547,58.648,25.547,86.117c0,4.71-1.234,5.786-1.612,6.003  c-0.674,0.386-1.794,0.162-2.694-0.16c-0.02-0.168-0.029-0.336-0.062-0.504c-0.481-2.463-11.924-60.523-23.873-78.447  c-0.919-1.378-2.781-1.75-4.16-0.832c-1.378,0.919-1.751,2.782-0.832,4.16c9.034,13.551,18.979,55.815,22.977,76.27  c0.055,0.278-0.061,0.564-0.301,0.747c-0.984,0.748-2.431,1.55-3.744,1.122c-0.949-0.309-3.388-1.821-5.597-9.134  c0.097-0.477,0.137-0.979,0.084-1.507c-2.014-20.139-25.098-68.415-26.08-70.46c-0.718-1.494-2.509-2.124-4.003-1.406  c-1.494,0.717-2.123,2.509-1.406,4.003c0.229,0.477,22.268,46.555,25.298,66.718c-2.888-1.226-9.066-6.353-13.82-19.428  c-8.399-23.097-54.687-82.792-128.404-122.671c-27.619-14.941-60.816-25.231-95.963-36.125  c-94.479-29.283-198.681-61.587-249.763-193.096c0-0.11,0-0.225,0-0.335c0-0.872-0.378-1.65-0.971-2.198  c-14.603-38.472-24.717-85.316-28.805-142.888c-0.71-9.996-1.417-19.552-2.117-28.683c0.156-0.511,0.188-1.067,0.044-1.622  c-0.078-0.304-0.16-0.61-0.24-0.915c-3.014-39.093-5.865-70.252-8.066-94.307c-2.453-26.804-4.225-46.171-4.841-60.774  c-0.07-1.656-1.485-2.932-3.124-2.871c-1.655,0.07-2.941,1.469-2.871,3.124c0.234,5.549,0.632,11.761,1.168,18.782  c-6.204,8.775-22.042,25.402-51.851,23.087c-29.891-40.21-25.471-63.056-25.416-63.308c0.375-1.614-0.63-3.226-2.244-3.601  c-1.619-0.375-3.227,0.63-3.601,2.244c-0.331,1.424-7.456,35.548,48.382,94.04c29.217,30.605,39.74,58.722,46.524,84.582  c0.749,9.724,1.507,19.93,2.268,30.647c3.959,55.75,13.819,103.986,29.76,145.272c-0.04,56.883-5.735,190.461-13.838,233.005  l-0.825,4.331l4.331-0.822c0.615-0.116,25.216-4.67,56.416-6.672c0.409,0.092,0.842,0.105,1.279,0.011  c0.198-0.042,0.382-0.086,0.578-0.129c43.972-2.654,100.158-0.031,121.138,26.947c-18.036-6.412-35.074-9.886-36.493-10.17  c-1.621-0.323-3.205,0.729-3.53,2.354c-0.325,1.625,0.729,3.205,2.353,3.53c16.215,3.246,55.665,13.892,70.223,28.375  c-15.372-5.072-32.957-4.582-34.013-4.547c-1.656,0.055-2.954,1.442-2.898,3.099c0.056,1.656,1.428,2.956,3.099,2.898  c0.343-0.015,34.625-0.987,46.799,13.042c3.023,3.483,4.343,7.572,4.045,12.418c-11.72-6.32-27.869-11.513-48.383-15.526  c-1.623-0.316-3.202,0.742-3.521,2.368c-0.318,1.626,0.742,3.202,2.368,3.521c46.714,9.139,61.186,22.688,65.101,32.443  c2.354,5.866,1.124,10.915-0.087,13.818c-7.665-5.156-30.365-19.477-62.889-31.673c-36.607-13.728-92.88-27.041-153.08-12.511  c-44.215,10.673-75.491,7.793-92.958-8.56c-19.342-18.109-14.569-47.254-14.519-47.542l0.051-0.293l-3.976-163.031l-0.005-0.126  c-0.036-0.527-3.902-53.456-37.086-113.138c-19.487-35.048-45.127-65.587-76.208-90.768c-38.813-31.445-86.249-54.559-140.988-68.7  c-50.897-13.148-89.873-28.79-115.843-46.491c-20.869-14.224-33.404-29.793-37.257-46.276c-7.824-33.466,23.015-60.551,23.325-60.82  l2.864-2.463l-3.048-2.231c-13.255-9.702-26.249-18.991-38.814-27.975c-1.164-0.832-2.323-1.661-3.481-2.489  c7.267-8.397,7.233-16.148,2.075-21.166c-4.888-4.755-15.505-1.655-23.978,5.437c-79.52-57.527-142.67-109.852-183.703-215.25  c-1.592-4.09-3.101-8.209-4.548-12.349c11.267,3.302,16.777-0.465,19.059-7.545c2.354-7.302-5.463-16.357-17.459-20.224  c-7.553-2.435-10.193-3.467-10.989-3.286C221.77,586.485,236.93,473.86,287.246,382.485c6.552,2.372,16.08-2.933,22.227-12.761  c6.117-9.78,6.74-20.608,1.819-25.497c10.886-15.249,22.88-29.662,35.957-43.043c60.343-61.746,129.137-101.205,205.814-118.246  c-2.138,11.314,1.902,18.16,9.043,19.817c7.071,1.642,15.562-12.996,18.871-24.977c64.671-9.602,134.636-4.006,209.586,16.877  c31.634,8.814,60.323,22.495,85.963,39.285c-0.717,2.523-1.179,5.275-1.311,8.173c-0.574,12.591,5.174,23.082,12.839,23.431  c6.784,0.309,13.36-1.505,15.049-12.02l-2.214-2.014c57.494,45.402,96.722,105.791,116.163,155.834  c23.451,60.365,23.697,116.14,0.678,153.021c-17.658,28.291-38.909,47.315-63.448,56.886c-2.714-5.728-11.203-10.115-21.404-10.481  c-11.128-0.399-21.694,9.856-24.198,17.539c-24.343-1.348-41.737-9.922-41.989-10.049l-0.236-0.112  c-26.479-12.537-45.928-30.654-58.16-54.097c7.309,1.149,11.525-2.082,13.81-7.636c2.918-7.096-4.166-16.734-15.824-21.528  c-5.536-2.276-8.343-3.537-9.739-3.97c-0.578-2.694-1.088-5.436-1.531-8.226c-3.143-19.837,0.255-34.296,9.566-40.712  c8.336-5.744,19.662-3.956,27.19,0.366c7.331,4.208,11.424,10.496,10.95,16.818c-2.092,27.894,9.525,45.334,10.021,46.063  l0.139,0.187c15.71,19.638,33.348,30.413,52.424,32.025c1.711,0.145,3.399,0.213,5.07,0.213  c23.865-0.001,43.428-14.09,53.316-22.893l0.167-0.148c3.734-3.32,14.18-17.473,17.621-42.762  c3.779-27.779-1.647-59.522-16.122-94.568c3.487-3.733,6.186-9.577,7.149-16.389c1.764-12.48-2.965-23.468-10.562-24.542  c-4.591-0.649-9.173,2.482-12.474,7.808c-38.066-69.452-95.374-114.226-179.406-138.864c-1.6-12.744-9.585-31.133-16.651-30.852  c-7.643,0.304-13.438,10.699-12.977,23.242c-21.01-4.689-43.508-8.321-67.606-10.938c-66.959-7.274-140.348,9.912-204.924,47.402  c-3.505-6.733-15.312-7.728-26.523-2.187c-10.58,5.23-14.924,20.697-12.643,28.291C363.859,345.5,317.531,413.299,297.374,489.186  c-7.112,26.776-11.231,53.822-12.386,80.782c-6.51-3.609-11.263-1.994-15.248,2.581c-5.04,5.784-1.422,17.186,8.081,25.467  c3.808,3.318,6.01,5.33,7.317,6.394c2.014,39.26,10.359,78.009,24.996,115.128c14.554,36.907,35.424,71.862,59.185,100.062  l-1.017-0.925c-1.417,3.376-2.325,7.366-2.521,11.667c-0.574,12.592,5.174,23.082,12.839,23.431  c6.126,0.279,12.068-1.196,14.41-9.22c4.864,4.495,9.794,8.686,14.767,12.531c65.368,50.542,143.837,89.52,144.622,89.907  l2.215,1.094l1.499-1.963c128.488-168.258,291.77-222.677,406.121-238.7c105.795-14.827,190.365-0.452,213.556,4.246  c-5.166,3.889-10.198,8.671-15.078,14.365c-21.529,25.118-17.937,44.242-11.131,55.862c9.038,15.433,27.785,25.164,44.891,29.112  c-18.414,23.683-7.571,30.318,5.01,29.986c7.203-0.189,15.263-3.648,18-5c26.266-12.969,36.145-57.403,36.042-62.598  c1.112-5.651,1.771-12.141,1.771-19.611c0-1.657-1.343-3-3-3s-3,1.343-3,3c0,49.879-29.666,52.487-30.914,52.573l-0.412,0.053  c-16.97,3.396-50.988-6.678-63.21-27.547c-8.345-14.25-4.711-31.169,10.509-48.926c13.94-16.264,28.99-24.581,44.729-24.72  c0.133-0.001,0.265-0.001,0.397-0.001c24.811,0,43.354,20.488,43.623,20.789c1.098,1.241,2.994,1.356,4.234,0.259  c1.241-1.098,1.357-2.994,0.259-4.235c-0.485-0.548-7.441-8.265-18.655-14.575c9.246-13.076,61.151-83.419,94.284-64.194  c1.753,1.017,3.569,2.417,5.492,3.898c6.933,5.342,15.556,11.984,31.885,10.399h37.558l0.286,0l0.277-0.053  c0.187-0.035,18.706-3.407,27.678,6.861c6.542,7.486,6.766,20.559,0.667,38.857c-11.426,34.278-25.23,57.456-34.798,70.863  c-11.509,16.127-23.75,27.503-32.744,30.431c-24.597,8.006-93.282,66.379-142.591,154.195  C1183.797,1037.195,1156.074,1114.839,1147.694,1183.248z M953.207,1141.309c-6.155-16.034-15.106-32.856-29.721-50.519  c6.131-0.434,19.385-1.748,24.876-5.181C949.806,1101.495,951.457,1120.003,953.207,1141.309z" style="fill:#1A1A1A;"/>
<g>
	<path d="M1637.255,493.352c9.509-20.83,14.943-25.811,24.453-29.434c9.51-3.623,6.471-35.471-6.792-29.887   C1646.311,437.654,1630.099,509.027,1637.255,493.352z" style="fill:#1A1A1A;"/>
</g>

      </g>
    </g>
</g>

              </svg>