<?xml version="1.0" encoding="UTF-8"?><svg version="1.1" xmlns="http://www.w3.org/2000/svg" xmlns:xlink="http://www.w3.org/1999/xlink" viewBox="0 0 1200 800" width="1200" height="800" x="0px" y="0px">
              
              <!-- ITEM 0 -->
<g>
    <defs>
        
        <clipPath id="clip-path-id-viewbox-item-0">
            <rect x="0.0" y="0.0" width="196.577" height="237.008"/>
        </clipPath>
    </defs>
    <g transform="translate(763.0 307.0) rotate(0.0 -98.0 118.5) scale(-0.9970647634260367 0.9999662458651184)">
      <g clip-path="url(#clip-path-id-viewbox-item-0)" transform="translate(-0.0 -0.0)">
      <title>animal</title><g id="Layer_2-i0" data-name="Layer 2"><g id="animal-i0"><path d="M116.162,227.407a11.45,11.45,0,0,1,3.8,2.7,4.929,4.929,0,0,1,1.5,4.3.908.908,0,0,1-.3.7,1.344,1.344,0,0,1-.9.2c-7.4,0-14.6-1.7-21.8-3.4-2.7-.6-5.5-1.3-8.2-1.9a138.318,138.318,0,0,1-15.6-4.3c4.2-.2,8.2-1.9,12.1-3.5,2.7-1.1,5.3-2.4,7.9-3.4s4.1.1,6.6,1.2C106.262,222.307,111.262,224.807,116.162,227.407Z" fill="#fff"/><path d="M131.262,210.207c.9.2,2.1.6,2.3,1.6.3,1.3-1.5,2.1-2.9,2.3a167.167,167.167,0,0,1-30,1.5c1.5,0,5.6-4.9,6.8-5.9,1.9-1.7,2.9-2.9,5.6-2.7A165.229,165.229,0,0,1,131.262,210.207Z" fill="#fff"/><path d="M25.362,172.907s-18.2-12.2-23-8.1c-4.8,4.2,19.9,30.7,29.9,38.7s2.8-20.6,2.8-20.6Z" fill="#fff"/><path d="M88.662,28.307s-18.9,2.8-23.1,23.8,6.5,32.9.5,51a92.048,92.048,0,0,1-24.4,38.6c-8.5,7.9-19.8,23.3-15.7,47.4s31.7,37.3,47,36.4,36.5-13.1,43.3-26.1,9.2-32.8,8.2-51.6c0,0,19-2.8,29.5-9.3s28-20.5,29.2-21.1c1.3-.6,16.5-3.5,10.3-9.7s-12.9,4.5-33,8c-20.2,3.5-40.8-.4-48.2-4.8,0,0-5.3-14.3,3.3-19.6,0,0,14.1-6.2,14.4-15.4l-2-31.4C127.862,44.607,117.162,22.107,88.662,28.307Z" fill="#fece2f"/><path d="M81.462,187.207a1.086,1.086,0,0,1-.9-.4,1.127,1.127,0,0,1,.2-1.6,16.872,16.872,0,0,0,6.3-13.7,1.151,1.151,0,1,1,2.3-.1,19.04,19.04,0,0,1-7.2,15.6A1.445,1.445,0,0,1,81.462,187.207Z" fill="#fff"/><path d="M78.862,196.707a1.087,1.087,0,0,1-1-.7,1.231,1.231,0,0,1,.7-1.5c9-3.4,10.6-9.7,10.6-10a1.118,1.118,0,1,1,2.2.4c-.1.3-1.8,7.8-12,11.6A.646.646,0,0,1,78.862,196.707Z" fill="#fff"/><path d="M112.862,111.307s-4.3-11.1,0-17.3h-.2c-2.4.7-4.8,3.2-6.5,5a10.134,10.134,0,0,0-2.7,4.1,4.7,4.7,0,0,0,.9,4.7,8.259,8.259,0,0,0,2.2,1.4,19.211,19.211,0,0,0,6.9,2.2C112.962,111.207,113.262,111.507,112.862,111.307Z" fill="#fff"/><path d="M106.262,145.507c.3,9.9,1.6,20-1.1,29.6-2.6,9.3-8.7,17.2-15.3,24.2-4.3,4.6-9.2,10.9-6.2,16.4,1.5,2.8,4.4,4.1,7.6,4.7,10.7-4.9,20.8-12.8,25-21.1,6.8-13,9.2-32.8,8.2-51.6C124.362,147.807,106.762,145.707,106.262,145.507Z" fill="#fff"/><polygon points="134.162 56.207 116.762 64.707 129.762 75.307 160.362 55.807 134.162 56.207" fill="#fff"/><polygon points="116.862 65.507 127.862 44.607 155.462 46.507 116.862 65.507" fill="#fff"/><circle cx="96.762" cy="52.207" r="16.8" fill="#fff"/><path d="M96.762,70.107a17.631,17.631,0,0,1-7.4-1.6,17.926,17.926,0,1,1,23.7-9,17.753,17.753,0,0,1-10,9.4A17.19,17.19,0,0,1,96.762,70.107Zm0-33.5a15.647,15.647,0,0,0-6.5,29.9,16.075,16.075,0,0,0,12,.4,15.566,15.566,0,0,0,8.7-8.2h0a16.075,16.075,0,0,0,.4-12,15.566,15.566,0,0,0-8.2-8.7A14.82,14.82,0,0,0,96.762,36.607Z" fill="#191919"/><circle cx="96.762" cy="52.207" r="11.2" fill="#191919"/><circle cx="101.962" cy="48.007" r="6" fill="#fff"/><path d="M196.562,109.907a3.654,3.654,0,0,0-1.9-2.7c-2.7-1.6-7.7-1.6-12.8.1-2.1.7-4.6,1.6-7.3,2.6-9,3.3-20.3,7.4-28.7,7.6h-.5c-8.8,0-21.6-3.6-31-6.7a.367.367,0,0,0-.1-.3,25.958,25.958,0,0,1-1.7-7.8c-.3-5.5,1.5-9.3,5.3-11.5,10.8-6.2,12.7-12.4,13-14.4l30.1-19.1h0l.1-.1h0l.1-.1v-.1a.1.1,0,0,1,.1-.1v-.6h0v-.2h0v-.2a.1.1,0,0,0-.1-.1v-.1a.1.1,0,0,0-.1-.1h0a.1.1,0,0,1-.1-.1h-.7l-19.6-.6,15.1-7.4a1.141,1.141,0,0,0,.6-1.2,1.063,1.063,0,0,0-1-.9l-27-1.8a50.931,50.931,0,0,0-10.4-10.8,33.716,33.716,0,0,0-18.1-7.1h-.1c-.1,0-7.1-1.2-11.6-13.4-2.9-7.9-6.6-12.5-10.2-12.7a3.741,3.741,0,0,0-3.7,2.4c-2.1,4.4.3,18.1,4.8,23.1-2.9.6-8.8.7-15.5-5.2-5.8-5.1-9-4.7-10.5-4a4.121,4.121,0,0,0-2.2,3.9c0,1.8,1.2,5,3.6,8a22.288,22.288,0,0,0,7.2,5.7c-4.4.4-9.3,1.5-9.5,4.9a4.524,4.524,0,0,0,1.5,3.8c2.9,2.7,9.5,2.3,12.7,1.9a30.543,30.543,0,0,0-1.3,3.2c-2.8,8.6-1.8,18.6-.9,28.3.1,1.5.3,3.1.4,4.6.1.9.2,1.9.3,2.8,1.7,17.5,2.8,29.1-24.3,57.9-10.2,10.9-14.7,21.4-16.3,30.2-4.4-2.7-17-9.7-22.6-7.2a2.706,2.706,0,0,0-1.6,2c-.4,2.2.9,6.2,10.5,17.4,0,.1.1.1.1.2,1,1.1,2,2.2,2.9,3.3a87.046,87.046,0,0,0,7.1,7.6q3.9,4.05,8.7,9c1.3,1.3,2.3,2.4,2.9,3a48.935,48.935,0,0,0,11.4,11.3,44.138,44.138,0,0,0,25.6,8.8c1,.3,12.7,3.5,24.6,6.3,7.3,1.7,13.3,2.8,17.8,3.4a46.668,46.668,0,0,0,5.7.4c3.3,0,4.4-.7,4.9-1.4a2.555,2.555,0,0,0,.4-2.4c-1.4-5.1-18.6-12.7-24-15a12.774,12.774,0,0,0,1.5-1c.8,0,3.2.1,6.2.1,2.8,0,6.3,0,9.8-.1,15.1-.5,17.7-2.2,18.1-3.9a2.273,2.273,0,0,0-.3-1.8c-.7-1-2.9-2.7-13-4.1-3.2-.5-6.3-.8-8.3-1a7.062,7.062,0,0,0,.8-1c5.3-6.7,8.9-15.8,10.8-27.2a117.228,117.228,0,0,0,1.3-24.3,82.671,82.671,0,0,0,30.2-10.6,93.989,93.989,0,0,0,20.5-17.1c3.7-3.8,6.7-7,10.2-8.6,3.7-.9,6.3-2.2,8-3.9C196.262,112.007,196.662,110.607,196.562,109.907Zm-178.2,70.5a5.265,5.265,0,0,1-5.7,1.4c-9.6-11.1-10.2-14.6-10-15.5,0-.2.1-.3.3-.4,3.5-1.5,11.8,2.3,17.6,5.5A9.153,9.153,0,0,1,18.362,180.407Zm136.4-121.5-24.7,15.8-10.6-8.5Zm-26.2-13.1,22.7,1.5-31.8,15.6Zm-19.8,179.1c10.3,5.2,11.9,7.7,12.1,8.5.1.2,0,.3,0,.4-.2.2-2.5,2.2-26.2-3.2-1.1-.3-2.2-.5-3.2-.7v-.2c-1.7-5.8,4.6-9.1,6.3-9.9C99.062,220.407,103.862,222.407,108.762,224.907Zm5.3-14.9.1-.2a5.171,5.171,0,0,0,.6-1.3c1.9.2,4.2.5,6.6.8,9.2,1.4,10.8,2.8,11,3.1-1,1.1-8.2,2.1-19.4,2.4C112.562,213.307,112.862,212.007,114.062,210.007Zm8.3-32.5c-1.9,11-5.3,19.8-10.4,26.2a59.165,59.165,0,0,1-21.9,16.5c-4.9,1.6-9.1,2.8-11.9,3.6a42.555,42.555,0,0,1-32.7-7.8,46.992,46.992,0,0,1-18-25.8,43.377,43.377,0,0,1,0-21.4c5-6.8,10.7-13.3,18.6-15.8,4.9-1.6,10.3-1.5,14.6-4.1,6-3.6,8.4-11.3,8.4-18.3s-2-13.9-2.2-20.9c0-1.5,0-2.8.1-4.1.3-1,.5-2.1.7-3.1a14.451,14.451,0,0,1,5.4-7.1c2.9-2.2,6.8-2.8,10.3-3.9s7.3-3.1,8.3-6.6c1.1-3.8-1.3-7.7-4.1-10.5-3.4-3.4-7.4-6.2-10.8-9.5-3.4-3.4-11.8-9.4-8.8-18.1h0c2.9-7.5,9.3-13.6,22-17.5,9.2-2.8,18.2-1,26.7,5.5a47.442,47.442,0,0,1,9.9,10.2l-10.8,20.3v.1h0c0,.1,0,.1-.1.3h0v.4h0c0,.1.1.1.1.3h0a.1.1,0,0,0,.1.1h.1l12.5,10.2c-.3,1.6-2.1,7.1-11.8,12.7-4.5,2.6-6.8,7.3-6.4,13.6a38.025,38.025,0,0,0,1.3,7.1c-5.7-1.9-9.6-3.5-9.7-3.5a1.142,1.142,0,1,0-.9,2.1c1.2.4,28.4,11.3,44.2,11.3h.5c8.7-.1,20.2-4.3,29.4-7.7,2.6-1,5.1-1.9,7.2-2.6,5.1-1.7,9.3-1.3,10.9-.3a1.377,1.377,0,0,1,.8,1c0,.8-1.6,3.4-8,5-4.7,1.2-8.5,4.4-13.2,8.5-5.1,4.4-11.4,9.9-21.5,14.9-14.9,7.3-34.3,9.7-46.4,5.9a1.107,1.107,0,0,0-.7,2.1,45.147,45.147,0,0,0,13.8,1.9c1.6,0,3.2-.1,4.9-.2A92.079,92.079,0,0,1,122.362,177.507Z" fill="#191919"/></g></g>
      </g>
    </g>
</g>

<!-- ITEM 1 -->
<g>
    <defs>
        
        <clipPath id="clip-path-id-viewbox-item-1">
            <rect x="0.0" y="0.0" width="168.596" height="132.205"/>
        </clipPath>
    </defs>
    <g transform="translate(570.0 415.0) rotate(0.0 -84.0 66.0) scale(-0.9964649220622078 0.9984493778601413)">
      <g clip-path="url(#clip-path-id-viewbox-item-1)" transform="translate(-0.0 -0.0)">
      <title>wheelbarrow</title><g id="Layer_2-i1" data-name="Layer 2"><g id="wheelbarrow-i1"><path d="M168.561,69.705a1.419,1.419,0,0,0-.8-.9l-133.4-38.4a1.093,1.093,0,0,0-1,.2,1.284,1.284,0,0,0-.4,1l5.2,32.4c-11.2-9.5-13.5-25.9-15.4-39.3-1-7.1-1.9-13.3-4-17.3-2-3.9-4.7-6.3-8.1-7.1a11.89,11.89,0,0,0-9.4,1.9,2.908,2.908,0,0,0-.7,4.1,2.908,2.908,0,0,0,4.1.7,6.177,6.177,0,0,1,4.5-.9c1.6.4,3,1.8,4.2,4,1.6,3.2,2.4,8.8,3.4,15.4,2.2,15.5,5.2,36.7,22.7,46.8.1,0,.1.1.3.1.1.1.2.1.3.2l79.4,35.3a.6.6,0,0,0,.4.1,1.445,1.445,0,0,0,.7-.2l47.5-37A.932.932,0,0,0,168.561,69.705Z" fill="#1a1a1a"/><circle cx="82.461" cy="102.005" r="28.8" fill="#fece2f"/><path d="M82.461,132.205a30.3,30.3,0,1,1,30.3-30.3A30.344,30.344,0,0,1,82.461,132.205Zm0-57.5a27.3,27.3,0,1,0,27.3,27.3A27.335,27.335,0,0,0,82.461,74.705Z" fill="#191919"/><path d="M62.861,111.005a3.428,3.428,0,0,1-3.4-2.6,23.9,23.9,0,0,1,23-30.4,3.5,3.5,0,1,1,0,7,16.772,16.772,0,0,0-16.8,16.8,18.158,18.158,0,0,0,.6,4.6,3.64,3.64,0,0,1-2.5,4.4A1.344,1.344,0,0,1,62.861,111.005Z" fill="#fff"/><circle cx="82.461" cy="102.005" r="10.6" fill="#191919"/><circle cx="82.461" cy="102.005" r="4.7" fill="#fff"/></g></g>
      </g>
    </g>
</g>

<!-- ITEM 2 -->
<g>
    <defs>
        
        <clipPath id="clip-path-id-viewbox-item-2">
            <rect x="0.0" y="0.0" width="73.60192" height="48.70553"/>
        </clipPath>
    </defs>
    <g transform="translate(409.0 399.0) rotate(-13.635965962815982 57.0 37.5) scale(1.5488726381050928 1.5398662123171638)">
      <g clip-path="url(#clip-path-id-viewbox-item-2)" transform="translate(-0.0 -0.0)">
      <g id="Слой_2-i2" data-name="Слой 2"><g id="Слой_1-2-i2" data-name="Слой 1"><path d="M43.59783.00019a2.97386,2.97386,0,0,1,1.22151.33454,2.78129,2.78129,0,0,1,1.02274.74671,3.08239,3.08239,0,0,1,.60881,1.13976,3.529,3.529,0,0,1-.07037,1.28222,3.84075,3.84075,0,0,1-.34627,1.21793c-.20731.40813-.48543.78028-.69278,1.18839s-.34361.85234-.551,1.26043-.35316.84751-.56059,1.25558-.52489.76019-.73236,1.16825-.34518.85157-.55267,1.2596-.375.8364-.58255,1.24442-.45592.79526-.66347,1.20327-.37321.83733-.58079,1.24532-.5438.75053-.7514,1.15852-.27667.88645-.48429,1.29443-.50205.77176-.70969,1.17973-.41854.81426-.62619,1.22222-.41479.81617-.62246,1.22412-.348.85018-.55566,1.25812-.43618.80529-.64386,1.21323-.51148.767-.71916,1.17489-.37034.83881-.578,1.24675-.47539.78532-.68307,1.19327-.35246.8479-.56013,1.25585-.43252.80715-.64019,1.2151-.30093.87412-.50858,1.28208-.47249.7868-.68013,1.19477-.37858.8346-.5862,1.24257-.41178.8177-.61938,1.22568-.472.78705-.67961,1.195-.37274.83756-.5803,1.24556-.42033.81335-.62786,1.22137c-.21408.4209-.4963.80721-.709,1.22879s-.43559.83811-.64762,1.26-.445.83335-.65692,1.25534-.31766.89737-.53009,1.3191-.53336.78862-.74692,1.20978-.43461.83819-.6499,1.25846c-.23483.45845-.341.99608-.618,1.42984a5.08,5.08,0,0,1-1.11117,1.078,3.82257,3.82257,0,0,1-1.06589.69825,2.56181,2.56181,0,0,1-1.26311.15555,2.93463,2.93463,0,0,1-1.20625-.43968,3.62182,3.62182,0,0,1-.99219-.84913,2.59858,2.59858,0,0,1-.38644-1.23373,2.8827,2.8827,0,0,1,.07752-1.2821,11.60594,11.60594,0,0,1,.72555-1.4689c.2405-.48924.37171-1.03556.61582-1.52119.2084-.41459.44933-.81284.65776-1.22743s.43763-.81873.64606-1.23331.45106-.812.65951-1.22655.39533-.84.60379-1.25456.4881-.79335.69657-1.20791.31732-.87923.52581-1.29378.51-.78233.7185-1.19688.26759-.90424.47609-1.31879.50976-.78244.71827-1.197.4622-.80636.67072-1.2209.43134-.82188.63987-1.23641.41753-.82883.62607-1.24336.30447-.88572.513-1.30024.50995-.78233.71851-1.19685.295-.89047.50359-1.305.483-.79591.69153-1.21042.454-.81047.6626-1.225.358-.85879.56657-1.2733.40045-.83743.609-1.25193.42988-.82262.63847-1.23712.41973-.82773.62833-1.24223.48828-.79323.69688-1.20772.45332-.81082.66192-1.22532.26636-.90491.475-1.31941.55192-.7612.76053-1.17569.33632-.86971.54493-1.2842.42311-.826.63172-1.24051.37772-.84887.58633-1.26337.47416-.80033.68278-1.21482c.18816-.37388.42367-.7242.61218-1.098.18867-.37416.35867-.75609.55964-1.12317.20106-.36726.40954-.72727.63488-1.08038.22444-.35168.43652-.7114.6969-1.04206A4.232,4.232,0,0,1,42.01917.41459,3.08779,3.08779,0,0,1,43.59783.00019Z" fill="#112a4e"/><path d="M54.21065,34.83226a4.37023,4.37023,0,0,1-1.34037-.21271,2.77468,2.77468,0,0,1-1.0939-.81443,3.17442,3.17442,0,0,1-.57515-1.23271,3.08852,3.08852,0,0,1-.0815-1.355,2.67254,2.67254,0,0,1,.61258-1.21054A3.70569,3.70569,0,0,1,52.791,29.1489c.39248-.21041.80229-.38631,1.18281-.61294.382-.22753.7298-.50768,1.10161-.7491.37277-.242.79814-.40576,1.16245-.65928.36451-.25365.71855-.5241,1.07642-.78675s.6509-.61169,1.00393-.88082.77006-.45481,1.12-.72786.67237-.5811,1.02109-.85561.69218-.5557,1.04161-.82927.6773-.57528,1.02931-.84546.75137-.47772,1.10782-.742c.65888-.48861.89506-.90094.88047-1.275-.01513-.38756-.3424-.74929-.93684-1.23158-.36978-.3-.73007-.61181-1.0981-.91394s-.69593-.65317-1.06345-.956-.75015-.5873-1.11831-.88919-.787-.54187-1.15708-.84142-.72965-.61178-1.10284-.90744-.6989-.65246-1.07635-.94269-.811-.50606-1.19386-.78928q-.57391-.42459-1.157-.83575c-.38879-.27426-.76815-.56142-1.16472-.82571-.39572-.26371-.798-.5171-1.20262-.76937A4.07414,4.07414,0,0,1,51.11312,9.16,2.91941,2.91941,0,0,1,50.464,7.70513a2.98338,2.98338,0,0,1,.35638-1.57349,3.11259,3.11259,0,0,1,.81976-.96184,3.143,3.143,0,0,1,1.13905-.50528,3.20909,3.20909,0,0,1,1.23768-.21241,3.4836,3.4836,0,0,1,1.18825.42971c.397.20878.82074.37681,1.208.60828.38562.23049.72733.53456,1.102.78452.37442.24978.75448.4916,1.11674.75782.36345.26708.71185.55259,1.06182.83319.37887.30377.78614.57232,1.1639.87747s.75119.61578,1.128.92211.76592.59769,1.1419.905.68575.69547,1.06107,1.00362.76311.601,1.13792.90973.79051.56792,1.165.87712.71647.65766,1.09073.9671.73807.63151,1.11228.941.75384.61246,1.12815.92183.75363.61272,1.1282.92178.76353.60065,1.13851.9092a5.16417,5.16417,0,0,1,.88111.93351,3.08077,3.08077,0,0,1,.53694,1.15208,2.97232,2.97232,0,0,1,.04381,1.27721,3.13413,3.13413,0,0,1-.48881,1.19064,2.60464,2.60464,0,0,1-.97061.84587,3.76026,3.76026,0,0,1-1.24515.35915,3.07176,3.07176,0,0,0-1.628.94071c-.36072.30113-.71753.60672-1.07917.90667s-.72189.60139-1.085.8995-.73087.59026-1.096.88589-.73005.59113-1.09768.8836-.742.57582-1.11267.86444-.73389.58625-1.10807.87032-.73673.58319-1.1149.862-.72333.60335-1.10591.87617c-.38239.27268-.79081.50934-1.17823.77542-.38706.26585-.77431.53224-1.1669.79082s-.82175.45339-1.2302.67586a7.74307,7.74307,0,0,1-1.25048.63551A5.19449,5.19449,0,0,1,54.21065,34.83226Z" fill="#112a4e"/><path d="M15.19218,4.18a2.94379,2.94379,0,0,1,1.40115.4801,2.85488,2.85488,0,0,1,1.01472,1.0821,3.07079,3.07079,0,0,1,.343,1.45881,3.39827,3.39827,0,0,1-.44181,1.4255A4.28446,4.28446,0,0,1,16.78418,9.645c-.28976.29963-.649.52855-.96327.80673-.33792.29915-.66292.61334-.99356.91932-.33113.30644-.62611.65111-.95034.9641-.32449.31325-.68722.588-1.00518.9075s-.60337.67183-.91529.99741-.58126.69053-.88737,1.02172c-.30589.33094-.65373.62359-.95429.95991-.30026.336-.63229.64515-.92763.98622-.29493.3406-.53613.72794-.82654,1.07332-.50075.59551-.79018,1.03691-.76262,1.472.02581.40763.329.79306,1.0201,1.28559.36738.26185.74231.51415,1.10243.78539.36028.27136.69781.5728,1.05163.85246s.72767.535,1.07579.82175c.348.28668.6754.59863,1.01853.89139.343.29262.71874.54829,1.05768.84589s.67055.604,1.00613.90536.60424.67637.93731.98041.71957.55,1.05108.85574.64269.63346.97339.93978a9.8102,9.8102,0,0,1,.72212.773,5.37337,5.37337,0,0,1,.64976.83442,3.26495,3.26495,0,0,1,.40744,1.159,2.54656,2.54656,0,0,1-.16938,1.20294,3.10324,3.10324,0,0,1-.64744,1.01675,3.16257,3.16257,0,0,1-.92331.788,2.65818,2.65818,0,0,1-1.19027.294,3.32375,3.32375,0,0,1-1.19558-.28372,5.00149,5.00149,0,0,1-.9846-.59272,10.88951,10.88951,0,0,1-.903-.7139c-.34633-.30675-.66405-.64573-1.01033-.95239s-.7206-.58192-1.0676-.88776-.692-.61436-1.04047-.91859-.70958-.5941-1.06011-.89588-.69868-.60661-1.052-.90513-.7396-.55734-1.09636-.85176-.68481-.62368-1.04566-.91314-.7337-.56338-1.09924-.847c-.36527-.28343-.706-.59982-1.07674-.87671-.37038-.27661-.75733-.53191-1.13387-.8012-.37589-.26881-.78544-.48965-1.16816-.75036a4.93155,4.93155,0,0,1-.99657-.93762,3.65166,3.65166,0,0,1-.66349-1.18456,3.38849,3.38849,0,0,1-.13385-1.34176A4.20991,4.20991,0,0,1,.287,19.00293a6.14146,6.14146,0,0,1,.652-1.202c.25912-.36956.57866-.69516.84448-1.059.26622-.3644.45405-.787.72705-1.14555.27334-.359.60278-.67465.883-1.02767.28047-.35336.58111-.68957.86851-1.03681.2876-.34748.58311-.68713.87772-1.02836s.58031-.68983.8821-1.02481.60832-.665.91727-.9935.63225-.64195.94829-.96372c.31584-.32156.56666-.70891.88975-1.02373.32277-.31451.706-.56645,1.03611-.87411.32955-.30718.65494-.61882.99184-.91906.33632-.29973.67187-.60069,1.01557-.89338q.51438-.438,1.03859-.86664a3.45481,3.45481,0,0,1,1.07936-.64543A3.2597,3.2597,0,0,1,15.19218,4.18Z" fill="#112a4e"/></g></g>
      </g>
    </g>
</g>

              </svg>