<?xml version="1.0" encoding="UTF-8"?><svg version="1.1" xmlns="http://www.w3.org/2000/svg" xmlns:xlink="http://www.w3.org/1999/xlink" viewBox="0 0 900 650" width="900" height="650" x="0px" y="0px">
              
              <!-- ITEM 0 -->
<g>
    <defs>
        
        <clipPath id="clip-path-id-viewbox-item-0">
            <rect x="0.0" y="0.0" width="255.71614" height="286.03027"/>
        </clipPath>
    </defs>
    <g transform="translate(149.0 16.0) rotate(0.0 282.0 316.5) scale(2.2055705987115246 2.2130524856687375)">
      <g clip-path="url(#clip-path-id-viewbox-item-0)" transform="translate(-0.0 -0.0)">
      
  
  <g>
    <circle cx="127.88252" cy="143.01505" r="26.59186" style="         fill: #fece2f;       "/>
    <path d="M127.88274,286.03027c-34.6709,0-61.83008-62.82031-61.83008-143.01562S93.21184,0,127.88274,0s61.8291,62.81934,61.8291,143.01465S162.55364,286.03027,127.88274,286.03027Zm0-276.03027c-12.832,0-25.79395,13.60547-35.56153,37.32715C81.83,72.80566,76.05266,106.78809,76.05266,143.01465c0,36.22754,5.77734,70.21,16.26855,95.6875,9.76758,23.72265,22.7295,37.32812,35.56153,37.32812s25.793-13.60547,35.56054-37.32812c10.49122-25.47754,16.26856-59.46,16.26856-95.6875,0-36.22656-5.77734-70.209-16.26856-95.6875C153.67571,23.60547,140.71379,10,127.88274,10Z" style="         fill: #0699c0;       "/>
    <path d="M208.48723,232.72656c-29.875,0-70.43945-12.44824-111.51953-36.165-32.47852-18.75195-60.05664-41.65429-77.6543-64.48925C.787,108.03223-4.64168,86.52344,4.02825,71.50781,21.36516,41.48242,89.3466,49.37207,158.79778,89.46875h0c69.45019,40.09766,110.27343,95.02832,92.93945,125.05371C244.65618,226.78809,229.12,232.72656,208.48723,232.72656ZM47.04289,63.25293c-17.168,0-29.35546,4.59668-34.35449,13.25488-6.416,11.11231-1.11426,29.13965,14.5459,49.46,16.81836,21.8252,43.35938,43.81934,74.7334,61.9336,31.374,18.11328,63.69238,30.10156,91.002,33.75488,25.43262,3.39941,43.69141-1.02148,50.10742-12.13379,6.415-11.1123,1.11328-29.14062-14.54589-49.46094-16.81934-21.82422-43.36036-43.81836-74.7334-61.93261-31.374-18.11328-63.69239-30.10157-91.002-33.75489A119.436,119.436,0,0,0,47.04289,63.25293Z" style="         fill: #0699c0;       "/>
    <path d="M47.27825,232.72656c-20.6377.002-36.167-5.93652-43.25-18.2041-17.335-30.02539,23.48828-84.956,92.93945-125.05371h0c69.45117-40.09766,137.43457-47.98633,154.76953-17.96094S228.248,156.46289,158.79778,196.56152C117.72258,220.27637,77.15227,232.72461,47.27825,232.72656ZM101.9677,98.12891c-31.374,18.11425-57.915,40.10839-74.7334,61.93261-15.66016,20.32032-20.96191,38.34766-14.5459,49.46094s24.67774,15.53418,50.10742,12.13379c27.30957-3.65332,59.62793-15.6416,91.002-33.75488,31.373-18.11426,57.91406-40.1084,74.7334-61.9336,15.65917-20.32031,20.96093-38.34765,14.54589-49.46-6.416-11.1123-24.68066-15.5332-50.10742-12.13379-27.30957,3.65332-59.62793,15.64161-91.002,33.75489Z" style="         fill: #0699c0;       "/>
    <circle cx="46.48872" cy="226.37952" r="15.10407" style="         fill: #fece2f;       "/>
    <circle cx="211.90781" cy="59.11505" r="15.10407" style="         fill: #fece2f;       "/>
    <circle cx="98.56048" cy="24.92143" r="15.10407" style="         fill: #fece2f;       "/>
    <path d="M116.5468,157.30566a5.00066,5.00066,0,0,1-4.41016-2.63671,24.8302,24.8302,0,0,1,5.64454-30.05372,4.99958,4.99958,0,0,1,6.49609,7.60157,15.03608,15.03608,0,0,0-3.32813,17.72363,5.00131,5.00131,0,0,1-4.40234,7.36523Z" style="         fill: #fff15b;       "/>
    <path d="M92.96965,32.72656a5.05775,5.05775,0,0,1-.85937-.07422A4.9997,4.9997,0,0,1,88.037,26.87207c1.29-7.4375,7.42969-12.67871,13.6875-11.68066a4.99984,4.99984,0,1,1-1.57421,9.875c-.37891.0332-1.85059,1.14843-2.25977,3.51269A5.00188,5.00188,0,0,1,92.96965,32.72656Z" style="         fill: #fff15b;       "/>
    <path d="M208.36028,67.20508a5.00053,5.00053,0,0,1-4.95508-4.37988A18.99106,18.99106,0,0,1,205.996,50.6709a5.00047,5.00047,0,1,1,8.55273,5.18359,9.07773,9.07773,0,0,0-1.22168,5.72852,4.99852,4.99852,0,0,1-4.33984,5.582A5.05149,5.05149,0,0,1,208.36028,67.20508Z" style="         fill: #fff15b;       "/>
    <path d="M41.71184,234.5a5.00014,5.00014,0,0,1-4.63477-3.12109,15.04908,15.04908,0,0,1,1.91016-14.47657,4.99985,4.99985,0,0,1,7.97461,6.03321,5.00831,5.00831,0,0,0-.61914,4.68359A5.00255,5.00255,0,0,1,41.71184,234.5Z" style="         fill: #fff15b;       "/>
  </g>

      </g>
    </g>
</g>

              </svg>