<?xml version="1.0" encoding="UTF-8"?><svg version="1.1" xmlns="http://www.w3.org/2000/svg" xmlns:xlink="http://www.w3.org/1999/xlink" viewBox="0 0 100 100" width="100" height="100" x="0px" y="0px">
    
    
    <!-- ITEM 0 -->
    <g>
        <defs>
            <clipPath id="clip-path-id-viewbox-item-0">
                <rect x="0.0" y="0.0" width="439.993" height="556.64"/>
            </clipPath>
        </defs>
        <g transform="translate(16.0 0.0) rotate(0.0 38.0 48.5) scale(0.17273002070487486 0.17425984478298362)">
            <g clip-path="url(#clip-path-id-viewbox-item-0)" transform="translate(-0.0 -0.0)">
                <title>robot_3</title><g id="Layer_2-i0" data-name="Layer 2"><g id="robot_3-i0"><path d="M75.648,204.44a498.232,498.232,0,0,1,41.1,31.6c21.2,18.2,30.4,31.6,30.4,31.6l-46.6,62.1s-23.6-18.7-42.1-42.3-32.2-50.5-32.2-50.5,4.5-13.1,20.3-22.8C62.248,204.44,75.648,204.44,75.648,204.44Z" fill="#fece2f"/><path d="M75.648,204.44a498.232,498.232,0,0,1,41.1,31.6c21.2,18.2,30.4,31.6,30.4,31.6l-46.6,62.1s-23.6-18.7-42.1-42.3-32.2-50.5-32.2-50.5,4.5-13.1,20.3-22.8C62.248,204.44,75.648,204.44,75.648,204.44Z" fill="#fece2f"/><path d="M75.648,204.44s47.9,33.3,69.1,60.1l-4.8,3.6-70.5-63.8Z" fill="#fff"/><path d="M30.248,231.64s39.7,70.8,72.1,88.2l-2.2,9.5s-28-23.1-46.9-49.5-27-43-27-43Z" fill="#fff"/><path d="M62.848,187.44a162.367,162.367,0,0,0,1.7-33.6c-.9-19.6-6.5-58.1-6.5-58.1l-5.3-30.6s-5.2-29.1-9.4-33l-1.8-3.1s.7-5.9-2.2-14.8c-3-8.9-6.3-7.2-8.5-7.6s-4.8,3.7-4.8,3.7-6.1-3.3-9.2,2c0,0-4.4-3.3-7.9,2.2,0,0-8.5-.4-8.5,7s3.1,11.1,5.7,12a171.566,171.566,0,0,1,2.4,28c0,15.1-3.9,44.6-3.9,44.6s-3.5,33.6-3.3,47.6,2.6,42.4,15.3,57.7l18.4-9.8,12.9-8.3Z" fill="#fece2f"/><path d="M65.448,207.04a12.972,12.972,0,0,1,3.4-.8c1.8-.1,7.8-.6,8.3-1.3,1.3-1.8-1.7-5.2-2.9-6.8-2.6-3.5-5.4-7.7-8.6-10.6-2.9-2.6-8.4-.6-12.4-.4a9.345,9.345,0,0,1-2.4-.2,15.871,15.871,0,0,0,3.6,3.2,28.163,28.163,0,0,1,11,16.9Z" fill="#fff"/><path d="M26.148,237.44a73.5,73.5,0,0,1,8.2-11.6c-5-.8-8.9-5.1-10.4-9.9a20.51,20.51,0,0,1-.7-7.4c.1-1.4,1.4-4.2.5-5.5-4.5,4.2-7.6,8.5-7.5,12.1.2,6,2.2,5.8,2.2,5.8s-2,8.1,2.9,11.1C21.348,232.04,20.048,236.54,26.148,237.44Z" fill="#fff"/><path d="M48.248,65.24a528.848,528.848,0,0,1,8.9,58.3,386.345,386.345,0,0,1,.8,62.9l4.7.9s3.8-20.1.9-47.4c-2.8-27.3-10.2-73.4-10.2-73.4Z" fill="#fff"/><path d="M33.548,62.44s10.2,29.8,8.2,60.8-3.3,57.6,1.6,67l3-1.3s-4.2-14.6-1-36.7c3.3-22,2.4-45.7-.8-62.5s-5.4-25.9-5.4-25.9Z" fill="#fff"/><path d="M13.948,81.84c.7-22.9-3.9-49.3-3.9-49.3l-4.7.6a2.118,2.118,0,0,0,.7.3,171.566,171.566,0,0,1,2.4,28c0,15.1-3.9,44.6-3.9,44.6s-3.5,33.6-3.3,47.6,2.6,42.4,15.3,57.7l3.2-4C-.752,177.64,12.248,137.14,13.948,81.84Z" fill="#fff"/><path d="M34.548,26.54a.756.756,0,0,1-.4-.1,1.245,1.245,0,0,1-.8-1.5c.6-1.9-.3-6.6-.9-9.1a1.237,1.237,0,1,1,2.4-.6c.2.7,1.9,7.3.9,10.4A1.176,1.176,0,0,1,34.548,26.54Z" fill="#1a1a1a"/><path d="M27.748,53.34c11.4-1.1,21.1,1.8,24.2,3.6,4.3,2.6,4.3,8.1-.1,8.3s-9.4-3.4-22.9-1.9c-13.9,1.6-18.2,6.2-20.4,5.8-4.8-.8-6.4-6.6,1.1-10.3A51,51,0,0,1,27.748,53.34Z" fill="#fff"/><path d="M145.048,263.34c-25.6-30.3-61.7-55.7-67.3-59.5a6.621,6.621,0,0,0-.6-5.2,5.877,5.877,0,0,0-2.6-2,6,6,0,0,0-2-4.2,6.142,6.142,0,0,0-2.6-1.5,7.694,7.694,0,0,0-5.4-5.1c.8-4.3,3-19,.9-43.3a728.708,728.708,0,0,0-10.8-77.2,4.18,4.18,0,0,0,2.2-2.8,6.829,6.829,0,0,0-3.6-7.2c-.2-.1-.5-.3-.7-.4-3.2-14.5-6-22.1-9-26.2h0c-.1-2.2-1.4-21.6-9.2-23.3-3.8-.8-6,.6-7.2,2-.2.2-.4.5-.6.7a8.78,8.78,0,0,0-5.8-.5,6.782,6.782,0,0,0-3.5,2.8c-1.4-.5-4.1-1-6.2.3a6.194,6.194,0,0,0-2.3,2.5,8.4,8.4,0,0,0-5.8,1.4,7.842,7.842,0,0,0-2.9,5.9c-.4,5.4,1.7,12.1,5.6,13.5.1,0,.2.1.3.1a189.063,189.063,0,0,1,1.9,24.2c-2.9,1.9-4.3,4.4-4,6.9a5.5,5.5,0,0,0,3.9,4.3c-.1,2.6-.2,5.4-.3,8.2-.5,8.4-1.7,18.1-3,28.3-.7,5.5-1.4,11.2-2.1,16.9a1.237,1.237,0,0,0-.3,1.5c0,.1.1.1.1.2-1.8,16.6-2.9,33.8-.7,48.8,3.9,27.2,12.2,36.8,14.2,38.8a10.677,10.677,0,0,0-.6,4.9,7.877,7.877,0,0,0,2.8,5,13.505,13.505,0,0,0-.4,2.8,10.977,10.977,0,0,0,3.5,8.3,4.9,4.9,0,0,0,.5,2.3,5.335,5.335,0,0,0,4.9,3c3.5,6.7,33.6,62.7,73.4,92a.952.952,0,0,0,.7.2,1.389,1.389,0,0,0,1-.5,1.178,1.178,0,0,0-.3-1.7c-15.8-11.6-30-27.5-41.7-42.8.8-2.4,8.5-23.2,27.5-37.3,13.9,31.2,19,42.4,25.8,48.4a1.135,1.135,0,0,0,.8.3,1.086,1.086,0,0,0,.9-.4,1.151,1.151,0,0,0-.1-1.7c-6.4-5.8-12.1-18.1-25.3-48v-.1a64.922,64.922,0,0,1,26.3-10.5h0a291.522,291.522,0,0,1,28.1,28.5,1.086,1.086,0,0,0,.9.4,1.135,1.135,0,0,0,.8-.3A1.736,1.736,0,0,0,145.048,263.34Zm-82.2-120.5c2.1,23.7-.1,38.4-.9,42.6a13.423,13.423,0,0,0-2.1-.1,44.435,44.435,0,0,0-12.4,2.2c-3-8.2-2-21.6-.4-40,.5-6.4,1.1-13.6,1.6-21.4.2-2.9.2-5.8.2-8.6a52.13,52.13,0,0,1,11.8,3.3C61.448,127.94,62.148,135.24,62.848,142.84Zm-2.6-24.8a54.567,54.567,0,0,0-11.5-3.1c-.5-23.6-6.4-46-7.7-50.9a50.475,50.475,0,0,1,5.8,1.1,25.317,25.317,0,0,0,5.2.8C55.548,83.44,58.148,100.24,60.248,118.04Zm-31.5-109q1.65-1.95,4.8-1.2c4,.9,6.3,10.7,7.1,18.3a10.362,10.362,0,0,0-3.2-1.5,32.529,32.529,0,0,0-9.5-1.3C26.448,18.34,26.248,11.94,28.748,9.04Zm8,17.9c4.6,1.4,8.2,6.4,12.8,26.9a53.632,53.632,0,0,0-21.4-2.3c-5.8.5-11.4,2.2-18.1,5.4a197.322,197.322,0,0,0-1.8-22.8,7.786,7.786,0,0,0,3.8-2.8c.1,0,.1.1.2.1a5.092,5.092,0,0,0,3,.9,5.451,5.451,0,0,0,2.4-.5,6.187,6.187,0,0,0,1.4,2.8c4.1,4.4,15.1,3.4,16.4,3.3a1.2,1.2,0,0,0-.2-2.4c-3.1.3-11.6.4-14.4-2.6a3.276,3.276,0,0,1-.8-2.9,4.227,4.227,0,0,1,2-2.9C25.448,25.14,32.148,25.54,36.748,26.94Zm-18-14.4a4.681,4.681,0,0,1,2.5-2.5,5.7,5.7,0,0,1,4,.4c-1.3,3.8-1,8.9.2,13.1a13.041,13.041,0,0,0-4.7,1.6c-.2.1-.3.2-.5.3C18.948,22.14,17.148,15.94,18.748,12.54Zm-8.7,4.3c.2-2,.9-3.3,2-3.9a5.546,5.546,0,0,1,4-.1c-1.5,5.3,1.6,12.9,2.4,14.7a8.651,8.651,0,0,0-.7,1.7c-1.6.9-3.1,1-4.2.3C10.948,27.74,9.448,22.34,10.048,16.84Zm-3.7,14.9c-2.4-.9-4.4-6.3-4-11a5.939,5.939,0,0,1,1.9-4.2,5.227,5.227,0,0,1,3.6-.9,2.769,2.769,0,0,0-.1.9c-.5,4.4.2,9.9,2.7,13.1C9.148,31.04,7.748,32.24,6.348,31.74Zm-.2,33c-.2-1.5.8-3.6,4.4-5.4,6.6-3.2,12.1-4.9,17.8-5.4a40.978,40.978,0,0,1,4.9-.2c9.2,0,16.4,2.4,18.6,3.7a4.435,4.435,0,0,1,2.5,4.5,2.1,2.1,0,0,1-2.1,1.5,18.4,18.4,0,0,1-4.7-.7,48.08,48.08,0,0,0-18.2-1.2,51.418,51.418,0,0,0-17.5,4.8,13.668,13.668,0,0,1-2.7,1A3.223,3.223,0,0,1,6.148,64.74Zm.5,41.5c1.3-10.3,2.5-19.9,3.1-28.5.2-2.8.3-5.5.3-8.2a22.386,22.386,0,0,0,2.8-1.1,50.284,50.284,0,0,1,16.7-4.6,57.627,57.627,0,0,1,9-.3c.3,1.2,7.3,25.3,7.9,50.9-18.4-2.1-35.5,4.3-41.6,7C5.348,116.44,6.048,111.24,6.648,106.24Zm-3,66.8c-2.1-14.9-1.1-32,.8-48.6,4.2-2,22.3-9.7,41.9-7.3,0,3,0,5.9-.2,8.8-.5,7.7-1.1,14.9-1.6,21.3-1.5,18.7-2.6,32.2.6,41a60.737,60.737,0,0,0-26.2,18.1,30.774,30.774,0,0,0-2.4,3.4C14.148,206.84,7.148,196.94,3.648,173.04Zm13.6,43.6c-.4-2.5.8-5.5,3.5-8.8,12.6-15.3,31.8-20.2,39.1-20.2a13.786,13.786,0,0,1,2.2.2.764.764,0,0,0,.5.2h.3a.367.367,0,0,0,.3-.1,5.736,5.736,0,0,1,3.6,2.3,14.538,14.538,0,0,0-2.9.1c-10.1,1-24.6,7.4-33.7,15-4.4,3.7-9.4,8.7-11.8,14.1A6.768,6.768,0,0,1,17.248,216.64Zm3.9,13.3a7.583,7.583,0,0,1-1.5-5c.2-5,4.5-11.3,12.2-17.7,8.6-7.2,22.9-13.5,32.4-14.4,2.9-.3,5.2.2,6.5,1.3a4.17,4.17,0,0,1,1.2,1.9h-.8c-7.1,0-24.3,3.7-38.7,18C25.248,221.34,22.148,226.44,21.148,229.94Zm2.2,4.5c-1.2-2.6,1-8.9,10.8-18.6,12.8-12.8,29.1-17.4,37-17.3,2,0,3.3.5,3.9,1.4a4.209,4.209,0,0,1,.3,3.1,56.6,56.6,0,0,0-17.6,3.8c-9.3,3.7-22.4,11.7-31.8,29A2.56,2.56,0,0,1,23.348,234.44Zm34.1,48.9a372.258,372.258,0,0,1-29.3-46.1c8.1-15,19.1-22.9,28.5-27.1,3.5,2.1,17.8,11.7,29,35.9C67.948,258.94,59.648,277.54,57.448,283.34Zm30.3-38.7c-10.3-22.1-22.9-32.1-28.3-35.6a56.08,56.08,0,0,1,16.5-3.5,401.458,401.458,0,0,1,36.8,28.8A66.541,66.541,0,0,0,87.748,244.64Z" fill="#1a1a1a"/><path d="M349.748,441.54c-5.6-18.8-44.1-38.6-83.9-33,11.1-51.1,13.4-83.7,2.5-116.3-12.6-37.6-48.4-41.8-65.9-42.1-37-.7-70,15.1-90.2,47.9-20.2,32.7-21.5,92.3-4.1,143.9,17.5,52.3,44.6,96.7,83.1,109,47,15.1,96.5-8.1,123-34.1C337.948,494.54,355.448,460.34,349.748,441.54Z" fill="#fece2f"/><path d="M270.748,325.54s0,5.7-1.7,22.1l5.7-8.6.4-13.9Z" fill="#fff"/><path d="M256.548,422.04s-15.1,48.9,2.7,73.2c0,0-11.5-38.3,9.9-94.9Z" fill="#fff"/><path d="M250.748,324.44s2.4,27.8-2.1,46.6l6-11.9s2.6-37.2.6-48.1Z" fill="#fff"/><path d="M227.248,454.74s-12.2,33.1-2.7,57.9,34.3,26.2,50.9,10.3,24.3-40.7,30.1-52.8,17.9-42,33.8-43.2l-3.9-2.9s-9.8-1.6-19.6,16.8-23.8,48.1-23.8,48.1-11.6,28.4-27.4,36.2-27.6-1.6-27.6-1.6-11.6-5.3-11-31.6,8.3-41.8,8.3-41.8Z" fill="#fff"/><path d="M349.748,441.54c-5-16.7-35.7-34.1-70.4-33.9l-9.7,11.9s47.5-3.9,67.5,21.1-19.5,82-79.9,109.2l.7.2c22.5-7,42.4-19.7,56.1-33.2C337.948,494.54,355.448,460.34,349.748,441.54Z" fill="#fff"/><path d="M198.748,250.84h15.9s-59.3,5.1-72.5,75.9c-14.1,75.9.6,148.7,49.1,224.1l-5.5-2.4s-49-64.9-52.9-164.3c-2.9-81.7,32.3-113.7,32.3-113.7S171.448,258.44,198.748,250.84Z" fill="#fff"/><path d="M193.948,249.84s-38.8.8-66.5,29.2c-27.6,28.4-35.4,67.2-29.2,120s39,125.6,84.5,148.8c0,0-54.5-47.5-67.9-120.3s.4-126.9,26.2-149.8C166.848,254.74,193.948,249.84,193.948,249.84Z" fill="#fff"/><path d="M350.948,441.14c-5.9-19.6-44.2-38.9-83.5-34.1,10.8-49.8,13.1-82.3,2.1-115.3-9.2-27.5-32.4-42.3-67.1-43-39.1-.7-71.5,16.5-91.3,48.5-7.2,11.7-12.1,26.9-14.5,44h0c-4.4,30.5-1,67.1,10.3,100.9,1.7,5,3.5,10.1,5.5,15.3a.864.864,0,0,0-.3.6,1.174,1.174,0,0,0,1,1.4h.1c15.1,38.5,39.8,80.3,77.6,92.4a101.105,101.105,0,0,0,31.1,4.8,121.469,121.469,0,0,0,38.8-6.5,146.649,146.649,0,0,0,44-23.8c.1-.1.3-.2.4-.3q5.25-4.2,9.9-8.7a144.319,144.319,0,0,0,19.9-23.6,2.651,2.651,0,0,0,.5-.6v-.1C347.548,475.24,355.048,454.94,350.948,441.14Zm-2.3.7c3.3,11.1-1.7,28.4-12.1,45.4,1.2-10.4.7-31.6-20.3-44.7,5.9-10.3,12-17.3,18.8-17.3C342.048,430.44,346.948,436.24,348.648,441.84Zm-28.5-24.8a91.391,91.391,0,0,1,11.7,6.2c-6.6,1.6-12.3,8.5-17.8,18.2-.1-.1-.2-.1-.3-.2-22.1-12.2-45.4-10.2-52-9.2,1.9-7.8,3.6-15.3,5.2-22.3A100.9,100.9,0,0,1,320.148,417.04Zm-155.2,96.1a270.614,270.614,0,0,1-19.4-50.7c5.4.2,11.4.4,17.9.4a467.847,467.847,0,0,0,66.5-4.7c-3.6,15.3-5.6,28.6-5.2,39.6-22.8,10.7-40.8,14.3-53.2,15.2C169.248,513.14,166.948,513.14,164.948,513.14Zm-26.6-183.4a129.028,129.028,0,0,1,21.5.1c47.2,4.2,76.7,19.2,93.3,31.4a294.059,294.059,0,0,1-9.4,46.9c-20.1-6.2-50.9-11.3-80.9-12.7a214.71,214.71,0,0,0-28.4.4C133.148,372.04,134.448,349.14,138.348,329.74Zm24.5,68.1c29.5,1.4,60.4,6.5,80.3,12.6-.4,1.5-.9,3.1-1.4,4.7-4.3,14.5-8.2,28-11.2,40.4a457.071,457.071,0,0,1-85.8,4.4,321.1,321.1,0,0,1-7.4-36.4c-1.2-8.5-2.1-16.9-2.7-25.3A230.447,230.447,0,0,1,162.848,397.84Zm96.1,35.3h0a146.539,146.539,0,0,0-3.1,17.9c-7.7,1.6-15.3,3-22.7,4.2,2.9-12,6.7-25.2,10.9-39.3.5-1.6.9-3.1,1.3-4.7,7.9,2.6,13.8,5.3,16.8,8C261.248,423.74,260.148,428.34,258.948,433.14Zm-26.4,24.6q11.25-1.65,23.1-4.2a121.2,121.2,0,0,0,.2,24.5c.1.8.2,1.5.3,2.2h-.1a260.4,260.4,0,0,1-28.8,16.3C226.848,485.84,229.048,472.74,232.548,457.74Zm23.9,25.2a68.053,68.053,0,0,0,2.9,12.6,1.235,1.235,0,1,0,2.3-.9,79.352,79.352,0,0,1-3.4-17c-.2-1.5-.3-3.2-.4-4.9,4-.3,24.9-1.1,37.1,8.7-12.3,26-26.6,50.4-47.5,45.2-7.4-1.8-12.6-5.6-15.9-11.4-2.5-4.4-3.8-9.8-4.2-16.1A265.536,265.536,0,0,0,256.448,482.94Zm39.5-3.7c-7.3-5.6-17-7.8-24.1-8.6a82.377,82.377,0,0,0-14.2-.4,133.213,133.213,0,0,1,3.5-35.8c4.6-.7,28.7-3.7,51.5,8.8.1.1.2.1.3.2-4,7.3-8,16-12.1,25.2C299.248,472.24,297.648,475.74,295.948,479.24Zm-31.2-71.1c0,.1-.1.2-.1.4-.6,2.6-1.2,5.4-1.8,8.1-3.4-2.6-9.2-5.2-16.7-7.7a308.259,308.259,0,0,0,9.3-46,85.315,85.315,0,0,1,15.3,14.6Q268.348,391.64,264.748,408.14Zm2.5-115.5c8.3,24.7,8.9,49.3,4,81.6a87.932,87.932,0,0,0-15.4-14.2c2.3-21.7.4-33.2.4-33.4a1.224,1.224,0,0,0-1.4-1,1.174,1.174,0,0,0-1,1.4c0,.2,1.8,10.9-.2,31.3q-2.55-1.8-5.4-3.6c-16.1-10.3-44.4-23.4-88-27.3a126.214,126.214,0,0,0-21.2-.2,140.45,140.45,0,0,1,5-17.9,115.9,115.9,0,0,1,16.2-31c17.9-1.6,42.7.3,73.1,13a1.235,1.235,0,1,0,.9-2.3c-29.5-12.3-54-14.6-72-13.4,18.7-22.7,39.4-24.3,40.3-24.3C236.048,251.94,258.348,266.24,267.248,292.64Zm-76.9-40.9a62.564,62.564,0,0,0-10.8,5.3,76.017,76.017,0,0,0-20.8,19,106.383,106.383,0,0,0-11.2,1.7,95.394,95.394,0,0,0-25.4,8.7C139.248,265.94,162.748,253.94,190.348,251.74Zm-77,46.9c1.5-2.4,3.1-4.8,4.7-7a.1.1,0,0,0,.1-.1c.1-.1,10.7-7.8,30.1-11.6,2.6-.5,5.5-1,8.6-1.3a119.509,119.509,0,0,0-15.2,29.8,137.783,137.783,0,0,0-5.2,19c-19.8,1.9-32,8.4-36.8,11.5C102.048,323.34,106.648,309.44,113.348,298.64Zm-14.3,43.6a60.183,60.183,0,0,1,14.9-7.4,95.387,95.387,0,0,1,21.9-4.8c-3.8,19.5-5.1,42.3-3.7,66.1-20,2-29.7,6.6-32,7.9C96.748,382.44,96.348,361.14,99.048,342.24Zm1.5,64.2c.1,0,.2-.1.3-.1.1-.1,9.5-5.6,31.4-7.8.6,8.4,1.4,16.9,2.7,25.4a316.756,316.756,0,0,0,7.3,35.9c-14.1-.7-23.7-1.9-27.2-2.4q-3.15-8.1-5.7-15.9A228.176,228.176,0,0,1,100.548,406.44Zm42.4,55.9a275.635,275.635,0,0,0,19.2,50.8c-12.8-.3-19.6-3.4-19.7-3.4a.367.367,0,0,1-.3-.1c-10.7-15.2-19.3-32.7-26.1-49.6C120.548,460.64,129.948,461.64,142.948,462.34Zm1.7,50.8a71.174,71.174,0,0,0,18.8,2.5,217.164,217.164,0,0,0,18.9,30.4C167.648,538.94,155.148,527.14,144.648,513.14Zm115.4,35c-23.6,7.8-47.3,8.4-68.4,1.6-1.6-.5-3.2-1.1-4.8-1.7,0-.1-.1-.2-.1-.3a210.053,210.053,0,0,1-20.6-32.1c1.7,0,3.5-.1,5.4-.2,18.5-1.3,37-7.4,53.4-15,.5,6.3,1.9,11.8,4.5,16.2,3.6,6.3,9.5,10.6,17.4,12.5a27.046,27.046,0,0,0,6.2.8c19.1,0,32.3-22.6,43.7-46.7,15.5,15,7.6,38.5,6.4,41.6A146.346,146.346,0,0,1,260.048,548.14Zm53.3-32.2a77.292,77.292,0,0,1-6.7,6c2.3-8.4,5.6-27.9-8.8-41.1,1.7-3.7,3.4-7.5,5.1-11.2,4-8.9,8-17.6,12-25,26.6,16.5,18.6,46,18,47.9A124.256,124.256,0,0,1,313.348,515.94Z" fill="#1a1a1a"/><ellipse cx="166.372" cy="284.308" rx="2.1" ry="2.9" transform="matrix(0.002, -1, 1, 0.002, -118.339, 449.99)" fill="#1a1a1a"/><ellipse cx="206.385" cy="255.29" rx="1.7" ry="2.4" transform="translate(-49.405 461.055) rotate(-89.861)" fill="#1a1a1a"/><ellipse cx="176.563" cy="271.118" rx="1.7" ry="2.4" transform="translate(-94.983 447.023) rotate(-89.861)" fill="#1a1a1a"/><ellipse cx="155.366" cy="272.154" rx="2.4" ry="1.7" transform="translate(-37.444 25.11) rotate(-8.25)" fill="#1a1a1a"/><ellipse cx="146.864" cy="284.454" rx="2.4" ry="1.7" transform="matrix(0.99, -0.143, 0.143, 0.99, -39.297, 24.018)" fill="#1a1a1a"/><ellipse cx="130.657" cy="322.465" rx="2.7" ry="1.9" transform="translate(-44.919 22.085) rotate(-8.25)" fill="#1a1a1a"/><ellipse cx="149.792" cy="320.735" rx="2.1" ry="2.9" transform="translate(-171.306 469.749) rotate(-89.861)" fill="#1a1a1a"/><ellipse cx="143.826" cy="389.252" rx="2.1" ry="2.9" transform="translate(-245.774 532.133) rotate(-89.861)" fill="#1a1a1a"/><ellipse cx="126.638" cy="390.528" rx="2.9" ry="2.1" transform="translate(-30.704 11.328) rotate(-4.569)" fill="#1a1a1a"/><ellipse cx="144.253" cy="402.831" rx="2.1" ry="2.9" transform="translate(-258.927 546.107) rotate(-89.861)" fill="#1a1a1a"/><ellipse cx="127.044" cy="404.232" rx="2.9" ry="2.1" transform="translate(-31.794 11.404) rotate(-4.569)" fill="#1a1a1a"/><ellipse cx="245.25" cy="346.27" rx="2.1" ry="2.9" transform="translate(-172.772 419.124) rotate(-64.578)" fill="#1a1a1a"/><path d="M395.848,190.34s16.4-18.3,20.3-50.7c3.9-32.3,3-63.8,5.6-72.4,0,0,4.5-29.5,10.6-40.7,0,0,5.4,1.3,6.5-5.4s-.4-12.1-5.6-9.3c0,0-1.3-8.4-8-5.2,0,0-3.2-6.5-8.6-2.2,0,0-4.3-7.8-11-.6-6.7,7.1-6,13.6-6,13.6s-6.9,1.1-14.7,23.1-19,42.9-27.4,78.2-11.6,46.1-11.6,46.1,1.7,12.7,17,23.7S395.848,190.34,395.848,190.34Z" fill="#fece2f"/><path d="M391.848,61.74s-12.5,19.8-17.1,51.5c-5,34.4-11.2,60.9-19.4,65.1l-2.3-1.9s7.9-7,13.2-39.5,13-68.1,21.8-77.8Z" fill="#fff"/><path d="M421.648,67.24a1.75,1.75,0,0,1,.1-.5l-4.5,1.4s-3.6.5-5,32c-1,24.4,2.9,53.6-24.8,92.4l7.4-1.8a7.86,7.86,0,0,1,.9-.4s16.4-18.3,20.3-50.7C419.948,107.34,419.048,75.94,421.648,67.24Z" fill="#fff"/><path d="M346.148,163.54l3.4,6.9c11.7-57.2,33.8-115.4,33.8-115.4l-2.7-3.7c-7.3,18.4-16.3,37.9-23.3,67.4C350.648,147.24,347.248,159.74,346.148,163.54Z" fill="#fff"/><path d="M345.548,163.24s1.7,12.1,18.8,22.2c17,10.1,31.5,5,31.5,5s5.8,8-2.2,10.1c0,0,2.6,6.3-3.2,7.5,0,0,.9,10.3-13.1,10.1s-30.6-11-38.4-18.8-9.1-18.1-5-20.3c0,0-.2-8.4,5.6-10.6C339.548,168.54,338.948,162.94,345.548,163.24Z" fill="#fece2f"/><path d="M350.048,172.74c-3.9-5.4-4.5-9.6-4.5-9.6-6.7-.2-6,5.4-6,5.4-5.8,2.2-5.6,10.6-5.6,10.6-3.3,1.8-3.1,9,1.3,15.8a31.268,31.268,0,0,1,6.2-13.6C344.348,177.54,348.248,175.44,350.048,172.74Z" fill="#fff"/><path d="M367.748,187.24c2.6,1.2,4.6,9.9,4.3,13.4-.5,5.7-2.4,11.3-6.6,15.2a38.284,38.284,0,0,0,11.7,2.2c14,.2,13.1-10.1,13.1-10.1,5.8-1.3,3.2-7.5,3.2-7.5,8-2.2,2.2-10.1,2.2-10.1S383.248,194.84,367.748,187.24Z" fill="#fff"/><path d="M384.648,202.54a44.848,44.848,0,0,1-27.8-9.7c-20.4-15.9-18.6-25.4-18.1-27.2a4.744,4.744,0,0,1,2.8-3.3,6.2,6.2,0,0,1,4.9.7,1.157,1.157,0,0,1,.5.7c0,.1,4.5,14.3,21.5,22.7,17,8.3,26,3.3,26.1,3.2a1.275,1.275,0,0,1,1.2,0,6.067,6.067,0,0,1,2.7,6,6.486,6.486,0,0,1-4.9,5.7A28.856,28.856,0,0,1,384.648,202.54Zm-41.5-38a1.7,1.7,0,0,0-.7.1c-.6.2-1,.8-1.3,1.8-1,3.3,1.4,12.1,17.3,24.5,14,11,29.7,9.6,34.6,8.1a3.965,3.965,0,0,0,3.1-3.6,4.512,4.512,0,0,0-1-3.3c-2.6,1.2-12.1,4.1-27.7-3.5-16.4-8-21.6-20.9-22.6-23.7A7.091,7.091,0,0,0,343.148,164.54Z" fill="#1a1a1a"/><path d="M380.848,210.54a46.036,46.036,0,0,1-20.7-4.9c-20.4-11.1-24.4-21.4-25.7-24.8-1.5-3.8-1.5-6.9-.2-9.4a7.963,7.963,0,0,1,5.3-3.8,1.217,1.217,0,1,1,.4,2.4,5.45,5.45,0,0,0-3.6,2.6c-1,1.8-.9,4.2.3,7.3,1.2,3.2,5,12.9,24.6,23.5,8.9,4.8,26,6.6,30.8,1.7.7-.7,1.5-2,.1-4.5a1.253,1.253,0,0,1,2.2-1.2c2.1,3.8.6,6.2-.5,7.4C391.448,209.44,386.548,210.54,380.848,210.54Z" fill="#1a1a1a"/><path d="M383.648,44.04a1.7,1.7,0,0,1,.7.1c.3-.8.6-1.6.9-2.3a1.252,1.252,0,0,0-.7-1.6,1.351,1.351,0,0,0-1.6.7c-.5,1.2-1,2.4-1.5,3.7A3.8,3.8,0,0,1,383.648,44.04Z" fill="#1a1a1a"/><path d="M379.648,49.34q-2.85,7.5-6.3,16.8c-15.3,40.8-28.5,97.2-28.7,97.8a1.258,1.258,0,0,0,.9,1.5h.3a1.2,1.2,0,0,0,1.2-.9c.1-.6,13.3-56.9,28.6-97.5,2.1-5.5,4-10.6,5.7-15.1A4.425,4.425,0,0,1,379.648,49.34Z" fill="#1a1a1a"/><path d="M399.348,19.04h-.1a1.208,1.208,0,0,1-1.1-1.3c.1-.5,1.5-13.5,10.1-17.1a6.357,6.357,0,0,1,7.5,1.4c3.6,3.7,4,11.5,1.9,15.9a1.208,1.208,0,0,1-2.2-1c1.8-4,1.1-10.5-1.5-13.2a4.012,4.012,0,0,0-4.8-.8c-7.3,3-8.6,14.9-8.6,15A1.133,1.133,0,0,1,399.348,19.04Z" fill="#1a1a1a"/><path d="M421.548,22.44a1.854,1.854,0,0,1-.7-.2,1.268,1.268,0,0,1-.3-1.7c.1-.1,5.4-7.5,3.2-13.1q-1.05-2.55-2.7-3c-1.9-.5-4,1.1-4,1.1a1.248,1.248,0,0,1-1.7-.2,1.248,1.248,0,0,1,.2-1.7c.1-.1,3-2.4,6.1-1.5,1.9.5,3.3,2,4.3,4.4,2.7,6.8-3.2,15.1-3.5,15.4A.874.874,0,0,1,421.548,22.44Z" fill="#1a1a1a"/><path d="M426.248,26.04a7.375,7.375,0,0,1-5.7-3.2,1.221,1.221,0,0,1,2-1.4c.1.1,2.2,3,5,1.8,2.6-1.1,4.3-7.5,3.3-12.7-.3-1.7-.9-2.8-1.8-3.2-1.3-.6-3.1.3-3.7.7a1.188,1.188,0,0,1-1.7-.4,1.188,1.188,0,0,1,.4-1.7c.1-.1,3.2-2,5.9-.8,1.7.7,2.8,2.4,3.3,5,1.1,5.9-.6,13.7-4.8,15.4A4.193,4.193,0,0,1,426.248,26.04Z" fill="#1a1a1a"/><path d="M420.248,67.84a212.051,212.051,0,0,0-2.2,21.3c-.3,4.6-.5,9.3-.6,13.7-1.4,31.8-2.6,61.8-23.2,87.1a1.248,1.248,0,0,0,.2,1.7,1.135,1.135,0,0,0,.8.3,1.389,1.389,0,0,0,1-.5c21.1-25.9,22.4-56.3,23.8-88.5.2-4.5.4-9.1.6-13.7.4-8,1.3-15.4,2.3-22.2-.3.1-.6.1-1,.2A5.775,5.775,0,0,1,420.248,67.84Z" fill="#1a1a1a"/><path d="M432.648,25.64a1.2,1.2,0,0,0-1.6.6c-.1.2-5.2,12-9,31.7a3.928,3.928,0,0,1,2.3.7c3.8-19.5,8.9-31.3,8.9-31.4A1.2,1.2,0,0,0,432.648,25.64Z" fill="#1a1a1a"/><path d="M383.948,41.24s12.8,18.3,39.2,16.8c0,0,4.2,1.1,3.4,4.9-1.4,6.6-20.6,5.5-32.9-.6C377.348,54.14,373.748,41.04,383.948,41.24Z" fill="#fff"/><path d="M415.448,68.64a53.258,53.258,0,0,1-22.4-5.3c-11.9-6-17.1-14.3-15.9-19.2.7-2.7,3.1-4.2,6.8-4.2a1.231,1.231,0,0,1,1,.5c.1.2,12.7,17.7,38.1,16.3h.4c1.8.5,5.1,2.5,4.3,6.3-.2,1.2-1.1,2.8-3.5,3.9C422.048,68.14,418.948,68.64,415.448,68.64Zm-32.1-26.2c-1.6.1-3.3.6-3.8,2.3-.8,3.3,3.3,10.8,14.6,16.4,9.4,4.7,23.2,6.5,29,3.7,1.2-.6,2-1.3,2.2-2.2.5-2.2-1.7-3.1-2.4-3.4C398.848,60.54,385.748,45.54,383.348,42.44Z" fill="#1a1a1a"/><path d="M353.048,177.74a1.135,1.135,0,0,1-.8-.3,1.151,1.151,0,0,1-.1-1.7c.1-.1,9.3-11.5,14.9-51.4,5.7-40.7,19.8-65.5,19.9-65.8a1.253,1.253,0,0,1,2.2,1.2c-.1.2-14,24.7-19.6,64.9-5.7,40.8-15.1,52.2-15.5,52.6A1.6,1.6,0,0,1,353.048,177.74Z" fill="#1a1a1a"/><path d="M410.948,137.34c-42.2,0-52-24.2-52.4-25.3a1.235,1.235,0,1,1,2.3-.9h0c.1.3,10.4,25.6,55.2,23.6a1.251,1.251,0,0,1,.1,2.5C414.348,137.34,412.648,137.34,410.948,137.34Z" fill="#1a1a1a"/><path d="M382.848,217.34s-27.3,47.9-61.3,81.4-49.6,35.7-66.5,28c-14.4-6.6-20.5-22.4-21-32-1.5-26,26.7-52.7,38.5-63,17.6-15.4,59-43.2,59-43.2s3.8,12.3,20.2,20.8S375.848,218.14,382.848,217.34Z" fill="#fece2f"/><path d="M237.848,310.74s17.1-20.9,49-51c34-32,61-52.4,61-52.4l-2.6-2.1s-37.8,28.1-64.9,54.7c-27.2,26.7-43.8,45.9-43.8,45.9Z" fill="#fff"/><path d="M377.248,218.14s-15.5,26.9-53.8,69.9c-24.5,27.4-46.2,38.8-75.8,33.9a31.08,31.08,0,0,0,7.4,4.7c16.9,7.7,32.5,5.5,66.5-28s61.3-81.4,61.3-81.4Z" fill="#fff"/><path d="M331.548,188.54s-41.4,27.9-59,43.2c-11.8,10.3-40,37-38.5,63,.2,3.2-2.8-18.2,37.7-55.7,27.2-25.2,61.3-45.7,61.9-46C330.948,189.14,331.548,188.54,331.548,188.54Z" fill="#fff"/><path d="M270.248,331.64c-5.4,0-10.5-1.5-15.7-3.8-16.1-7.3-21.2-24.8-21.7-33-1.4-24.9,23.8-50.8,38.9-64,17.5-15.2,58.7-43,59.1-43.3a1.221,1.221,0,0,1,1.4,2c-.4.3-41.5,28-58.9,43.1-14.8,12.9-39.4,38.1-38.1,62,.5,9,6.3,24.6,20.3,31,16.4,7.5,31.6,5.3,65.1-27.8,33.5-33,60.8-80.6,61.1-81.1a1.253,1.253,0,0,1,2.2,1.2c-.3.5-27.8,48.4-61.5,81.6C298.148,323.54,283.048,331.64,270.248,331.64Z" fill="#1a1a1a"/><path d="M330.348,291.14h-.2c-42.5-8.1-58.6-58.5-58.8-59a1.2,1.2,0,1,1,2.3-.7c.2.5,15.8,49.5,56.9,57.3a1.224,1.224,0,0,1,1,1.4A1.188,1.188,0,0,1,330.348,291.14Z" fill="#1a1a1a"/><path d="M236.548,307.64a1.33,1.33,0,0,1-.8-.3,1.248,1.248,0,0,1-.2-1.7c.1-.1,10.8-13,47.2-49.2,36.5-36.2,61.7-52,61.9-52.2a1.235,1.235,0,1,1,1.3,2.1c-.2.2-25.2,15.8-61.5,51.8-36.3,36.1-46.9,48.9-47,49A1.193,1.193,0,0,1,236.548,307.64Z" fill="#1a1a1a"/><path d="M376.948,219.04c-5.3,0-13-1.5-23.2-7-16-8.6-21.4-18.5-23.1-25.3-1.4-5.8,1.7-8.5,3.6-9.1a1.2,1.2,0,0,1,.7,2.3c-.3.1-3.2,1.3-2,6.2,1.3,5.2,5.8,15.1,21.9,23.7,10.8,5.8,21,8,27.9,5.9,7.3-2.2,6.4-7.1,6.4-7.3a1.217,1.217,0,0,1,2.4-.4c0,.1,1.3,7.3-8,10.1A21.274,21.274,0,0,1,376.948,219.04Z" fill="#1a1a1a"/><path d="M384.048,42.54a.9.9,0,0,1-.5-.1,1.351,1.351,0,0,1-.7-1.6c6.4-16,9.9-21.2,15.9-24.1s15-2.6,20.1.7c2.5,1.6,3.8,3.7,3.8,6.2a5.166,5.166,0,0,1-1.7,3.8,13.07,13.07,0,0,1-5.3,2.5,37.5,37.5,0,0,1,9.5,4.6,1.221,1.221,0,1,1-1.4,2,35.273,35.273,0,0,0-15.9-5.8c-2.7,0-4.8-.1-5.3-.1a1.278,1.278,0,0,1-1.1-1.2,1.2,1.2,0,0,1,1.1-1.2,34.266,34.266,0,0,1,5.5.1c4.2-.1,9.1-.7,11.2-2.7a2.665,2.665,0,0,0,.9-2c0-1.6-.9-3-2.7-4.1-4.4-2.8-12.5-3-17.8-.5s-8.6,7.6-14.7,22.8C385.048,42.24,384.548,42.54,384.048,42.54Z" fill="#1a1a1a"/><path d="M405.148,17.44a.756.756,0,0,1-.4-.1,1.245,1.245,0,0,1-.8-1.5l2.6-8.4a1.2,1.2,0,0,1,2.3.7l-2.6,8.4C406.248,17.14,405.748,17.44,405.148,17.44Z" fill="#1a1a1a"/><path d="M433.048,28.14c-3,0-4.2-3.2-4.4-5a1.2,1.2,0,1,1,2.4-.2s.3,3,2.1,2.8c1.4-.1,2.3-1.3,2.9-2.2a11.784,11.784,0,0,0,.7-9.7c-.3-.6-.7-1.3-1.3-1.4a2.845,2.845,0,0,0-2.1,1.2,1.2,1.2,0,1,1-1.8-1.6c.2-.2,2.1-2.3,4.4-2a4.235,4.235,0,0,1,3.1,2.9,14.183,14.183,0,0,1-.8,11.9,6.332,6.332,0,0,1-4.7,3.4C433.348,28.04,433.248,28.14,433.048,28.14Z" fill="#1a1a1a"/><path d="M179.748,145.24c13.8-2,26.3,12.6,28.2,40.1,2,27.9-8.5,48.3-23.4,47.3-15-1-23.8-24.8-24.2-47.9C159.848,159.64,170.648,146.54,179.748,145.24Z" fill="#fece2f"/><path d="M191.448,153.94a18.291,18.291,0,0,1,7,.4c-5.1-7-11.7-10.2-18.7-9.2-9,1.3-19.9,14.5-19.4,39.5.4,22,8.4,44.6,22.2,47.6-6.5-9.2-10.2-24.2-10.4-38.8C171.548,168.44,182.448,155.24,191.448,153.94Z" fill="#fff"/><path d="M209.148,185.24c-1.2-17-6.4-30.1-14.7-36.8a19.636,19.636,0,0,0-9.9-4.4,1.949,1.949,0,0,0-.8-.1,19.673,19.673,0,0,0-4.2.1h0c-5.2.7-10.4,4.9-14.1,11.4-3,5.3-6.6,14.6-6.3,29.3.2,11.9,2.7,23.8,6.7,32.7,4.7,10.2,11.1,15.9,18.6,16.4h1.1a17.885,17.885,0,0,0,12.6-5.5C206.348,220.04,210.448,203.94,209.148,185.24Zm-2.7-3.1a43.538,43.538,0,0,0-11-1.8c-1.7-19.3-6-29-8.6-33.3a18.234,18.234,0,0,1,6.1,3.3C200.048,156.04,204.848,167.54,206.448,182.14Zm-26.6-35.7h0a13.807,13.807,0,0,1,3.5-.1c1.4,1.8,7.4,10.7,9.6,33.9-14.9.1-27,7.1-31.2,9.8l-.3-5.4C161.048,158.84,172.548,147.54,179.848,146.44Zm4.7,84.9c-8.2-.6-13.6-8.5-16.6-15a76.329,76.329,0,0,1-6-23.5c2.2-1.5,15-10.1,31.2-10.2.1.8.1,1.7.2,2.6,1.8,29.3-4.5,44.4-5.2,45.8A10.542,10.542,0,0,1,184.548,231.34Zm11.8-4.8a17.4,17.4,0,0,1-5.2,3.6c1.9-5.2,6.1-19.9,4.6-45.1a19.419,19.419,0,0,0-.2-2.4,43.3,43.3,0,0,1,11,2,1.268,1.268,0,0,0,.1.6C207.948,203.44,204.148,218.84,196.348,226.54Z" fill="#1a1a1a"/><ellipse cx="162.523" cy="205.334" rx="7.6" ry="23.899" transform="translate(-42.035 41.836) rotate(-13.004)" fill="#fff"/><ellipse cx="162.111" cy="207.942" rx="3.7" ry="15.099" transform="translate(-42.632 41.81) rotate(-13.004)" fill="#1a1a1a"/><path d="M176.348,201.14c-2.7-11.9-8.7-23.8-14.2-22.5-.1,0-.1,0-.2.1l-5.2,2.2c-5.4,1.5-5.5,14.7-2.8,26.4,2.6,11.3,8.1,22.6,13.4,22.6a1.949,1.949,0,0,0,.8-.1c.2-.1.5-.1.7-.2h.1a.9.9,0,0,0,.5-.1l4.2-1.9C178.448,225.04,179.448,214.94,176.348,201.14Zm-20,5.6c-3.1-13.3-1.6-22.4.9-23.5.7.2,2.7,1.1,5.1,4,2.3,3.5,4.7,9.1,6.5,16.6,3.2,13.7,1.5,22.9-1.1,23.5C165.048,228.04,159.448,220.44,156.348,206.74Z" fill="#1a1a1a"/><path d="M247.248,114.84a3.585,3.585,0,0,0-3.6,3.6c0,.3.1.6.1.9l-3.6,2.2-2.3,1.4-1.1.7-1.1.8-4.4,3.1c-.7.5-1.5,1-2.2,1.6l-2,1.6-4.2,3.4-3.9,3.7c-.6.6-1.3,1.2-2,1.8l-1.8,2c-1.2,1.3-2.5,2.6-3.7,4a121.432,121.432,0,0,0-12.6,17.5c-.9,1.5-1.8,3.1-2.6,4.7-.8,1.5-1.5,3-2.2,4.5a6.687,6.687,0,0,0-4.9,2.6,15.981,15.981,0,0,0-3.4,7.3,16.518,16.518,0,0,0,.1,8c.8,2.6,2.3,4.2,4.2,4.6a2.769,2.769,0,0,0,.9.1,6.671,6.671,0,0,0,4.8-2.6,15.981,15.981,0,0,0,3.4-7.3,16.518,16.518,0,0,0-.1-8,12.239,12.239,0,0,0-1-2.3c0-.1,0-.1.1-.2.7-1.6,1.3-3.2,2.1-4.7.8-1.6,1.5-3.1,2.4-4.6a105.8,105.8,0,0,1,11.6-17.2c1.1-1.4,2.3-2.6,3.4-3.9l1.7-2,1.8-1.8,3.7-3.7,3.9-3.4,2-1.7c.7-.6,1.4-1.1,2.1-1.6l4.2-3.2,1-.8,1.1-.7,2.2-1.4,3.6-2.4a3.771,3.771,0,0,0,2.1.7,3.585,3.585,0,0,0,3.6-3.6A3.338,3.338,0,0,0,247.248,114.84Z" fill="#1a1a1a"/><path d="M227.448,110.54a3.594,3.594,0,0,0-3.3,3.9,2.92,2.92,0,0,0,.2.9l-3.4,2.5-2.2,1.6-1.1.8-1,.9-4.1,3.4c-.7.6-1.4,1.1-2,1.7l-1.9,1.9-3.9,3.7-3.6,4c-.6.7-1.2,1.3-1.8,2l-1.7,2.1c-1.1,1.4-2.3,2.8-3.3,4.2-.8,1.1-1.6,2.3-2.4,3.4a7.294,7.294,0,0,1,2.9,2.6c.8-1.3,1.6-2.6,2.5-3.8,1-1.5,2.1-2.8,3.1-4.2l1.6-2.1c.5-.7,1.1-1.3,1.7-2l3.4-4,3.7-3.7,1.8-1.9c.6-.6,1.3-1.2,1.9-1.8l3.9-3.5,1-.9,1-.8,2.1-1.6,3.4-2.6a3.645,3.645,0,0,0,2.1.5,3.594,3.594,0,0,0,3.3-3.9A3.727,3.727,0,0,0,227.448,110.54Z" fill="#1a1a1a"/></g></g>
            </g>
        </g>
    </g>
    
    <!-- ITEM 1 -->
    <g>
        <defs>
            <clipPath id="clip-path-id-viewbox-item-1">
                <rect x="0.0" y="0.0" width="376.953" height="169.0"/>
            </clipPath>
        </defs>
        <g transform="translate(44.0 79.0) rotate(0.0 -21.5 9.5) scale(-0.11407257668727933 0.11242603550295859)">
            <g clip-path="url(#clip-path-id-viewbox-item-1)" transform="translate(-0.0 -0.0)">
                <title>laptop_pc_back</title><g id="a7ad861c-3d9c-4dae-aca2-63ece22ec223-i1" data-name="Layer 2"><g id="a7fc6c37-3586-4bfd-a3a7-255eba95bd47-i1" data-name="laptop_pc_back"><rect x="1.5" y="154.5" width="237" height="13" rx="6" fill="#ffce31"/><path d="M232.5,169H7.5A7.508,7.508,0,0,1,0,161.5v-1A7.508,7.508,0,0,1,7.5,153h225a7.508,7.508,0,0,1,7.5,7.5v1A7.508,7.508,0,0,1,232.5,169ZM7.5,156A4.505,4.505,0,0,0,3,160.5v1A4.505,4.505,0,0,0,7.5,166h225a4.505,4.505,0,0,0,4.5-4.5v-1a4.505,4.505,0,0,0-4.5-4.5Z" fill="#1a1a1a"/><path d="M370.6,1.5H145.7a7.827,7.827,0,0,0-7.267,6.035l-32.554,153.73a4.729,4.729,0,0,0,4.719,6.035H335.5a7.825,7.825,0,0,0,7.267-6.035L375.32,7.535A4.729,4.729,0,0,0,370.6,1.5Z" fill="#ffce31"/><path d="M335.5,168.8H110.593a6.255,6.255,0,0,1-4.98-2.261,6.627,6.627,0,0,1-1.207-5.583L136.961,7.225A9.276,9.276,0,0,1,145.7,0H370.6a6.256,6.256,0,0,1,4.981,2.262,6.621,6.621,0,0,1,1.206,5.583L344.233,161.576A9.276,9.276,0,0,1,335.5,168.8ZM145.7,3a6.355,6.355,0,0,0-5.8,4.845L107.341,161.576a3.6,3.6,0,0,0,.6,3.073,3.312,3.312,0,0,0,2.65,1.151H335.5a6.354,6.354,0,0,0,5.8-4.844L373.853,7.225a3.607,3.607,0,0,0-.6-3.074A3.318,3.318,0,0,0,370.6,3Z" fill="#1a1a1a"/><path d="M212.57,85.822l2.452-8.154a5.234,5.234,0,0,1,5.111-4.168h46.231a3.151,3.151,0,0,1,3.066,3.813l-2.452,8.154a5.234,5.234,0,0,1-5.111,4.168H215.636A3.15,3.15,0,0,1,212.57,85.822Z" fill="#ffce31"/><path d="M261.867,91.135H215.636a4.609,4.609,0,0,1-3.593-1.715,4.656,4.656,0,0,1-.941-3.908c.009-.041.019-.082.031-.122l2.436-8.1A6.766,6.766,0,0,1,220.133,72h46.231a4.609,4.609,0,0,1,3.593,1.715,4.656,4.656,0,0,1,.941,3.908c-.009.042-.019.082-.031.123l-2.436,8.1A6.765,6.765,0,0,1,261.867,91.135Zm-47.84-4.951a1.659,1.659,0,0,0,.347,1.346,1.617,1.617,0,0,0,1.262.605h46.231a3.752,3.752,0,0,0,3.643-2.977c.009-.042.019-.082.031-.123l2.432-8.084a1.66,1.66,0,0,0-.347-1.346A1.617,1.617,0,0,0,266.364,75H220.133a3.752,3.752,0,0,0-3.643,2.978c-.009.041-.019.082-.031.122Z" fill="#1a1a1a"/></g></g>
            </g>
        </g>
    </g>
    
</svg>