<?xml version="1.0" encoding="UTF-8"?><svg version="1.1" xmlns="http://www.w3.org/2000/svg" xmlns:xlink="http://www.w3.org/1999/xlink" viewBox="0 0 900 650" width="900" height="650" x="0px" y="0px">
              
              <!-- ITEM 0 -->
<g>
    <defs>
        
        <clipPath id="clip-path-id-viewbox-item-0">
            <rect x="0.0" y="0.0" width="57.909" height="52.942"/>
        </clipPath>
    </defs>
    <g transform="translate(73.0 0.0) rotate(0.0 356.5 325.0) scale(12.31242121259217 12.27758679309433)">
      <g clip-path="url(#clip-path-id-viewbox-item-0)" transform="translate(-0.0 -0.0)">
      <title>Asset 4</title><g id="Layer_2-i0" data-name="Layer 2"><g id="Layer_1-2-i0" data-name="Layer 1"><polygon points="0.016 20.371 28.962 52.942 18.913 20.371 0.016 20.371" fill="#fcbcb3"/><polygon points="0 20.353 0.016 20.371 10.895 5.872 0 20.353" fill="#fcbcb3"/><polygon points="28.962 5.872 10.895 5.872 18.913 20.371 28.962 5.872" fill="#d6330a"/><polygon points="10.895 5.872 0.016 20.371 18.913 20.371 10.895 5.872" fill="#e51e03"/><polygon points="57.909 20.371 28.962 52.942 39.012 20.371 57.909 20.371" fill="#e51e03"/><polygon points="28.962 5.872 47.029 5.872 39.012 20.371 28.962 5.872" fill="#e51e03"/><polygon points="47.029 5.872 57.909 20.371 39.012 20.371 47.029 5.872" fill="#d6330a"/><polygon points="18.913 20.371 28.962 52.942 39.012 20.371 18.913 20.371" fill="#d6330a"/><polygon points="28.962 5.872 18.913 20.371 39.012 20.371 28.962 5.872" fill="#fcbcb3"/><polygon points="48.411 9.916 55.564 8.534 48.411 7.153 47.029 0 45.648 7.153 38.495 8.534 45.648 9.916 47.029 17.069 48.411 9.916" fill="#ffccb5"/></g></g>
      </g>
    </g>
</g>

              </svg>