<?xml version="1.0" encoding="UTF-8"?><svg version="1.1" xmlns="http://www.w3.org/2000/svg" xmlns:xlink="http://www.w3.org/1999/xlink" viewBox="0 0 1200 800" width="1200" height="800" x="0px" y="0px">
              
              <!-- ITEM 0 -->
<g>
    <defs>
        
        <clipPath id="clip-path-id-viewbox-item-0">
            <rect x="0.0" y="0.0" width="370.454" height="518.4"/>
        </clipPath>
    </defs>
    <g transform="translate(785.0 140.0) rotate(0.0 -185.0 259.0) scale(-0.9987744767231559 0.9992283950617284)">
      <g clip-path="url(#clip-path-id-viewbox-item-0)" transform="translate(-0.0 -0.0)">
      <title>stork_holding</title><g id="Layer_2-i0" data-name="Layer 2"><g id="stork_holding-i0"><path d="M58.254,61.5a.756.756,0,0,1-.4-.1,1.081,1.081,0,0,1-.7-1.4,110.024,110.024,0,0,1,30.4-43.3,1.134,1.134,0,0,1,1.5,1.7,109.266,109.266,0,0,0-29.8,42.3A.974.974,0,0,1,58.254,61.5Z" fill="#1a1a1a"/><path d="M274.254,216.2l36.8,271-15.5-2.7s-37.2-266-36.8-267.2S274.254,216.2,274.254,216.2Z" fill="#fff"/><polygon points="265.354 216.4 302.254 492.2 294.654 477.7 259.754 221 265.354 216.4" fill="#fece2f"/><path d="M344.354,511.1l-31.3-16.9-21.4-157.9v-.4L275.354,216a1.16,1.16,0,0,0-2.3.3l.2,1.7c-1.5,1.2-2.8-5.7-8.6-4.1l-4.6,2a1.16,1.16,0,0,0-2.3.3l40.4,298.3c.1.4.4.9.9.9a147.138,147.138,0,0,0,16.8,2.5c3.2.3,6.2.4,9,.4,8.1,0,14.6-1.1,19.3-3.4a2.3,2.3,0,0,0,1.3-2A1.92,1.92,0,0,0,344.354,511.1Zm-56-86.9a30.012,30.012,0,0,0,6.5.7,41,41,0,0,0,6.5-.6l3.5,26c-2.5.5-8.2,1.3-13-.2Zm-15.7-116.7a30.525,30.525,0,0,0,6,.6,46.015,46.015,0,0,0,6.9-.6l3.8,27.8c-2.3.4-8.1,1.1-12.7-.2h-.3Zm8.6-31.8c-2.3.4-8.1,1.1-12.7-.1h-.2l-3.8-28.1a30.525,30.525,0,0,0,6,.6,36.43,36.43,0,0,0,6.9-.6Zm-6.6,2.8a35.214,35.214,0,0,0,6.8-.6l3.7,27.4c-2.2.4-8.1,1.1-12.8-.1h-.1l-3.7-27.3A33.13,33.13,0,0,0,274.654,278.5Zm8.2,59.6a36.069,36.069,0,0,0,6.8-.6l3.6,26.7c-2.3.4-8.3,1.3-12.7-.2h-.3l-3.6-26.5A26.08,26.08,0,0,0,282.854,338.1Zm3.7,29.1a50.551,50.551,0,0,0,7-.6l3.6,26.7c-2,.4-7.8,1.5-12.9-.1h-.1l-3.6-26.5A40.473,40.473,0,0,0,286.554,367.2Zm4,28.9a32.8,32.8,0,0,0,6.8-.7l3.6,26.7a30.455,30.455,0,0,1-12.8-.2h-.2l-3.6-26.4A35.038,35.038,0,0,0,290.554,396.1Zm-15-162.2,1.5,11.2c-2.2.4-8,1.1-12.7-.1C265.354,242.5,268.554,235.7,275.554,233.9Zm20.2,244.1-3.5-25.5a25.158,25.158,0,0,0,6,.7,37.939,37.939,0,0,0,7-.7l3.5,25.6A30.574,30.574,0,0,1,295.754,478Z" fill="#191919"/><path d="M295.654,477.9l4.8,35.7c.9.2,2.4.5,4.4.8l-4.5-35.7Z" fill="#fff"/><path d="M161.054,108.5c-2.3.6-3.9-3.1-9-3.2-10-.1-2.5,16.6,7.3,29.9s28.5,40.1,40,34.9c3.1-1.4,8.6-7.8,5.6-23.9s-14.7-39.7-27.5-34C177.454,112.1,168.854,106.3,161.054,108.5Z" fill="#fff"/><path d="M206.054,145.9a77.125,77.125,0,0,0-6.9-19.9c-2.6-5-6.8-11.6-12.3-14.4a10.833,10.833,0,0,0-9.9-.4h-.1a19.411,19.411,0,0,0-16-3.8c-2.6-2.1-5.6-3.5-8.9-3.2-3.2.3-4.6,1.9-5.2,3.2-1.2,2.7-.5,7,2,12.6a87.875,87.875,0,0,0,9.6,15.8c.7,1,1.5,2.1,2.4,3.2,9.9,13.3,24.2,32.8,35.4,32.8a8.627,8.627,0,0,0,3.6-.8C200.854,170.5,209.854,165.8,206.054,145.9Zm-7.1,23c-4.2,1.9-10.1-1-17.7-8.6-6.7-6.7-13.6-16-18.6-22.7-.8-1.1-1.6-2.2-2.4-3.2-8.7-11.6-13.3-22.1-11.4-26.1.5-1.2,1.6-1.8,3.3-1.9,9.1-.8,16,14.6,16.1,14.8a1.142,1.142,0,1,0,2.1-.9,44.231,44.231,0,0,0-7.3-11c6-.7,11.3,1.6,15.7,6.7a31.761,31.761,0,0,1,5.3,9.1,1.053,1.053,0,0,0,1,.8.367.367,0,0,0,.3-.1,1.081,1.081,0,0,0,.7-1.4,34.5,34.5,0,0,0-5.7-9.8c-.6-.6-1.1-1.2-1.7-1.8a9.117,9.117,0,0,1,7,.7c8.2,4.3,15.7,20,18.1,32.8C207.354,164.9,199.254,168.8,198.954,168.9Z" fill="#191919"/><path d="M313.254,156s-.4-21.2-19.4-40.5c-14.1-14.4-32.4-17.3-40.9-17.8a134.162,134.162,0,0,0-5.5-18.1c-5.2-14-14.7-34.2-30.7-50.9a93.932,93.932,0,0,0-26.8-19.8,77.858,77.858,0,0,0-34.2-7.8h-.3c-38,.1-68.7,22.6-88.7,65-14.4,30.7-18.2,60.9-18.4,62.2a9.883,9.883,0,0,0,8.6,11c.4,0,.8.1,1.2.1a9.917,9.917,0,0,0,9.8-8.7c0-.3,3.6-28.7,16.8-56.5,16.7-35.2,40.5-53.1,70.7-53.2h.2c17.4,0,33.1,7.2,46.8,21.5,15.3,15.9,25.5,38.1,30.5,57-25.5,6.4-45.7,28.3-48,43.5-2.7,18.1-4.2,54.2,24.7,72.8s57.3,15,80.7-3.1C314.054,194.5,313.254,156,313.254,156Z" fill="#fff"/><polygon points="232.854 228 199.054 489.6 185.454 477.7 220.154 214.4 232.854 228" fill="#fff"/><polygon points="189.154 481 224.154 218.7 220.154 214.4 185.454 477.7 189.154 481" fill="#fece2f"/><path d="M234.054,218.6a1.13,1.13,0,0,0-1.3,1l-33.5,258.5a28.8,28.8,0,0,1-12.8,0l33.4-258.2a1.16,1.16,0,1,0-2.3-.3l-35.5,274.7-30.9,16.6a2.485,2.485,0,0,0-1.3,2.2,2.313,2.313,0,0,0,1.4,2.1c5.3,2.4,12.2,3.2,19.1,3.2a128.446,128.446,0,0,0,25.6-2.9,1.352,1.352,0,0,0,.9-.9l38.2-294.7A1.146,1.146,0,0,0,234.054,218.6Z" fill="#191919"/><path d="M183.654,495.9l-30,16.1c7.4.8,25.2-9.3,31-12.8a4.527,4.527,0,0,0,2.2-3.4l2.5-17.4-2.9-.6-2.2,17.1C184.154,495.5,184.054,495.8,183.654,495.9Z" fill="#fff"/><path d="M197.154,453.2a43.228,43.228,0,0,1-8.5-1,1.14,1.14,0,0,1,.6-2.2c.1,0,8.2,2.1,14.5,0a1.107,1.107,0,1,1,.7,2.1A23.11,23.11,0,0,1,197.154,453.2Z" fill="#191919"/><path d="M200.354,424.9a29.6,29.6,0,0,1-7.7-.9,1.14,1.14,0,0,1,.6-2.2h0a30.522,30.522,0,0,0,13.7,0,1.14,1.14,0,0,1,.6,2.2A31.5,31.5,0,0,1,200.354,424.9Z" fill="#191919"/><path d="M204.054,396.1a35.156,35.156,0,0,1-7.9-1,1.14,1.14,0,1,1,.6-2.2c.1,0,7.4,2.1,13.6,0a1.107,1.107,0,0,1,.7,2.1A19.311,19.311,0,0,1,204.054,396.1Z" fill="#191919"/><path d="M208.654,367.2a36.963,36.963,0,0,1-8.2-.9,1.079,1.079,0,1,1,.5-2.1c.1,0,8.1,1.8,13.7,0a1.107,1.107,0,0,1,.7,2.1A25.17,25.17,0,0,1,208.654,367.2Z" fill="#191919"/><path d="M212.354,338.1a37.491,37.491,0,0,1-8-.8,1.118,1.118,0,0,1,.4-2.2c.1,0,7.8,1.6,13.7,0a1.14,1.14,0,1,1,.6,2.2A21.6,21.6,0,0,1,212.354,338.1Z" fill="#191919"/><path d="M215.654,308.1a37.491,37.491,0,0,1-8-.8,1.118,1.118,0,0,1,.4-2.2c.1,0,7.8,1.6,13.7,0a1.14,1.14,0,0,1,.6,2.2A25.091,25.091,0,0,1,215.654,308.1Z" fill="#191919"/><path d="M219.554,278.5a37.491,37.491,0,0,1-8-.8,1.118,1.118,0,0,1,.4-2.2c.1,0,7.8,1.6,13.7,0a1.14,1.14,0,0,1,.6,2.2A25.091,25.091,0,0,1,219.554,278.5Z" fill="#191919"/><path d="M223.754,247.9a37.491,37.491,0,0,1-8-.8,1.118,1.118,0,0,1,.4-2.2c.1,0,7.8,1.6,13.7,0a1.14,1.14,0,1,1,.6,2.2A25.091,25.091,0,0,1,223.754,247.9Z" fill="#191919"/><path d="M230.154,249.3h0a1.049,1.049,0,0,1-1.1-1.1q-.15-10.35-4.8-13.8a8.589,8.589,0,0,0-6.8-1.3,1.1,1.1,0,0,1-1.4-1.2l1.6-12.4a1.068,1.068,0,0,1,.7-.9.913.913,0,0,1,1.1.2l6.6,5.5,7.2,2.7a1.086,1.086,0,0,1,.7,1.2l-2.7,20.2A1.088,1.088,0,0,1,230.154,249.3Z" fill="#191919"/><path d="M269.054,100.9a251.522,251.522,0,0,1,13.3-30.6c8.1-15.5,15.2-22.3,23-18.7,7.8,3.5,4.6,16.9,4.6,16.9s9.2-10.6,16.5-5.1,1.4,17.7-3,22.5c0,0,12.8,2.8,6.1,14.9-6.8,12.1-26.9,25.4-26.9,25.4A59.215,59.215,0,0,0,269.054,100.9Z" fill="#fff"/><path d="M331.054,89.5a10.556,10.556,0,0,0-5.9-4.2,38.127,38.127,0,0,0,3.8-7.2c2.5-6.5,2.1-11.7-1.4-15.1-2.1-2-5.8-3.6-12.1-.1-1.5.9-2.9,1.9-4,2.7.3-3.3.3-8.6-2.3-12.2a9.371,9.371,0,0,0-6.9-3.9c-6.8-.8-14.7,7.7-23.4,25.1a273.9,273.9,0,0,0-10.9,25.9,1.107,1.107,0,0,0,2.1.7c4.9-14.2,20.1-50.9,31.9-49.5a6.866,6.866,0,0,1,5.3,3c2.9,4.1,1.9,11.2,1.5,13.1a80.12,80.12,0,0,0-7.7,5.4c-5.6,4.5-8.4,8.3-8.4,11.5,0,1.3.6,3.2,3.1,4.7a6.939,6.939,0,0,0,3.5,1,5.834,5.834,0,0,0,2.6-.6c6.3-3.2,8.6-18,8.9-20.8,1.6-1.5,10.2-9.1,15-4.4,6.2,6-1.7,18.1-3.3,20.3-1.8.3-7.7,1.4-10.8,5.4a9.431,9.431,0,0,0-1.9,7.2c.3,2,1.2,2.6,1.9,2.8h.4c1.3,0,3.3-1.1,7.4-6.9,1.8-2.5,3.4-5,4.1-6.2a8.7,8.7,0,0,1,5.3,3.4c1.2,1.9,1.2,4.5.1,7.7-3.6,10.3-27.3,26.8-27.5,27a1.151,1.151,0,0,0,.6,2.1,1.421,1.421,0,0,0,.6-.2c1-.7,24.5-17.1,28.3-28.1C332.754,95.2,332.654,92,331.054,89.5Zm-30.1-1.7a4.143,4.143,0,0,1-4-.3c-1.3-.8-2-1.7-2-2.8,0-2.3,2.7-5.7,7.5-9.7,2.2-1.7,4.3-3.2,5.9-4.2C307.454,76.3,305.054,85.8,300.954,87.8Zm11.5,10.2c0-.1-.1-.3-.2-.8a6.9,6.9,0,0,1,1.4-5.5c1.9-2.4,5.2-3.6,7.4-4.1C317.454,93.3,313.754,97.9,312.454,98Z" fill="#191919"/><path d="M220.654,211.2c-29-18.6-27.5-54.7-24.7-72.8,1.8-12.2,15.2-28.7,33.6-38-23.7,7.5-42.2,28-44.4,42.4-2.7,18.1-4.2,54.2,24.7,72.8,23.9,15.3,47.3,15.6,67.9,5C260.054,226.2,240.454,223.9,220.654,211.2Z" fill="#fece2f"/><path d="M249.954,86.6c-.7-2.4-1.5-4.7-2.4-7-5.2-14-14.7-34.2-30.7-50.9a93.932,93.932,0,0,0-26.8-19.8,77.858,77.858,0,0,0-34.2-7.8h-.3c-38,.1-68.7,22.6-88.7,65a223.263,223.263,0,0,0-14.9,43.6l8.2.7s9-56.1,47.3-86.2,90.7-19.8,117.5,26.4C239.254,75.2,245.954,84.1,249.954,86.6Z" fill="#fece2f"/><path d="M221.354,199.9a1.854,1.854,0,0,1-.7-.2,19.424,19.424,0,0,1-7.5-15.5,1.11,1.11,0,0,1,1.1-1.1h0a1.135,1.135,0,0,1,1.1,1.2,16.815,16.815,0,0,0,6.6,13.6,1.127,1.127,0,0,1,.2,1.6A.894.894,0,0,1,221.354,199.9Z" fill="#fece2f"/><path d="M230.254,201.3a.6.6,0,0,1-.4-.1,15.2,15.2,0,0,1-9-11.5,1.118,1.118,0,1,1,2.2-.4,12.881,12.881,0,0,0,7.6,9.7,1.142,1.142,0,0,1,.6,1.5A1.021,1.021,0,0,1,230.254,201.3Z" fill="#fece2f"/><path d="M297.354,168.4s16.3,11.2,6.1,29.5c0,0,9.6-16.2,9.9-28.6Z" fill="#181818"/><path d="M314.454,169.3h0c.2-2.1.3-4.3.3-6.5a66.455,66.455,0,0,0-32.3-56.9l-.1-.1a20.521,20.521,0,0,0-3.5-1.9,64.821,64.821,0,0,0-24.8-7.2,158.566,158.566,0,0,0-5.4-17.5c-5.2-14.1-14.8-34.4-31-51.3a93.128,93.128,0,0,0-27.2-20,80.108,80.108,0,0,0-34.7-7.9h-.3c-38.5.1-69.5,22.8-89.7,65.6a212.957,212.957,0,0,0-14,39.8h0c-1,4-1.8,7.7-2.5,10.8h0c-1.4,6.9-1.9,11.4-2,11.8a11.005,11.005,0,0,0,9.6,12.2c.4,0,.9.1,1.3.1a10.933,10.933,0,0,0,10.9-9.7c0-.1.4-3.6,1.6-9.3l5.5-21.7a182.072,182.072,0,0,1,9.7-25.2c16.5-34.8,39.9-52.5,69.7-52.6h.2c17,0,32.5,7.1,46,21.2,14.9,15.5,24.9,36.9,30,55.4a66.3,66.3,0,1,0,72.4,100l.2-.2a2.767,2.767,0,0,1,.4-.7,67.523,67.523,0,0,0,7.5-16.9A41.632,41.632,0,0,0,314.454,169.3Zm-66.1,57.6a64.131,64.131,0,0,1-16.1-126.2c2.5,9.8,3.7,18.6,3.4,25.1a1.151,1.151,0,0,0,2.3.1c.8-19.4-10.7-59.4-34.6-84.3-13.9-14.5-29.9-21.9-47.6-21.9h-.2c-30.6.1-54.7,18.2-71.7,53.9a183.1,183.1,0,0,0-9.7,25.3c-7.3,10.1-17.1,7.2-20,6.1a213.337,213.337,0,0,1,13.6-38.4c19.8-42,50.1-64.2,87.6-64.4h.3a77.011,77.011,0,0,1,33.7,7.7,93.818,93.818,0,0,1,26.5,19.6c15.9,16.6,25.4,36.6,30.5,50.5,6.3,17,9.5,34,9,46.7a1.292,1.292,0,0,0,.9,1.2h0c.3,0,.7.1,1,.1,4.7,0,7.5-5.5,10.3-10.8,2.4-4.6,4.9-9.4,8.3-10.4a6.018,6.018,0,0,1,4.6.7,64.247,64.247,0,0,1,31.9,55.4c0,1.8-.1,3.5-.2,5.3l-14.9-.8a1.126,1.126,0,0,0-1.1.7,1.249,1.249,0,0,0,.4,1.3,24.328,24.328,0,0,1,6.6,7.6c3.4,6.2,3.2,13-.6,20.1A64.273,64.273,0,0,1,248.354,226.9Z" fill="#191919"/><path d="M356.754,127.6c1.8,1.5,4.9-1.3,9.5.7,9.2,4-4.5,16.2-18.9,24.3-14.4,8-42.4,25-50.8,15.5-2.3-2.6-4.7-10.6,4.7-24.1,9.3-13.4,29.7-30.2,39-19.8C340.354,124.2,350.554,122.5,356.754,127.6Z" fill="#fff"/><path d="M366.854,127.3a12.279,12.279,0,0,0-9.4-.7,19.114,19.114,0,0,0-16.1-3.1v-.1a11.015,11.015,0,0,0-9.2-3.6c-6.2.4-12.7,4.6-17.1,8.1a77.031,77.031,0,0,0-14.4,15.3c-11.6,16.7-5.3,24.6-4.6,25.5,2,2.3,4.9,3.2,8.4,3.2,11.1,0,28.1-9.6,40.3-16.5,1.2-.7,2.4-1.3,3.5-1.9,5.2-2.9,22.2-13.1,22.2-21.2A6.487,6.487,0,0,0,366.854,127.3Zm-20,24.3c-1.1.6-2.2,1.3-3.5,1.9-7.3,4.1-17.3,9.8-26.2,13.2-10,3.8-16.6,4-19.7.6-.3-.3-6-7.2,4.7-22.7,7.4-10.6,20.6-22,29.9-22.5a9.089,9.089,0,0,1,6.7,2.2c-.7.3-1.5.6-2.3,1a31.452,31.452,0,0,0-9.1,6.6,1.122,1.122,0,0,0,.1,1.6,1.08,1.08,0,0,0,.7.3.909.909,0,0,0,.8-.4,33.9,33.9,0,0,1,8.5-6.2q9.15-4.35,17.1.3a42.379,42.379,0,0,0-11.1,7,1.134,1.134,0,0,0,1.5,1.7c.1-.1,12.8-11.3,20.7-6.9a3.552,3.552,0,0,1,2.2,3.1C367.954,136.8,359.454,144.6,346.854,151.6Z" fill="#191919"/><circle cx="49.676" cy="145.919" r="31.7" fill="#fff"/><circle cx="55.255" cy="141.435" r="16.8" fill="#fff"/><path d="M55.254,159.3a17.9,17.9,0,1,1,17.9-17.9A17.882,17.882,0,0,1,55.254,159.3Zm0-33.6a15.6,15.6,0,1,0,15.6,15.6A15.62,15.62,0,0,0,55.254,125.7Z" fill="#191919"/><circle cx="55.255" cy="141.435" r="11.2" fill="#191919"/><circle cx="58.254" cy="135.4" r="6" fill="#fff"/><path d="M58.554,188.3c1.6-21.5-11.4-24.9-11.4-24.9l-8.5,24.9Z" fill="#fece2f"/><path d="M21.554,160.8s-2.4,3.4-4.9,22.4.5,36.8,4.2,36.8,25.6-38.1,26.2-56.5C47.154,163.4,37.054,156.9,21.554,160.8Z" fill="#fece2f"/><path d="M82.554,145.9a32.819,32.819,0,0,0-32.8-32.8c-1.2,0-2.4.1-3.6.2a18.785,18.785,0,0,0-.1-12.6c-1.2-3.1-3.1-3.8-4.4-3.8a7.033,7.033,0,0,0-4,1.8c-1.8,1.4-2.6,1.9-3.8,1s-2.2-3.6-3.2-6.1c-1.7-4.1-3.4-8.4-6.6-8-3.7.6-4.5,5-5.2,8.7-.4,2.1-.9,4.7-1.8,5-1.6.5-3.7-2.5-5.6-5.2-2.2-3.1-4.4-6.1-6.9-6.3a3.971,3.971,0,0,0-3.1,1.2c-1.9,1.8-3.4,6.9,5.4,31.4,4.2,11.7,9,23,10.1,25.5v.1a33.264,33.264,0,0,0,3.5,14.8c-.8,1.6-2.8,7-4.8,22.2-2,15.5-.5,32.7,3.2,37a2.756,2.756,0,0,0,2.1,1.1c.6,0,2,0,6.5-6.7a164.032,164.032,0,0,0,8.7-15.2c1.3-2.5,3.1-6.3,5-10.8h9.4c1.7-11.9-1-19.7-2.6-23v-.2c3.1,1.5,10.5,7,9.3,23.2h2.3a38.2,38.2,0,0,0-.6-10.9A33.092,33.092,0,0,0,82.554,145.9Zm-48,51.5c-6.2,12.4-12.1,20.7-13.7,21.4-.1,0-.2-.1-.4-.3-2.6-2.9-4.9-18.1-2.7-35.2,2-15.3,4-20.3,4.6-21.5,12.6-3,21.4,1.2,23.6,2.4C45.454,171.8,41.354,183.8,34.554,197.4Zm24-22.2a23.428,23.428,0,0,0-2.8-6.2,16.379,16.379,0,0,0-8.1-6.6c-1.3-.8-10.9-6.3-25.4-2.9a30.449,30.449,0,0,1-3.1-12h.1a1.952,1.952,0,0,0,.7-.1c2.2-.6,3.9-3.7,5.3-9.7,1.9-8.4,5.8-14.9,11.3-18.7a23.559,23.559,0,0,1,4-2.2,31.047,31.047,0,0,1,9.2-1.4,30.538,30.538,0,0,1,8.8,59.8Z" fill="#191919"/></g></g>
      </g>
    </g>
</g>

              </svg>