<?xml version="1.0" encoding="UTF-8"?><svg version="1.1" xmlns="http://www.w3.org/2000/svg" xmlns:xlink="http://www.w3.org/1999/xlink" viewBox="0 0 900 650" width="900" height="650" x="0px" y="0px">
              
              <!-- ITEM 0 -->
<g>
    <defs>
        
        <clipPath id="clip-path-id-viewbox-item-0">
            <rect x="0.0" y="0.0" width="1200.0" height="800.0"/>
        </clipPath>
    </defs>
    <g transform="translate(1051.0 -75.0) rotate(0.0 -600.0 400.0) scale(-1.0 1.0)">
      <g clip-path="url(#clip-path-id-viewbox-item-0)" transform="translate(-0.0 -0.0)">
      
              
              <!-- ITEM 0 -->
<g>
    <defs>
        
        <clipPath id="clip-path-id-viewbox-item-0-i0">
            <rect x="0.0" y="0.0" width="555.41" height="633.362"/>
        </clipPath>
    </defs>
    <g transform="translate(877.0 83.0) rotate(0.0 -277.5 316.5) scale(-0.9992618065933275 0.9994284469229288)">
      <g clip-path="url(#clip-path-id-viewbox-item-0-i0)" transform="translate(-0.0 -0.0)">
      <title>stork</title><g id="Layer_2-i0-i0" data-name="Layer 2"><g id="stork-i0-i0"><path d="M438.442,28.615a10.947,10.947,0,0,0-8.3-3.833c-7.034,0-10.7,8.551-12.553,16.765-.8-15.754-2.569-26.454-5.265-31.762C409.334,4.1,403.689.265,397.918.012c-5.139-.21-9.689,2.317-12.848,7.161-5.434,8.383-4.676,23.464-3.286,33.911-2.865-5.56-6.572-10.405-11.121-12.174-3.707-1.432-7.54-.716-11.416,2.148-19.546,14.323,4.844,75.32,5.813,77.679.211.505,22.369,11.458,39.387,9.9,25.065-2.317,41.241-17.861,41.283-18.535C449.058,64.463,446.109,37.082,438.442,28.615Z" style="fill:#1a1a1a"/><path d="M393.2,80.092a1.252,1.252,0,0,1-1.222-.927L382.711,47.7a1.253,1.253,0,1,1,2.4-.716l9.267,31.467a1.218,1.218,0,0,1-.842,1.559A.569.569,0,0,1,393.2,80.092Z" style="fill:#fff"/><path d="M419.865,77.017a1.277,1.277,0,0,1-1.264-1.138l-2.612-29.993a1.24,1.24,0,0,1,1.138-1.348,1.265,1.265,0,0,1,1.348,1.138l2.612,29.993a1.24,1.24,0,0,1-1.138,1.348Z" style="fill:#fff"/><path d="M377.993,288.484,329.38,632.1H274.618c9.183-6.024,40.187-17.566,40.187-17.566L361.564,280.9S367.883,271.424,377.993,288.484Z" style="fill:#fece2f"/><path d="M361.564,280.9l-46.759,333.63s-8.762,3.286-18.366,7.246l.126.5,26.118-3.37,44.652-340.539A6.163,6.163,0,0,0,361.564,280.9Z" style="fill:#fff"/><path d="M378.161,287.221a1.215,1.215,0,0,0-1.306.716l-14.069-6.488.042-.379a1.275,1.275,0,0,0-2.528-.337l-46.632,332.83c-3.412,1.18-18.2,6.614-39.6,17.4a1.3,1.3,0,0,0-.674,1.432,1.222,1.222,0,0,0,1.222.969H329.38a1.271,1.271,0,0,0,1.264-1.095L354.95,460.312c.042-.126.085-.21.127-.337V459.6l24.179-170.943A1.275,1.275,0,0,0,378.161,287.221Zm-2.317,7.582-1.179,8.425-14.618-2.148.506-3.581ZM367.8,351.588l-14.575-2.149,6.445-45.874,14.618,2.148Zm-7.666,54.13-14.491-2.106,7.245-51.687,14.533,2.148Zm-7.456,52.614-14.407-2.106L345.3,406.1,359.8,408.2Zm-6.951,49.413-14.365-1.98,6.572-47.011,14.407,2.106Zm-28.35,97.6,6.656-47.644,14.322,1.854-6.7,47.433Zm7.035-50.129,6.571-46.969,14.365,1.979-6.614,46.843Z" style="fill:#1a1a1a"/><path d="M332.5,608.34h-.127L316.2,606.486a1.251,1.251,0,0,1,.3-2.485l16.176,1.853a1.247,1.247,0,0,1-.168,2.486Z" style="fill:#1a1a1a"/><path d="M450.743,288.484,499.355,632.1h54.762c-9.183-6.024-40.187-17.566-40.187-17.566L467.171,280.9S460.853,271.424,450.743,288.484Z" style="fill:#fece2f"/><path d="M497.375,618.281h6.4L456.3,281.112a32.639,32.639,0,0,0-5.6,7.33Z" style="fill:#fff"/><path d="M554.665,630.961a373.444,373.444,0,0,0-39.6-17.4l-46.633-332.83a1.308,1.308,0,0,0-1.432-1.1,1.282,1.282,0,0,0-1.095,1.432l.042.38-14.07,6.487a1.215,1.215,0,0,0-1.306-.716,1.308,1.308,0,0,0-1.1,1.432L473.659,459.6a1.148,1.148,0,0,0,0,.379.478.478,0,0,0,.126.337L487.6,558a1.205,1.205,0,0,0-.084.674,1.1,1.1,0,0,0,.3.632l10.32,72.961a1.272,1.272,0,0,0,1.264,1.095H554.16a1.264,1.264,0,0,0,1.221-.969A1.3,1.3,0,0,0,554.665,630.961ZM452.891,294.8l15.291,2.654.506,3.581-14.617,2.148Zm1.559,10.911,14.617-2.149,6.445,45.874-14.575,2.149Zm6.824,48.359,14.533-2.148,7.246,51.687-14.492,2.106Zm7.667,54.131,14.491-2.107,7.035,50.129-14.407,2.106ZM476.4,460.86l14.407-2.106,6.571,47.011-14.365,1.98Zm6.993,49.37,14.364-1.979,6.572,46.969L490,557.074Zm21.273,47.518,6.487,46.379-14.28,1.643L490.34,559.6Z" style="fill:#1a1a1a"/><path d="M104.686,273.656c5.055-6.529,15.375-24.432,6.74-49.918S80.464,188.564,72.46,187.3l-14.112-1.811s5.1-15.039.084-19.294c-.8-.042-7.245,3.665-9.983,6.277,0,0,2.611-15.965-2.107-17.524L37.58,160.34s1.475-18.24-3.875-16.934A73.442,73.442,0,0,0,14.749,169.06c-6.825,15.881-20.22,47.264-10.532,84.166s42.547,44.02,42.547,44.02,24.853,4.634,42.757-8.846S104.686,273.656,104.686,273.656Z" style="fill:#fff"/><circle cx="63.192" cy="231.321" r="30.751" style="fill:#fff"/><path d="M42.551,263.757c-10.742-2.949-22.537-1.264-28.224,9.057S9.272,305.25,9.483,331.368,13.7,391.817,17.276,391.4s5.687-10.742,5.687-10.742,4.844,4.634,12.006-.843,12.637-32.646,12.637-32.646l10.321-37.071s9.689-22.747.632-34.963C50.766,264.6,42.551,263.757,42.551,263.757Z" style="fill:#fece2f"/><path d="M63.192,199.306a32.015,32.015,0,1,0,32.015,32.015A32.055,32.055,0,0,0,63.192,199.306Zm21.9,51.771a30.74,30.74,0,0,0-51.308-21.526A29.492,29.492,0,1,1,85.1,251.077Z" style="fill:#1a1a1a"/><path d="M51.313,339.961c3.918-13.9,7.835-29.656,10.068-40.819a57.491,57.491,0,0,0-1.264-114.875c4-12.553-.463-18.577-.674-18.83a1.3,1.3,0,0,0-1.306-.463,19.156,19.156,0,0,0-8.3,4.971c1.9-12.764-2.275-15.755-2.78-16.092a1.233,1.233,0,0,0-1.264-.042,49.836,49.836,0,0,0-6.909,4.423c.464-4.8,0-8.8-1.348-11.879a8.852,8.852,0,0,0-3.117-4,1.279,1.279,0,0,0-1.559.21C11.589,164.131,4.049,190,1.437,207.9c-2.822,19.378-.632,33.447-.548,34,1.6,12.722,5.519,23.885,11.416,32.9-2.274,4.886-3.58,11.036-3.833,18.408-.548,14.534-.379,34.332.421,51.856-.042.042.458,11.869,1.095,18.072.59,7.119,1.264,13.059,2.022,17.65,1.391,8.257,2.907,11.669,5.182,11.837h.21c1.348,0,2.991-1.053,5.814-9.436,2.569.674,8.972,1.728,12.721-2.569,3.2-3.707,7.12-13.9,10.616-24.728ZM3.375,241.515c-.042-.126-2.233-14.28.547-33.279,2.486-17.271,9.731-42.167,29.867-63.061,1.306,1.474,3.749,5.687,2.233,15.418a49.759,49.759,0,0,0-14.449,21.526,1.258,1.258,0,0,0,.884,1.558,1.052,1.052,0,0,0,.337.042,1.3,1.3,0,0,0,1.222-.926,49.065,49.065,0,0,1,22.158-26.329c.927,1.306,2.907,5.645.463,16.977a45.4,45.4,0,0,0-5.35,8.425,1.262,1.262,0,1,0,2.275,1.095c.042-.126,6.066-12.511,14.365-15.333a13.584,13.584,0,0,1,1.137,3.622c.463,2.738.506,7.33-1.811,13.733v.084c0,.042-.042.085-.042.127v.505c0,.042.042.084.042.127s.042.084.042.126a.147.147,0,0,0,.042.084c0,.042.042.084.084.127s.042.084.084.084l.085.084.084.084c.042.042.084.042.084.085a.151.151,0,0,1,.085.042.154.154,0,0,0,.126.042h.042a.154.154,0,0,1,.126.042c.042,0,.042,0,.085.042.084,0,.168.042.252.042h0a54.95,54.95,0,0,1,32.31,99.415c-14.7,7.5-28.055-7.456-31.594-11.921-4.507-6.951-11.879-10.279-16.091-11.669-6.277-2.106-15.5-2.527-22.748,2.486a22.894,22.894,0,0,0-6.571,7.161C8.388,263.715,4.891,253.31,3.375,241.515Zm56.49,52.361c-1.77,9.942-13.059,52.3-13.059,52.3s-7.328,24.641-12.039,31.689c-2.854,4.271-8.7,2.971-10.747,2.472,2.5-9.159,9.58-38.985,9.58-38.985s6-30.035,6-30.161a1.264,1.264,0,1,0-2.485-.464c-.042.211-3.581,19.5-7.835,38.924-2.528,11.416-4.8,20.6-6.74,27.381-3.033,10.447-4.676,12.6-5.182,13.017-1.348-1.138-3.875-9.942-5.476-36.649-1.179-19.462-1.516-43.094-.884-60.112.463-12.806,4.086-21.611,10.7-26.2a20.857,20.857,0,0,1,12.048-3.5,27.386,27.386,0,0,1,8.425,1.348C50.218,267.675,63.235,275,59.865,293.876Z" style="fill:#1a1a1a"/><path d="M413.462,90.707a102.4,102.4,0,0,0-89.811,151.524c-3.37.3-6.908.463-10.657.548-22.537.463-77.51-18.156-77.51-18.156s-38.966-12.216-75.4-18.114-60.239,6.319-60.239,6.319-5.265,6.529-4.212,13.269,7.582,12.216,7.582,13.48c37.7-14.533,88.673,1.053,111.631,7.372s46.549,16.218,82.776,22.537c18.325,3.2,33.153,1.769,45.453-2.064A102.361,102.361,0,1,0,413.462,90.707Z" style="fill:#fff"/><path d="M486.717,119.774a103.637,103.637,0,0,0-164.877,121.7,76.2,76.2,0,0,1-8.762,0c-18.324-.843-43.515-8.3-70.138-16.218C195.3,211.143,141.8,195.3,105.107,209.331c.084.085.168.211.253.3a20.7,20.7,0,0,1,1.6,2.612c4.55,6.529,6.909,17.9,7.667,22.074a2.377,2.377,0,0,1,.337,1.179,6.245,6.245,0,0,0,.042.885c.042.126.042.21.084.337,0,.084.042.126.042.21,34.88-8.13,82.313,5.94,124.985,18.577,27.634,8.215,53.71,15.924,72.877,16.471,1.095.042,2.19.042,3.243.042a100.658,100.658,0,0,0,26.455-3.37l.126.127c.379.337.716.674,1.1,1.011a1.9,1.9,0,0,1,.294.3,103.6,103.6,0,0,0,142.509-150.3Zm-1.769,144.783a101.144,101.144,0,0,1-127.6,12.638c2.823-6.024,7.962-8.889,15-12.848a127.853,127.853,0,0,0,13.48-8.383c7.119-5.224,11.458-13.649,12.511-24.306a54.288,54.288,0,0,0-.5-14.576c0-.042,0-.042-.042-.084,0-.042,0-.042-.043-.084,0-.042-.042-.084-.042-.126s0-.043-.042-.085-.084-.126-.126-.168c0-.042-.042-.042-.042-.084l-.127-.127-.084-.084c-.042,0-.042-.042-.084-.042a.155.155,0,0,0-.127-.042c-.042,0-.042-.042-.084-.042s-.042-.043-.084-.043h-.084a1.3,1.3,0,0,0-1.475.885,77.373,77.373,0,0,1-16.344,27,75.872,75.872,0,0,1-25.149,18.114c-11.963,5.35-25.7,7.835-40.819,7.456-18.83-.5-44.737-8.214-72.2-16.344-30.667-9.1-63.778-18.915-93.139-20.768-26.707-6.993-24.559-22.2-23.927-25.022,34.374-4.55,78.479,8.509,118.456,20.346,26.791,7.92,52.066,15.418,70.728,16.3,1.474.085,2.949.085,4.381.085,25.528,0,40.187-10.953,48.064-20.473a56.352,56.352,0,0,0,11.416-22.368,1.264,1.264,0,1,0-2.485-.464,53.649,53.649,0,0,1-10.868,21.231,51.314,51.314,0,0,1-18.535,14.112,63.078,63.078,0,0,1-20.347,5.139,101.231,101.231,0,0,1,4.634-104.133c6.277,8.046,13.227,16.935,13.985,17.524,1.391,1.138,14.449,5.392,14.449,5.392s3.033-20.978-4.97-32.52c-3.539-5.139-6.109-9.057-1.306-14.238a101.106,101.106,0,0,1,133.536,8.34c.674.674,1.348,1.39,2.022,2.107l-22.7,39.555s10.362,5.013,21.357.842c10.658-3.791,17.145,4.087,18.24,8.3.927,3.5,4.171,11.247,10.405,12.638.211,2.653.337,5.349.337,8.045A100.418,100.418,0,0,1,484.948,264.557Z" style="fill:#1a1a1a"/><path d="M469.91,243.663h-.085a1.268,1.268,0,0,1-1.179-1.348,17.349,17.349,0,0,0-.169-5.729,5.136,5.136,0,0,0-2.991-3.665,1.266,1.266,0,0,1,.8-2.4,7.577,7.577,0,0,1,4.634,5.434,19.32,19.32,0,0,1,.21,6.572A1.179,1.179,0,0,1,469.91,243.663Z" style="fill:#1a1a1a"/><path d="M474.838,235.154a1.305,1.305,0,0,1-.548-.126,1.263,1.263,0,0,1-.589-1.685,4.457,4.457,0,0,0-.042-3.665,4.541,4.541,0,0,0-2.654-2.57,1.265,1.265,0,1,1,.8-2.4,7.276,7.276,0,0,1,4.213,9.731A1.4,1.4,0,0,1,474.838,235.154Z" style="fill:#1a1a1a"/><path d="M479.261,225.381a2.116,2.116,0,0,1-.505-.084,1.237,1.237,0,0,1-.674-1.643,3.276,3.276,0,0,0-2.022-4.128,1.268,1.268,0,0,1,.674-2.444,5.72,5.72,0,0,1,3.665,7.5A1.176,1.176,0,0,1,479.261,225.381Z" style="fill:#1a1a1a"/><path d="M463.17,161.393c-5.055-3.96-4.55-14.87-2.444-22.452s17.145-39.724,17.145-39.724,15.46-25.149,17.693-28.351,8.425-11.5,17.144-6.529c0,0,9.689-12.848,19.8-9.057,0,0,7.878-7.709,14.449-2.106s1.98,18.661,1.98,18.661-7.877,14.449-15.291,24.138c-7.456,9.689-33.279,41.283-39.261,47.6S470.71,167.291,463.17,161.393Z" style="fill:#fff"/><path d="M549.905,54.4a10.191,10.191,0,0,0-9.268-4.845c-.968,0-3.075.084-7.624,4.423-1.685-.8-6.319-2.359-12.343,1.011-1.938,1.053-4.634,3.96-7.709,7.878-1.558-1.264-5.855-3.749-12.342.421-8.467,5.434-30.5,47.433-36.523,62.219-4.591,11.331-10.91,31.172-1.6,36.943a8.446,8.446,0,0,0,4.592,1.264c6.572,0,15.713-6.4,28.182-19.588C509.8,128.788,540.68,90.5,547.925,76.848,552.432,68.381,553.233,59.745,549.905,54.4Zm-4.213,21.315c-7.161,13.48-37.828,51.435-52.235,66.684-14.364,15.165-24.306,21.189-29.571,17.9-5.561-3.454-4.592-16.092,2.611-33.826,3.286-8.088,10.4-22.285,17.314-34.585,8.256-14.7,14.912-24.348,18.2-26.455,5.392-3.454,8.551-1.348,9.478-.589-11.753,15.5-27.845,43.178-28.729,44.736a1.29,1.29,0,0,0,.463,1.728,1.192,1.192,0,0,0,.632.168,1.27,1.27,0,0,0,1.095-.632c7.878-13.564,29.825-49.665,37.028-53.667,4.255-2.359,7.54-1.854,9.225-1.306a144.823,144.823,0,0,0-13.522,17.65c-7.793,11.585-14.406,23.253-14.491,23.38a1.265,1.265,0,0,0,2.191,1.264c10.026-17.735,28.518-45.959,35.385-46.127a7.516,7.516,0,0,1,7.035,3.622C550.537,60.251,549.736,68.086,545.692,75.711Z" style="fill:#1a1a1a"/><path d="M274.786,59.24c-8.509-.421-10.068,7.919-9.941,12.553s3.665,15.165,15.881,31.3,35.68,44.231,35.68,44.231,20.936,22.622,29.614,23.3,10.11-4.761,10.236-8.973-3.075-21.61-9.141-34.121c-6.024-12.511-19.8-38.208-19.8-38.208s-11.5-18.83-17.4-18.535-7.119,1.9-7.119,1.9-7.288-13.1-20.389-8.889C282.411,63.832,278.957,59.451,274.786,59.24Z" style="fill:#fff"/><path d="M331.655,119.9a1.27,1.27,0,0,1-1.095-.632C322.683,105.7,300.735,69.6,293.532,65.6c-6.108-3.412-10.279-.843-10.447-.716a1.238,1.238,0,0,1-1.727-.379,1.266,1.266,0,0,1,.337-1.728c.211-.168,5.518-3.58,13.059.632,9.267,5.182,36.817,52.572,37.954,54.594a1.29,1.29,0,0,1-.463,1.728A.97.97,0,0,1,331.655,119.9Z" style="fill:#1a1a1a"/><path d="M348.379,172.177c-6.572,0-15.671-6.4-28.182-19.588-14.533-15.333-45.411-53.625-52.656-67.274-4.55-8.509-5.308-17.145-2.022-22.494a10.189,10.189,0,0,1,9.267-4.845c6.993.127,19.041,18.114,23.043,24.011,7.793,11.585,14.406,23.254,14.491,23.38a1.265,1.265,0,0,1-2.191,1.264C300.1,88.9,281.611,60.672,274.744,60.5a7.516,7.516,0,0,0-7.035,3.622c-2.78,4.508-1.979,12.385,2.107,20.01,7.161,13.48,37.828,51.435,52.235,66.684,14.364,15.165,24.306,21.189,29.571,17.9,5.561-3.454,4.592-16.092-2.611-33.826-3.286-8.088-10.405-22.285-17.314-34.585-8.256-14.7-14.912-24.348-18.2-26.455-6.361-4.086-9.6-.463-9.731-.3a1.27,1.27,0,0,1-1.937-1.642c.042-.043,4.76-5.519,13.016-.169,8.467,5.434,30.5,47.433,36.523,62.219,4.591,11.331,10.91,31.172,1.6,36.943A8.655,8.655,0,0,1,348.379,172.177Z" style="fill:#1a1a1a"/></g></g>
      </g>
    </g>
</g>

              
      </g>
    </g>
</g>

              </svg>